<?xml version="1.0" encoding="UTF-8"?>
<svg xmlns="http://www.w3.org/2000/svg" xmlns:xlink="http://www.w3.org/1999/xlink" width="504pt" height="360pt" viewBox="0 0 504 360" version="1.1">
<defs>
<clipPath id="clip1">
  <path d="M 51.25 7.96875 L 497 7.96875 L 497 334 L 51.25 334 Z M 51.25 7.96875 "/>
</clipPath>
</defs>
<g id="surface44">
<rect x="0" y="0" width="504" height="360" style="fill:rgb(100%,100%,100%);fill-opacity:1;stroke:none;"/>
<path style="fill:none;stroke-width:2.069291;stroke-linecap:round;stroke-linejoin:round;stroke:rgb(100%,100%,100%);stroke-opacity:1;stroke-miterlimit:10;" d="M 0 0 L 504 0 L 504 360 L 0 360 Z M 0 0 "/>
<g clip-path="url(#clip1)" clip-rule="nonzero">
<path style=" stroke:none;fill-rule:nonzero;fill:rgb(100%,100%,100%);fill-opacity:1;" d="M 51.25 7.96875 L 496.03125 7.96875 L 496.03125 333.394531 L 51.25 333.394531 Z M 51.25 7.96875 "/>
</g>
<path style="fill:none;stroke-width:1.422638;stroke-linecap:butt;stroke-linejoin:round;stroke:rgb(0%,0%,0%);stroke-opacity:1;stroke-miterlimit:10;" d="M 71.46875 318.601562 L 160.421875 318.601562 L 164.46875 170.683594 L 249.378906 170.683594 L 253.421875 22.761719 L 293.855469 22.761719 L 297.902344 170.683594 L 382.8125 170.683594 L 386.855469 318.601562 L 475.8125 318.601562 "/>
<path style="fill:none;stroke-width:2.069291;stroke-linecap:butt;stroke-linejoin:round;stroke:rgb(0%,0%,0%);stroke-opacity:1;stroke-miterlimit:10;" d="M 51.25 333.394531 L 51.25 7.96875 "/>
<path style=" stroke:none;fill-rule:evenodd;fill:rgb(30.196078%,30.196078%,30.196078%);fill-opacity:1;" d="M 27.257812 323.003906 L 27.257812 322.050781 L 29.503906 322.050781 L 29.503906 315.273438 L 27.515625 316.691406 L 27.515625 315.628906 L 29.597656 314.199219 L 30.632812 314.199219 L 30.632812 322.050781 L 32.777344 322.050781 L 32.777344 323.003906 Z M 27.257812 323.003906 "/>
<path style=" stroke:none;fill-rule:evenodd;fill:rgb(30.196078%,30.196078%,30.196078%);fill-opacity:1;" d="M 34.570312 323.003906 L 34.570312 321.636719 L 35.789062 321.636719 L 35.789062 323.003906 Z M 34.570312 323.003906 "/>
<path style=" stroke:none;fill-rule:evenodd;fill:rgb(30.196078%,30.196078%,30.196078%);fill-opacity:1;" d="M 43.578125 318.597656 L 43.574219 318.847656 L 43.566406 319.089844 L 43.554688 319.324219 L 43.539062 319.550781 L 43.515625 319.769531 L 43.488281 319.976562 L 43.457031 320.179688 L 43.421875 320.375 L 43.378906 320.558594 L 43.332031 320.738281 L 43.285156 320.90625 L 43.230469 321.070312 L 43.175781 321.226562 L 43.113281 321.375 L 43.050781 321.519531 L 42.984375 321.65625 L 42.910156 321.785156 L 42.835938 321.910156 L 42.757812 322.027344 L 42.675781 322.136719 L 42.59375 322.238281 L 42.507812 322.335938 L 42.417969 322.429688 L 42.324219 322.511719 L 42.226562 322.59375 L 42.128906 322.667969 L 42.027344 322.734375 L 41.921875 322.792969 L 41.8125 322.851562 L 41.703125 322.898438 L 41.589844 322.941406 L 41.472656 322.980469 L 41.359375 323.015625 L 41.238281 323.046875 L 41.121094 323.074219 L 41 323.09375 L 40.878906 323.109375 L 40.753906 323.121094 L 40.628906 323.128906 L 40.375 323.128906 L 40.246094 323.121094 L 40.125 323.109375 L 40 323.09375 L 39.878906 323.074219 L 39.761719 323.046875 L 39.644531 323.015625 L 39.527344 322.980469 L 39.414062 322.941406 L 39.300781 322.898438 L 39.191406 322.851562 L 38.980469 322.734375 L 38.878906 322.667969 L 38.78125 322.59375 L 38.59375 322.429688 L 38.503906 322.335938 L 38.417969 322.238281 L 38.332031 322.136719 L 38.253906 322.027344 L 38.175781 321.910156 L 38.105469 321.789062 L 38.035156 321.660156 L 37.96875 321.523438 L 37.90625 321.378906 L 37.847656 321.230469 L 37.792969 321.074219 L 37.738281 320.910156 L 37.691406 320.742188 L 37.644531 320.566406 L 37.605469 320.378906 L 37.570312 320.183594 L 37.542969 319.984375 L 37.515625 319.773438 L 37.496094 319.554688 L 37.480469 319.328125 L 37.46875 319.09375 L 37.460938 318.851562 L 37.457031 318.597656 L 37.460938 318.335938 L 37.46875 318.085938 L 37.480469 317.84375 L 37.496094 317.609375 L 37.515625 317.382812 L 37.542969 317.167969 L 37.570312 316.960938 L 37.605469 316.765625 L 37.644531 316.578125 L 37.691406 316.398438 L 37.738281 316.226562 L 37.792969 316.0625 L 37.847656 315.90625 L 37.90625 315.757812 L 37.972656 315.613281 L 38.039062 315.476562 L 38.109375 315.347656 L 38.179688 315.226562 L 38.257812 315.113281 L 38.339844 315.003906 L 38.421875 314.90625 L 38.511719 314.808594 L 38.601562 314.722656 L 38.695312 314.640625 L 38.789062 314.566406 L 38.886719 314.496094 L 38.992188 314.433594 L 39.09375 314.375 L 39.203125 314.324219 L 39.429688 314.238281 L 39.542969 314.203125 L 39.660156 314.171875 L 39.78125 314.144531 L 39.902344 314.121094 L 40.027344 314.101562 L 40.152344 314.085938 L 40.277344 314.078125 L 40.40625 314.070312 L 40.539062 314.066406 L 40.664062 314.070312 L 40.789062 314.078125 L 40.910156 314.085938 L 41.03125 314.101562 L 41.152344 314.121094 L 41.269531 314.144531 L 41.382812 314.171875 L 41.496094 314.203125 L 41.609375 314.238281 L 41.722656 314.28125 L 41.832031 314.324219 L 41.9375 314.375 L 42.042969 314.433594 L 42.144531 314.496094 L 42.242188 314.566406 L 42.335938 314.640625 L 42.429688 314.722656 L 42.519531 314.808594 L 42.691406 315.003906 L 42.769531 315.113281 L 42.847656 315.226562 L 42.921875 315.347656 L 42.992188 315.476562 L 43.058594 315.613281 L 43.121094 315.757812 L 43.179688 315.90625 L 43.238281 316.0625 L 43.289062 316.226562 L 43.339844 316.398438 L 43.382812 316.578125 L 43.425781 316.765625 L 43.460938 316.960938 L 43.492188 317.167969 L 43.519531 317.382812 L 43.539062 317.609375 L 43.554688 317.84375 L 43.566406 318.085938 L 43.574219 318.335938 Z M 42.433594 318.597656 L 42.433594 318.394531 L 42.429688 318.195312 L 42.421875 318 L 42.414062 317.816406 L 42.402344 317.636719 L 42.386719 317.46875 L 42.371094 317.304688 L 42.351562 317.148438 L 42.332031 316.996094 L 42.308594 316.855469 L 42.28125 316.71875 L 42.253906 316.585938 L 42.222656 316.460938 L 42.1875 316.339844 L 42.152344 316.226562 L 42.117188 316.117188 L 42.074219 316.015625 L 42.03125 315.917969 L 41.988281 315.828125 L 41.941406 315.742188 L 41.890625 315.660156 L 41.835938 315.585938 L 41.78125 315.515625 L 41.726562 315.449219 L 41.667969 315.386719 L 41.542969 315.277344 L 41.410156 315.191406 L 41.269531 315.121094 L 41.121094 315.066406 L 41.042969 315.042969 L 40.964844 315.023438 L 40.882812 315.007812 L 40.800781 314.996094 L 40.628906 314.980469 L 40.445312 314.980469 L 40.265625 314.996094 L 40.175781 315.007812 L 40.09375 315.023438 L 40.011719 315.042969 L 39.929688 315.066406 L 39.851562 315.09375 L 39.777344 315.121094 L 39.628906 315.191406 L 39.5625 315.234375 L 39.496094 315.28125 L 39.429688 315.335938 L 39.367188 315.390625 L 39.308594 315.453125 L 39.25 315.519531 L 39.195312 315.589844 L 39.140625 315.667969 L 39.089844 315.75 L 39.042969 315.835938 L 38.996094 315.925781 L 38.953125 316.023438 L 38.914062 316.125 L 38.875 316.234375 L 38.839844 316.347656 L 38.804688 316.46875 L 38.777344 316.59375 L 38.746094 316.722656 L 38.722656 316.863281 L 38.695312 317.003906 L 38.675781 317.152344 L 38.65625 317.308594 L 38.640625 317.472656 L 38.628906 317.644531 L 38.617188 317.820312 L 38.605469 318.003906 L 38.601562 318.195312 L 38.597656 318.394531 L 38.597656 318.796875 L 38.601562 318.992188 L 38.605469 319.179688 L 38.617188 319.359375 L 38.628906 319.53125 L 38.640625 319.699219 L 38.65625 319.859375 L 38.675781 320.015625 L 38.695312 320.164062 L 38.722656 320.304688 L 38.75 320.441406 L 38.777344 320.570312 L 38.808594 320.699219 L 38.878906 320.933594 L 38.917969 321.042969 L 38.960938 321.144531 L 39.003906 321.242188 L 39.046875 321.335938 L 39.097656 321.425781 L 39.199219 321.582031 L 39.253906 321.65625 L 39.3125 321.722656 L 39.371094 321.785156 L 39.433594 321.84375 L 39.496094 321.898438 L 39.5625 321.945312 L 39.632812 321.992188 L 39.703125 322.03125 L 39.773438 322.066406 L 39.847656 322.09375 L 39.925781 322.121094 L 40.082031 322.167969 L 40.164062 322.183594 L 40.25 322.195312 L 40.335938 322.203125 L 40.425781 322.210938 L 40.601562 322.210938 L 40.773438 322.195312 L 40.855469 322.183594 L 40.9375 322.167969 L 41.09375 322.121094 L 41.242188 322.066406 L 41.316406 322.03125 L 41.382812 321.992188 L 41.453125 321.945312 L 41.519531 321.898438 L 41.582031 321.84375 L 41.644531 321.785156 L 41.703125 321.722656 L 41.757812 321.65625 L 41.8125 321.582031 L 41.914062 321.425781 L 41.964844 321.335938 L 42.011719 321.242188 L 42.054688 321.144531 L 42.09375 321.042969 L 42.136719 320.933594 L 42.207031 320.699219 L 42.269531 320.441406 L 42.296875 320.304688 L 42.320312 320.164062 L 42.34375 320.015625 L 42.367188 319.859375 L 42.382812 319.699219 L 42.398438 319.53125 L 42.410156 319.359375 L 42.421875 319.179688 L 42.429688 318.992188 L 42.433594 318.796875 Z M 42.433594 318.597656 "/>
<path style=" stroke:none;fill-rule:evenodd;fill:rgb(30.196078%,30.196078%,30.196078%);fill-opacity:1;" d="M 27.257812 249.046875 L 27.257812 248.089844 L 29.503906 248.089844 L 29.503906 241.3125 L 27.515625 242.734375 L 27.515625 241.671875 L 29.597656 240.238281 L 30.632812 240.238281 L 30.632812 248.089844 L 32.777344 248.089844 L 32.777344 249.046875 Z M 27.257812 249.046875 "/>
<path style=" stroke:none;fill-rule:evenodd;fill:rgb(30.196078%,30.196078%,30.196078%);fill-opacity:1;" d="M 34.570312 249.046875 L 34.570312 247.675781 L 35.789062 247.675781 L 35.789062 249.046875 Z M 34.570312 249.046875 "/>
<path style=" stroke:none;fill-rule:evenodd;fill:rgb(30.196078%,30.196078%,30.196078%);fill-opacity:1;" d="M 43.539062 246.175781 L 43.539062 246.308594 L 43.53125 246.4375 L 43.523438 246.5625 L 43.507812 246.6875 L 43.488281 246.8125 L 43.46875 246.929688 L 43.441406 247.050781 L 43.378906 247.277344 L 43.339844 247.390625 L 43.296875 247.496094 L 43.203125 247.707031 L 43.148438 247.804688 L 43.089844 247.902344 L 43.03125 247.996094 L 42.964844 248.085938 L 42.824219 248.257812 L 42.746094 248.339844 L 42.664062 248.417969 L 42.582031 248.488281 L 42.492188 248.558594 L 42.398438 248.625 L 42.304688 248.6875 L 42.203125 248.75 L 42.097656 248.804688 L 41.992188 248.855469 L 41.878906 248.90625 L 41.765625 248.953125 L 41.523438 249.03125 L 41.398438 249.0625 L 41.269531 249.089844 L 41.136719 249.117188 L 41 249.136719 L 40.859375 249.152344 L 40.714844 249.160156 L 40.566406 249.167969 L 40.414062 249.171875 L 40.277344 249.167969 L 40.144531 249.164062 L 40.015625 249.15625 L 39.886719 249.144531 L 39.644531 249.113281 L 39.527344 249.089844 L 39.417969 249.066406 L 39.308594 249.039062 L 39.203125 249.007812 L 39.101562 248.972656 L 39.003906 248.9375 L 38.816406 248.859375 L 38.730469 248.816406 L 38.644531 248.769531 L 38.5625 248.722656 L 38.480469 248.671875 L 38.40625 248.621094 L 38.332031 248.5625 L 38.261719 248.503906 L 38.195312 248.445312 L 38.070312 248.320312 L 38.011719 248.253906 L 37.957031 248.183594 L 37.90625 248.117188 L 37.855469 248.042969 L 37.808594 247.96875 L 37.722656 247.820312 L 37.6875 247.742188 L 37.652344 247.660156 L 37.617188 247.582031 L 37.589844 247.5 L 37.558594 247.417969 L 37.535156 247.335938 L 37.488281 247.164062 L 37.472656 247.078125 L 38.609375 246.945312 L 38.621094 246.996094 L 38.636719 247.042969 L 38.65625 247.09375 L 38.671875 247.144531 L 38.691406 247.191406 L 38.710938 247.242188 L 38.730469 247.289062 L 38.753906 247.335938 L 38.777344 247.386719 L 38.800781 247.433594 L 38.828125 247.480469 L 38.855469 247.523438 L 38.949219 247.652344 L 38.984375 247.695312 L 39.019531 247.734375 L 39.097656 247.8125 L 39.140625 247.851562 L 39.183594 247.886719 L 39.230469 247.921875 L 39.277344 247.953125 L 39.328125 247.984375 L 39.382812 248.015625 L 39.492188 248.070312 L 39.550781 248.097656 L 39.609375 248.121094 L 39.671875 248.144531 L 39.734375 248.164062 L 39.804688 248.183594 L 39.945312 248.214844 L 40.023438 248.226562 L 40.179688 248.242188 L 40.351562 248.25 L 40.527344 248.25 L 40.609375 248.246094 L 40.695312 248.238281 L 40.777344 248.230469 L 40.855469 248.21875 L 41.011719 248.1875 L 41.085938 248.167969 L 41.234375 248.121094 L 41.304688 248.089844 L 41.4375 248.027344 L 41.5 247.992188 L 41.5625 247.953125 L 41.679688 247.867188 L 41.789062 247.773438 L 41.839844 247.71875 L 41.890625 247.667969 L 41.984375 247.550781 L 42.027344 247.492188 L 42.066406 247.429688 L 42.105469 247.363281 L 42.140625 247.292969 L 42.203125 247.152344 L 42.234375 247.078125 L 42.257812 247 L 42.304688 246.835938 L 42.320312 246.753906 L 42.335938 246.667969 L 42.359375 246.488281 L 42.367188 246.394531 L 42.371094 246.300781 L 42.371094 246.121094 L 42.367188 246.042969 L 42.351562 245.886719 L 42.339844 245.8125 L 42.324219 245.738281 L 42.304688 245.667969 L 42.285156 245.59375 L 42.265625 245.527344 L 42.238281 245.457031 L 42.183594 245.324219 L 42.152344 245.261719 L 42.117188 245.199219 L 42.082031 245.140625 L 42.042969 245.082031 L 41.957031 244.972656 L 41.914062 244.921875 L 41.863281 244.871094 L 41.816406 244.820312 L 41.761719 244.773438 L 41.652344 244.6875 L 41.59375 244.648438 L 41.53125 244.609375 L 41.46875 244.574219 L 41.335938 244.511719 L 41.195312 244.457031 L 41.121094 244.433594 L 41.046875 244.414062 L 40.96875 244.394531 L 40.890625 244.378906 L 40.808594 244.367188 L 40.726562 244.359375 L 40.640625 244.351562 L 40.554688 244.347656 L 40.464844 244.34375 L 40.410156 244.347656 L 40.355469 244.347656 L 40.300781 244.351562 L 40.246094 244.351562 L 40.195312 244.359375 L 40.144531 244.363281 L 39.992188 244.386719 L 39.945312 244.394531 L 39.804688 244.429688 L 39.761719 244.441406 L 39.714844 244.453125 L 39.542969 244.515625 L 39.503906 244.53125 L 39.460938 244.550781 L 39.421875 244.570312 L 39.386719 244.589844 L 39.308594 244.628906 L 39.273438 244.648438 L 39.238281 244.671875 L 39.203125 244.691406 L 39.132812 244.738281 L 38.914062 244.902344 L 38.886719 244.925781 L 38.855469 244.953125 L 38.828125 244.976562 L 37.726562 244.976562 L 38.019531 240.238281 L 43.027344 240.238281 L 43.027344 241.195312 L 39.046875 241.195312 L 38.878906 243.988281 L 38.9375 243.945312 L 39.003906 243.898438 L 39.070312 243.855469 L 39.140625 243.816406 L 39.214844 243.773438 L 39.292969 243.738281 L 39.371094 243.699219 L 39.453125 243.664062 L 39.539062 243.628906 L 39.628906 243.59375 L 39.71875 243.5625 L 39.8125 243.535156 L 39.914062 243.507812 L 40.015625 243.488281 L 40.121094 243.46875 L 40.226562 243.453125 L 40.339844 243.441406 L 40.453125 243.433594 L 40.695312 243.425781 L 40.953125 243.433594 L 41.078125 243.445312 L 41.199219 243.457031 L 41.320312 243.476562 L 41.4375 243.5 L 41.550781 243.523438 L 41.660156 243.554688 L 41.878906 243.625 L 41.980469 243.667969 L 42.082031 243.714844 L 42.179688 243.761719 L 42.273438 243.8125 L 42.363281 243.867188 L 42.449219 243.925781 L 42.535156 243.988281 L 42.617188 244.054688 L 42.695312 244.125 L 42.769531 244.195312 L 42.84375 244.269531 L 42.976562 244.425781 L 43.039062 244.507812 L 43.097656 244.59375 L 43.152344 244.683594 L 43.203125 244.773438 L 43.253906 244.867188 L 43.339844 245.0625 L 43.378906 245.167969 L 43.410156 245.269531 L 43.441406 245.375 L 43.46875 245.484375 L 43.488281 245.59375 L 43.507812 245.707031 L 43.523438 245.820312 L 43.539062 246.054688 Z M 43.539062 246.175781 "/>
<path style=" stroke:none;fill-rule:evenodd;fill:rgb(30.196078%,30.196078%,30.196078%);fill-opacity:1;" d="M 26.925781 175.085938 L 26.925781 174.292969 L 26.992188 174.148438 L 27.058594 174.007812 L 27.128906 173.867188 L 27.203125 173.734375 L 27.359375 173.476562 L 27.523438 173.234375 L 27.613281 173.117188 L 27.703125 173.003906 L 27.984375 172.675781 L 28.078125 172.570312 L 28.175781 172.46875 L 28.46875 172.175781 L 28.570312 172.082031 L 28.773438 171.902344 L 28.871094 171.8125 L 28.972656 171.722656 L 29.175781 171.550781 L 29.273438 171.46875 L 29.375 171.386719 L 29.472656 171.304688 L 29.570312 171.226562 L 29.671875 171.148438 L 29.867188 170.992188 L 30.054688 170.835938 L 30.144531 170.761719 L 30.234375 170.683594 L 30.40625 170.527344 L 30.570312 170.371094 L 30.648438 170.296875 L 30.722656 170.214844 L 30.796875 170.136719 L 30.867188 170.058594 L 30.933594 169.976562 L 30.996094 169.894531 L 31.054688 169.8125 L 31.109375 169.730469 L 31.164062 169.644531 L 31.214844 169.558594 L 31.261719 169.472656 L 31.304688 169.386719 L 31.34375 169.296875 L 31.375 169.203125 L 31.402344 169.105469 L 31.425781 169.011719 L 31.441406 168.910156 L 31.453125 168.808594 L 31.460938 168.703125 L 31.464844 168.597656 L 31.464844 168.523438 L 31.460938 168.453125 L 31.445312 168.3125 L 31.4375 168.246094 L 31.425781 168.179688 L 31.410156 168.117188 L 31.390625 168.058594 L 31.375 168 L 31.351562 167.941406 L 31.304688 167.832031 L 31.277344 167.777344 L 31.214844 167.675781 L 31.179688 167.628906 L 31.109375 167.542969 L 31.070312 167.5 L 30.984375 167.421875 L 30.890625 167.351562 L 30.84375 167.320312 L 30.742188 167.265625 L 30.6875 167.238281 L 30.632812 167.214844 L 30.574219 167.191406 L 30.457031 167.152344 L 30.332031 167.121094 L 30.269531 167.109375 L 30.203125 167.097656 L 30.070312 167.082031 L 29.929688 167.074219 L 29.792969 167.074219 L 29.59375 167.085938 L 29.53125 167.097656 L 29.464844 167.105469 L 29.402344 167.117188 L 29.34375 167.132812 L 29.28125 167.148438 L 29.105469 167.207031 L 29.050781 167.230469 L 28.941406 167.285156 L 28.890625 167.3125 L 28.789062 167.375 L 28.742188 167.410156 L 28.695312 167.449219 L 28.648438 167.484375 L 28.5625 167.570312 L 28.523438 167.613281 L 28.484375 167.660156 L 28.449219 167.707031 L 28.410156 167.757812 L 28.378906 167.808594 L 28.34375 167.859375 L 28.316406 167.917969 L 28.285156 167.972656 L 28.238281 168.089844 L 28.214844 168.152344 L 28.195312 168.214844 L 28.164062 168.347656 L 28.148438 168.417969 L 28.136719 168.488281 L 28.128906 168.558594 L 26.976562 168.453125 L 26.988281 168.359375 L 27.003906 168.265625 L 27.023438 168.175781 L 27.046875 168.082031 L 27.070312 167.992188 L 27.097656 167.90625 L 27.128906 167.816406 L 27.199219 167.644531 L 27.238281 167.558594 L 27.28125 167.476562 L 27.328125 167.398438 L 27.429688 167.242188 L 27.484375 167.167969 L 27.542969 167.097656 L 27.667969 166.957031 L 27.738281 166.894531 L 27.808594 166.828125 L 27.882812 166.765625 L 28.039062 166.648438 L 28.121094 166.597656 L 28.207031 166.542969 L 28.386719 166.449219 L 28.480469 166.40625 L 28.675781 166.328125 L 28.78125 166.292969 L 28.886719 166.265625 L 29 166.238281 L 29.113281 166.214844 L 29.230469 166.191406 L 29.347656 166.175781 L 29.472656 166.164062 L 29.597656 166.15625 L 29.726562 166.148438 L 29.988281 166.148438 L 30.113281 166.152344 L 30.238281 166.160156 L 30.359375 166.171875 L 30.480469 166.1875 L 30.59375 166.203125 L 30.707031 166.222656 L 30.816406 166.246094 L 30.921875 166.273438 L 31.027344 166.304688 L 31.128906 166.335938 L 31.226562 166.371094 L 31.320312 166.410156 L 31.5 166.496094 L 31.664062 166.597656 L 31.742188 166.648438 L 31.890625 166.765625 L 31.960938 166.828125 L 32.023438 166.894531 L 32.089844 166.964844 L 32.148438 167.035156 L 32.203125 167.109375 L 32.257812 167.1875 L 32.304688 167.265625 L 32.351562 167.347656 L 32.394531 167.433594 L 32.433594 167.523438 L 32.46875 167.613281 L 32.5 167.707031 L 32.527344 167.804688 L 32.554688 167.90625 L 32.574219 168.007812 L 32.605469 168.21875 L 32.613281 168.332031 L 32.621094 168.558594 L 32.621094 168.648438 L 32.613281 168.734375 L 32.605469 168.824219 L 32.59375 168.910156 L 32.582031 168.992188 L 32.5625 169.078125 L 32.542969 169.160156 L 32.488281 169.324219 L 32.457031 169.402344 L 32.425781 169.484375 L 32.355469 169.640625 L 32.316406 169.71875 L 32.273438 169.792969 L 32.230469 169.871094 L 32.136719 170.019531 L 32.035156 170.167969 L 31.980469 170.238281 L 31.925781 170.3125 L 31.75 170.523438 L 31.6875 170.59375 L 31.621094 170.660156 L 31.558594 170.730469 L 31.488281 170.796875 L 31.421875 170.867188 L 31.28125 171 L 31.207031 171.066406 L 31.136719 171.132812 L 30.765625 171.464844 L 30.691406 171.527344 L 30.613281 171.59375 L 30.535156 171.65625 L 30.460938 171.71875 L 30.382812 171.785156 L 30.308594 171.847656 L 30.230469 171.910156 L 30.152344 171.976562 L 30.074219 172.039062 L 30 172.101562 L 29.921875 172.167969 L 29.765625 172.292969 L 29.542969 172.480469 L 29.472656 172.542969 L 29.398438 172.605469 L 29.328125 172.671875 L 29.257812 172.734375 L 29.191406 172.796875 L 29.121094 172.863281 L 29.058594 172.925781 L 28.992188 172.988281 L 28.929688 173.054688 L 28.871094 173.121094 L 28.808594 173.183594 L 28.75 173.25 L 28.695312 173.316406 L 28.636719 173.382812 L 28.582031 173.449219 L 28.53125 173.511719 L 28.480469 173.578125 L 28.386719 173.710938 L 28.34375 173.78125 L 28.304688 173.847656 L 28.265625 173.917969 L 28.195312 174.058594 L 28.164062 174.128906 L 32.757812 174.128906 L 32.757812 175.085938 Z M 26.925781 175.085938 "/>
<path style=" stroke:none;fill-rule:evenodd;fill:rgb(30.196078%,30.196078%,30.196078%);fill-opacity:1;" d="M 34.570312 175.085938 L 34.570312 173.714844 L 35.789062 173.714844 L 35.789062 175.085938 Z M 34.570312 175.085938 "/>
<path style=" stroke:none;fill-rule:evenodd;fill:rgb(30.196078%,30.196078%,30.196078%);fill-opacity:1;" d="M 43.578125 170.679688 L 43.574219 170.929688 L 43.566406 171.171875 L 43.554688 171.40625 L 43.539062 171.628906 L 43.515625 171.847656 L 43.488281 172.058594 L 43.457031 172.257812 L 43.421875 172.453125 L 43.378906 172.640625 L 43.332031 172.816406 L 43.285156 172.984375 L 43.230469 173.148438 L 43.175781 173.304688 L 43.113281 173.453125 L 43.050781 173.597656 L 42.984375 173.734375 L 42.910156 173.863281 L 42.835938 173.988281 L 42.757812 174.105469 L 42.675781 174.214844 L 42.59375 174.320312 L 42.507812 174.417969 L 42.417969 174.507812 L 42.324219 174.59375 L 42.226562 174.671875 L 42.128906 174.746094 L 42.027344 174.8125 L 41.921875 174.875 L 41.8125 174.929688 L 41.703125 174.980469 L 41.589844 175.023438 L 41.472656 175.0625 L 41.359375 175.097656 L 41.238281 175.128906 L 41.121094 175.152344 L 40.878906 175.191406 L 40.628906 175.207031 L 40.503906 175.210938 L 40.375 175.207031 L 40.246094 175.199219 L 40.125 175.191406 L 40 175.171875 L 39.878906 175.152344 L 39.761719 175.128906 L 39.644531 175.097656 L 39.527344 175.0625 L 39.414062 175.023438 L 39.300781 174.980469 L 39.191406 174.929688 L 39.085938 174.875 L 38.980469 174.8125 L 38.878906 174.746094 L 38.78125 174.671875 L 38.6875 174.59375 L 38.59375 174.507812 L 38.503906 174.417969 L 38.417969 174.320312 L 38.332031 174.214844 L 38.253906 174.105469 L 38.175781 173.992188 L 38.105469 173.867188 L 38.035156 173.738281 L 37.96875 173.601562 L 37.90625 173.460938 L 37.847656 173.308594 L 37.792969 173.15625 L 37.738281 172.992188 L 37.691406 172.824219 L 37.644531 172.644531 L 37.605469 172.460938 L 37.570312 172.265625 L 37.542969 172.0625 L 37.515625 171.851562 L 37.496094 171.632812 L 37.480469 171.40625 L 37.46875 171.171875 L 37.460938 170.929688 L 37.457031 170.679688 L 37.460938 170.417969 L 37.46875 170.164062 L 37.480469 169.921875 L 37.496094 169.6875 L 37.515625 169.464844 L 37.542969 169.25 L 37.570312 169.042969 L 37.605469 168.84375 L 37.644531 168.65625 L 37.691406 168.480469 L 37.738281 168.308594 L 37.792969 168.144531 L 37.847656 167.984375 L 37.90625 167.835938 L 37.972656 167.691406 L 38.039062 167.558594 L 38.109375 167.429688 L 38.179688 167.308594 L 38.257812 167.191406 L 38.339844 167.085938 L 38.421875 166.984375 L 38.511719 166.890625 L 38.601562 166.800781 L 38.695312 166.71875 L 38.789062 166.644531 L 38.886719 166.574219 L 38.992188 166.511719 L 39.09375 166.457031 L 39.203125 166.40625 L 39.316406 166.359375 L 39.429688 166.320312 L 39.542969 166.285156 L 39.660156 166.25 L 39.78125 166.222656 L 39.902344 166.199219 L 40.152344 166.167969 L 40.277344 166.15625 L 40.40625 166.148438 L 40.664062 166.148438 L 40.789062 166.15625 L 40.910156 166.167969 L 41.152344 166.199219 L 41.269531 166.222656 L 41.382812 166.25 L 41.609375 166.320312 L 41.722656 166.359375 L 41.832031 166.40625 L 41.9375 166.457031 L 42.042969 166.511719 L 42.144531 166.574219 L 42.242188 166.644531 L 42.335938 166.71875 L 42.429688 166.800781 L 42.519531 166.890625 L 42.605469 166.984375 L 42.691406 167.085938 L 42.769531 167.191406 L 42.847656 167.308594 L 42.921875 167.429688 L 42.992188 167.558594 L 43.058594 167.691406 L 43.121094 167.835938 L 43.179688 167.984375 L 43.238281 168.144531 L 43.289062 168.308594 L 43.339844 168.480469 L 43.382812 168.65625 L 43.425781 168.84375 L 43.460938 169.042969 L 43.492188 169.25 L 43.519531 169.464844 L 43.539062 169.6875 L 43.554688 169.921875 L 43.566406 170.164062 L 43.574219 170.417969 Z M 42.433594 170.679688 L 42.433594 170.472656 L 42.429688 170.273438 L 42.421875 170.082031 L 42.414062 169.894531 L 42.402344 169.71875 L 42.386719 169.546875 L 42.371094 169.382812 L 42.351562 169.226562 L 42.332031 169.078125 L 42.308594 168.933594 L 42.28125 168.796875 L 42.253906 168.667969 L 42.222656 168.542969 L 42.1875 168.421875 L 42.152344 168.308594 L 42.117188 168.199219 L 42.074219 168.097656 L 42.03125 168 L 41.988281 167.90625 L 41.941406 167.824219 L 41.890625 167.742188 L 41.835938 167.664062 L 41.78125 167.59375 L 41.726562 167.527344 L 41.667969 167.464844 L 41.605469 167.410156 L 41.542969 167.359375 L 41.476562 167.3125 L 41.410156 167.273438 L 41.339844 167.234375 L 41.269531 167.203125 L 41.195312 167.171875 L 41.121094 167.144531 L 40.964844 167.105469 L 40.800781 167.074219 L 40.714844 167.066406 L 40.628906 167.0625 L 40.539062 167.058594 L 40.445312 167.0625 L 40.355469 167.066406 L 40.265625 167.074219 L 40.175781 167.089844 L 40.09375 167.105469 L 39.929688 167.144531 L 39.851562 167.171875 L 39.703125 167.234375 L 39.628906 167.273438 L 39.5625 167.316406 L 39.496094 167.363281 L 39.429688 167.414062 L 39.367188 167.472656 L 39.308594 167.53125 L 39.25 167.601562 L 39.195312 167.671875 L 39.140625 167.746094 L 39.089844 167.828125 L 39.042969 167.914062 L 38.996094 168.003906 L 38.953125 168.101562 L 38.914062 168.203125 L 38.875 168.3125 L 38.839844 168.425781 L 38.804688 168.546875 L 38.777344 168.671875 L 38.746094 168.804688 L 38.722656 168.941406 L 38.695312 169.082031 L 38.675781 169.234375 L 38.65625 169.390625 L 38.640625 169.550781 L 38.628906 169.722656 L 38.617188 169.898438 L 38.605469 170.085938 L 38.601562 170.277344 L 38.597656 170.472656 L 38.597656 170.878906 L 38.601562 171.070312 L 38.605469 171.257812 L 38.617188 171.4375 L 38.628906 171.613281 L 38.640625 171.78125 L 38.65625 171.941406 L 38.675781 172.09375 L 38.695312 172.242188 L 38.722656 172.386719 L 38.777344 172.652344 L 38.808594 172.777344 L 38.84375 172.898438 L 38.878906 173.011719 L 38.917969 173.121094 L 38.960938 173.226562 L 39.003906 173.324219 L 39.046875 173.417969 L 39.097656 173.503906 L 39.148438 173.585938 L 39.199219 173.664062 L 39.253906 173.734375 L 39.3125 173.800781 L 39.371094 173.863281 L 39.433594 173.921875 L 39.496094 173.976562 L 39.5625 174.027344 L 39.632812 174.070312 L 39.703125 174.109375 L 39.773438 174.144531 L 39.847656 174.175781 L 39.925781 174.203125 L 40.003906 174.226562 L 40.082031 174.246094 L 40.164062 174.261719 L 40.335938 174.285156 L 40.515625 174.292969 L 40.6875 174.285156 L 40.773438 174.273438 L 40.855469 174.261719 L 40.9375 174.246094 L 41.015625 174.226562 L 41.09375 174.203125 L 41.167969 174.175781 L 41.242188 174.144531 L 41.316406 174.109375 L 41.382812 174.070312 L 41.453125 174.027344 L 41.519531 173.976562 L 41.582031 173.921875 L 41.644531 173.863281 L 41.703125 173.800781 L 41.757812 173.734375 L 41.8125 173.664062 L 41.863281 173.585938 L 41.914062 173.503906 L 41.964844 173.417969 L 42.011719 173.324219 L 42.054688 173.226562 L 42.09375 173.121094 L 42.136719 173.011719 L 42.171875 172.898438 L 42.207031 172.777344 L 42.238281 172.652344 L 42.269531 172.519531 L 42.296875 172.386719 L 42.320312 172.242188 L 42.34375 172.09375 L 42.367188 171.941406 L 42.382812 171.78125 L 42.398438 171.613281 L 42.410156 171.4375 L 42.421875 171.257812 L 42.429688 171.070312 L 42.433594 170.878906 Z M 42.433594 170.679688 "/>
<path style=" stroke:none;fill-rule:evenodd;fill:rgb(30.196078%,30.196078%,30.196078%);fill-opacity:1;" d="M 26.925781 101.125 L 26.925781 100.332031 L 26.992188 100.1875 L 27.058594 100.046875 L 27.128906 99.910156 L 27.203125 99.773438 L 27.359375 99.515625 L 27.523438 99.273438 L 27.613281 99.15625 L 27.703125 99.042969 L 27.984375 98.714844 L 28.078125 98.613281 L 28.175781 98.507812 L 28.46875 98.214844 L 28.570312 98.121094 L 28.773438 97.941406 L 28.871094 97.851562 L 28.972656 97.765625 L 29.074219 97.675781 L 29.175781 97.59375 L 29.273438 97.507812 L 29.375 97.425781 L 29.472656 97.34375 L 29.570312 97.265625 L 29.671875 97.1875 L 29.867188 97.03125 L 29.960938 96.957031 L 30.054688 96.878906 L 30.234375 96.722656 L 30.40625 96.566406 L 30.488281 96.492188 L 30.570312 96.414062 L 30.648438 96.335938 L 30.722656 96.257812 L 30.796875 96.175781 L 30.867188 96.097656 L 30.933594 96.015625 L 30.996094 95.933594 L 31.054688 95.851562 L 31.109375 95.769531 L 31.164062 95.683594 L 31.214844 95.601562 L 31.261719 95.515625 L 31.304688 95.425781 L 31.34375 95.335938 L 31.375 95.242188 L 31.402344 95.148438 L 31.425781 95.050781 L 31.441406 94.949219 L 31.453125 94.847656 L 31.460938 94.746094 L 31.464844 94.636719 L 31.464844 94.5625 L 31.460938 94.492188 L 31.445312 94.351562 L 31.4375 94.285156 L 31.425781 94.222656 L 31.410156 94.160156 L 31.390625 94.097656 L 31.375 94.039062 L 31.351562 93.980469 L 31.304688 93.871094 L 31.277344 93.816406 L 31.246094 93.765625 L 31.214844 93.71875 L 31.144531 93.625 L 31.109375 93.582031 L 31.070312 93.539062 L 30.984375 93.460938 L 30.9375 93.425781 L 30.890625 93.394531 L 30.84375 93.359375 L 30.742188 93.304688 L 30.6875 93.277344 L 30.632812 93.253906 L 30.574219 93.234375 L 30.515625 93.210938 L 30.457031 93.195312 L 30.394531 93.175781 L 30.332031 93.160156 L 30.269531 93.148438 L 30.203125 93.136719 L 30.070312 93.121094 L 29.929688 93.113281 L 29.792969 93.113281 L 29.660156 93.121094 L 29.59375 93.128906 L 29.53125 93.136719 L 29.464844 93.148438 L 29.402344 93.160156 L 29.34375 93.171875 L 29.28125 93.1875 L 29.105469 93.246094 L 29.050781 93.269531 L 28.941406 93.324219 L 28.890625 93.351562 L 28.839844 93.382812 L 28.789062 93.417969 L 28.695312 93.488281 L 28.648438 93.527344 L 28.605469 93.566406 L 28.5625 93.609375 L 28.523438 93.652344 L 28.484375 93.699219 L 28.449219 93.746094 L 28.410156 93.796875 L 28.378906 93.847656 L 28.34375 93.902344 L 28.316406 93.957031 L 28.285156 94.011719 L 28.238281 94.128906 L 28.214844 94.191406 L 28.195312 94.253906 L 28.164062 94.386719 L 28.148438 94.457031 L 28.136719 94.527344 L 28.128906 94.601562 L 26.976562 94.492188 L 26.988281 94.398438 L 27.003906 94.304688 L 27.023438 94.214844 L 27.046875 94.121094 L 27.070312 94.03125 L 27.097656 93.945312 L 27.128906 93.855469 L 27.199219 93.683594 L 27.238281 93.601562 L 27.28125 93.519531 L 27.328125 93.4375 L 27.429688 93.28125 L 27.484375 93.207031 L 27.542969 93.136719 L 27.605469 93.066406 L 27.667969 93 L 27.808594 92.867188 L 27.882812 92.808594 L 27.960938 92.746094 L 28.039062 92.691406 L 28.121094 92.636719 L 28.207031 92.585938 L 28.296875 92.535156 L 28.386719 92.488281 L 28.480469 92.445312 L 28.675781 92.367188 L 28.886719 92.304688 L 29 92.277344 L 29.113281 92.253906 L 29.347656 92.214844 L 29.472656 92.203125 L 29.597656 92.195312 L 29.726562 92.191406 L 29.859375 92.1875 L 29.988281 92.1875 L 30.238281 92.203125 L 30.359375 92.210938 L 30.480469 92.226562 L 30.59375 92.242188 L 30.707031 92.265625 L 30.816406 92.289062 L 30.921875 92.3125 L 31.027344 92.34375 L 31.128906 92.375 L 31.226562 92.414062 L 31.320312 92.453125 L 31.410156 92.492188 L 31.5 92.539062 L 31.582031 92.585938 L 31.664062 92.636719 L 31.742188 92.691406 L 31.816406 92.746094 L 31.890625 92.804688 L 31.960938 92.871094 L 32.023438 92.933594 L 32.089844 93.003906 L 32.148438 93.074219 L 32.203125 93.148438 L 32.257812 93.226562 L 32.304688 93.304688 L 32.351562 93.386719 L 32.394531 93.472656 L 32.433594 93.5625 L 32.46875 93.652344 L 32.5 93.75 L 32.527344 93.84375 L 32.554688 93.945312 L 32.574219 94.046875 L 32.589844 94.152344 L 32.605469 94.261719 L 32.613281 94.371094 L 32.617188 94.484375 L 32.621094 94.601562 L 32.621094 94.6875 L 32.613281 94.777344 L 32.605469 94.863281 L 32.59375 94.949219 L 32.582031 95.03125 L 32.5625 95.117188 L 32.542969 95.199219 L 32.488281 95.363281 L 32.457031 95.445312 L 32.425781 95.523438 L 32.355469 95.679688 L 32.316406 95.757812 L 32.273438 95.835938 L 32.230469 95.910156 L 32.136719 96.058594 L 32.035156 96.207031 L 31.980469 96.277344 L 31.925781 96.351562 L 31.75 96.5625 L 31.6875 96.632812 L 31.621094 96.703125 L 31.558594 96.769531 L 31.421875 96.90625 L 31.351562 96.972656 L 31.28125 97.042969 L 31.207031 97.109375 L 31.136719 97.175781 L 30.988281 97.308594 L 30.914062 97.371094 L 30.691406 97.570312 L 30.535156 97.695312 L 30.460938 97.761719 L 30.382812 97.824219 L 30.308594 97.886719 L 30.230469 97.953125 L 30.074219 98.078125 L 30 98.144531 L 29.765625 98.332031 L 29.542969 98.519531 L 29.472656 98.582031 L 29.398438 98.648438 L 29.257812 98.773438 L 29.191406 98.835938 L 29.121094 98.902344 L 28.929688 99.09375 L 28.871094 99.160156 L 28.808594 99.226562 L 28.75 99.289062 L 28.695312 99.355469 L 28.636719 99.421875 L 28.582031 99.488281 L 28.53125 99.554688 L 28.480469 99.617188 L 28.433594 99.6875 L 28.386719 99.753906 L 28.34375 99.820312 L 28.304688 99.890625 L 28.265625 99.957031 L 28.195312 100.097656 L 28.164062 100.167969 L 32.757812 100.167969 L 32.757812 101.125 Z M 26.925781 101.125 "/>
<path style=" stroke:none;fill-rule:evenodd;fill:rgb(30.196078%,30.196078%,30.196078%);fill-opacity:1;" d="M 34.570312 101.125 L 34.570312 99.757812 L 35.789062 99.757812 L 35.789062 101.125 Z M 34.570312 101.125 "/>
<path style=" stroke:none;fill-rule:evenodd;fill:rgb(30.196078%,30.196078%,30.196078%);fill-opacity:1;" d="M 43.539062 98.257812 L 43.539062 98.386719 L 43.523438 98.644531 L 43.507812 98.769531 L 43.46875 99.011719 L 43.441406 99.128906 L 43.410156 99.246094 L 43.378906 99.359375 L 43.339844 99.46875 L 43.296875 99.578125 L 43.25 99.683594 L 43.203125 99.785156 L 43.148438 99.886719 L 43.03125 100.074219 L 42.964844 100.164062 L 42.894531 100.253906 L 42.824219 100.335938 L 42.746094 100.417969 L 42.664062 100.496094 L 42.582031 100.570312 L 42.492188 100.640625 L 42.398438 100.707031 L 42.304688 100.769531 L 42.203125 100.828125 L 41.992188 100.9375 L 41.765625 101.03125 L 41.644531 101.074219 L 41.523438 101.109375 L 41.398438 101.144531 L 41.269531 101.171875 L 41.136719 101.195312 L 41 101.214844 L 40.859375 101.230469 L 40.714844 101.242188 L 40.566406 101.25 L 40.277344 101.25 L 40.144531 101.242188 L 40.015625 101.234375 L 39.886719 101.222656 L 39.765625 101.210938 L 39.644531 101.191406 L 39.527344 101.171875 L 39.308594 101.117188 L 39.203125 101.085938 L 39.101562 101.054688 L 39.003906 101.019531 L 38.910156 100.980469 L 38.816406 100.9375 L 38.644531 100.851562 L 38.480469 100.75 L 38.40625 100.699219 L 38.332031 100.644531 L 38.261719 100.585938 L 38.195312 100.523438 L 38.132812 100.464844 L 38.070312 100.398438 L 38.011719 100.332031 L 37.957031 100.265625 L 37.855469 100.125 L 37.808594 100.050781 L 37.765625 99.976562 L 37.722656 99.898438 L 37.652344 99.742188 L 37.617188 99.660156 L 37.589844 99.578125 L 37.558594 99.496094 L 37.535156 99.414062 L 37.488281 99.242188 L 37.472656 99.15625 L 38.609375 99.023438 L 38.621094 99.074219 L 38.636719 99.125 L 38.65625 99.175781 L 38.671875 99.222656 L 38.691406 99.273438 L 38.710938 99.320312 L 38.730469 99.371094 L 38.800781 99.511719 L 38.855469 99.605469 L 38.949219 99.734375 L 38.984375 99.773438 L 39.019531 99.816406 L 39.097656 99.894531 L 39.140625 99.929688 L 39.183594 99.96875 L 39.230469 100 L 39.277344 100.035156 L 39.328125 100.066406 L 39.382812 100.09375 L 39.4375 100.125 L 39.492188 100.152344 L 39.550781 100.175781 L 39.609375 100.203125 L 39.671875 100.226562 L 39.734375 100.246094 L 39.804688 100.261719 L 39.875 100.28125 L 39.945312 100.292969 L 40.101562 100.316406 L 40.179688 100.320312 L 40.265625 100.328125 L 40.351562 100.332031 L 40.527344 100.332031 L 40.609375 100.328125 L 40.695312 100.320312 L 40.777344 100.308594 L 40.933594 100.285156 L 41.011719 100.265625 L 41.160156 100.226562 L 41.234375 100.199219 L 41.304688 100.171875 L 41.371094 100.140625 L 41.4375 100.105469 L 41.5 100.070312 L 41.5625 100.03125 L 41.621094 99.992188 L 41.679688 99.945312 L 41.789062 99.851562 L 41.839844 99.800781 L 41.890625 99.746094 L 41.9375 99.691406 L 41.984375 99.632812 L 42.027344 99.570312 L 42.066406 99.507812 L 42.105469 99.441406 L 42.140625 99.375 L 42.171875 99.304688 L 42.234375 99.15625 L 42.28125 99 L 42.304688 98.917969 L 42.335938 98.746094 L 42.347656 98.660156 L 42.359375 98.566406 L 42.367188 98.472656 L 42.371094 98.378906 L 42.371094 98.199219 L 42.367188 98.121094 L 42.359375 98.042969 L 42.351562 97.96875 L 42.339844 97.890625 L 42.324219 97.820312 L 42.304688 97.746094 L 42.265625 97.605469 L 42.238281 97.539062 L 42.210938 97.46875 L 42.183594 97.402344 L 42.152344 97.339844 L 42.117188 97.277344 L 42.082031 97.21875 L 42.042969 97.160156 L 41.957031 97.050781 L 41.914062 97 L 41.816406 96.902344 L 41.707031 96.808594 L 41.652344 96.769531 L 41.59375 96.726562 L 41.46875 96.65625 L 41.402344 96.621094 L 41.335938 96.589844 L 41.195312 96.535156 L 41.121094 96.511719 L 41.046875 96.492188 L 40.890625 96.460938 L 40.726562 96.4375 L 40.640625 96.429688 L 40.554688 96.425781 L 40.355469 96.425781 L 40.246094 96.433594 L 40.144531 96.441406 L 39.992188 96.464844 L 39.945312 96.476562 L 39.898438 96.484375 L 39.804688 96.507812 L 39.761719 96.519531 L 39.714844 96.535156 L 39.671875 96.546875 L 39.542969 96.59375 L 39.503906 96.613281 L 39.460938 96.628906 L 39.421875 96.648438 L 39.386719 96.667969 L 39.308594 96.707031 L 39.273438 96.730469 L 39.238281 96.75 L 39.132812 96.820312 L 39.101562 96.839844 L 38.945312 96.957031 L 38.914062 96.984375 L 38.886719 97.007812 L 38.855469 97.03125 L 38.828125 97.054688 L 37.726562 97.054688 L 38.019531 92.320312 L 43.027344 92.320312 L 43.027344 93.273438 L 39.046875 93.273438 L 38.878906 96.070312 L 38.9375 96.023438 L 39.070312 95.9375 L 39.140625 95.894531 L 39.214844 95.855469 L 39.371094 95.777344 L 39.453125 95.742188 L 39.539062 95.707031 L 39.71875 95.644531 L 39.8125 95.613281 L 40.015625 95.566406 L 40.121094 95.546875 L 40.226562 95.535156 L 40.453125 95.511719 L 40.574219 95.507812 L 40.824219 95.507812 L 40.953125 95.515625 L 41.078125 95.523438 L 41.320312 95.554688 L 41.4375 95.578125 L 41.550781 95.605469 L 41.660156 95.632812 L 41.769531 95.667969 L 41.878906 95.707031 L 42.082031 95.792969 L 42.179688 95.839844 L 42.273438 95.894531 L 42.363281 95.949219 L 42.449219 96.007812 L 42.535156 96.070312 L 42.617188 96.132812 L 42.695312 96.203125 L 42.769531 96.273438 L 42.84375 96.347656 L 42.976562 96.503906 L 43.039062 96.589844 L 43.097656 96.671875 L 43.152344 96.761719 L 43.203125 96.851562 L 43.253906 96.949219 L 43.296875 97.042969 L 43.339844 97.144531 L 43.378906 97.246094 L 43.441406 97.457031 L 43.46875 97.566406 L 43.488281 97.675781 L 43.507812 97.789062 L 43.523438 97.902344 L 43.539062 98.136719 Z M 43.539062 98.257812 "/>
<path style=" stroke:none;fill-rule:evenodd;fill:rgb(30.196078%,30.196078%,30.196078%);fill-opacity:1;" d="M 32.839844 24.734375 L 32.835938 24.855469 L 32.832031 24.972656 L 32.808594 25.199219 L 32.789062 25.308594 L 32.742188 25.519531 L 32.710938 25.621094 L 32.640625 25.816406 L 32.597656 25.910156 L 32.554688 26 L 32.507812 26.085938 L 32.453125 26.171875 L 32.398438 26.253906 L 32.339844 26.332031 L 32.277344 26.410156 L 32.210938 26.484375 L 32.140625 26.554688 L 32.066406 26.621094 L 31.988281 26.683594 L 31.90625 26.746094 L 31.824219 26.804688 L 31.734375 26.859375 L 31.644531 26.910156 L 31.449219 27.003906 L 31.34375 27.046875 L 31.238281 27.085938 L 31.128906 27.121094 L 31.015625 27.152344 L 30.898438 27.183594 L 30.65625 27.230469 L 30.53125 27.25 L 30.402344 27.261719 L 30.269531 27.273438 L 30.132812 27.285156 L 29.996094 27.289062 L 29.691406 27.289062 L 29.535156 27.28125 L 29.382812 27.273438 L 29.238281 27.257812 L 29.097656 27.242188 L 28.960938 27.21875 L 28.832031 27.191406 L 28.707031 27.164062 L 28.585938 27.128906 L 28.472656 27.089844 L 28.363281 27.046875 L 28.257812 27.003906 L 28.15625 26.957031 L 28.058594 26.90625 L 27.871094 26.796875 L 27.785156 26.742188 L 27.703125 26.679688 L 27.625 26.617188 L 27.550781 26.554688 L 27.480469 26.484375 L 27.414062 26.414062 L 27.351562 26.34375 L 27.234375 26.195312 L 27.132812 26.039062 L 27.046875 25.875 L 27.007812 25.789062 L 26.972656 25.703125 L 26.941406 25.617188 L 26.910156 25.527344 L 26.882812 25.441406 L 26.859375 25.351562 L 26.835938 25.265625 L 26.796875 25.085938 L 26.785156 24.992188 L 26.769531 24.902344 L 27.933594 24.796875 L 27.945312 24.867188 L 27.96875 25 L 27.984375 25.066406 L 28.003906 25.132812 L 28.042969 25.257812 L 28.113281 25.433594 L 28.144531 25.492188 L 28.171875 25.546875 L 28.207031 25.597656 L 28.238281 25.652344 L 28.277344 25.703125 L 28.3125 25.75 L 28.351562 25.796875 L 28.394531 25.84375 L 28.4375 25.886719 L 28.484375 25.929688 L 28.578125 26.007812 L 28.632812 26.042969 L 28.683594 26.078125 L 28.859375 26.171875 L 28.921875 26.199219 L 28.984375 26.222656 L 29.050781 26.246094 L 29.121094 26.269531 L 29.191406 26.285156 L 29.265625 26.304688 L 29.34375 26.320312 L 29.421875 26.332031 L 29.585938 26.347656 L 29.671875 26.355469 L 29.761719 26.359375 L 29.851562 26.359375 L 30.019531 26.355469 L 30.175781 26.34375 L 30.328125 26.320312 L 30.472656 26.292969 L 30.609375 26.253906 L 30.738281 26.207031 L 30.863281 26.152344 L 30.976562 26.089844 L 31.082031 26.019531 L 31.183594 25.941406 L 31.277344 25.851562 L 31.359375 25.757812 L 31.433594 25.652344 L 31.496094 25.539062 L 31.550781 25.421875 L 31.59375 25.292969 L 31.625 25.15625 L 31.652344 25.011719 L 31.664062 24.859375 L 31.671875 24.695312 L 31.667969 24.601562 L 31.660156 24.507812 L 31.652344 24.421875 L 31.636719 24.335938 L 31.617188 24.257812 L 31.59375 24.179688 L 31.53125 24.039062 L 31.453125 23.914062 L 31.410156 23.855469 L 31.363281 23.800781 L 31.3125 23.746094 L 31.265625 23.695312 L 31.210938 23.648438 L 31.15625 23.605469 L 31.097656 23.5625 L 31.039062 23.523438 L 30.914062 23.453125 L 30.851562 23.421875 L 30.785156 23.390625 L 30.71875 23.363281 L 30.648438 23.335938 L 30.582031 23.3125 L 30.507812 23.289062 L 30.4375 23.273438 L 30.363281 23.253906 L 30.289062 23.238281 L 30.214844 23.226562 L 30.140625 23.21875 L 30.066406 23.207031 L 29.996094 23.199219 L 29.921875 23.191406 L 29.855469 23.1875 L 29.785156 23.179688 L 29.652344 23.171875 L 28.882812 23.171875 L 28.882812 22.195312 L 29.625 22.195312 L 29.6875 22.191406 L 29.753906 22.1875 L 29.820312 22.179688 L 29.886719 22.175781 L 29.953125 22.164062 L 30.023438 22.15625 L 30.089844 22.144531 L 30.160156 22.132812 L 30.226562 22.121094 L 30.359375 22.082031 L 30.421875 22.0625 L 30.488281 22.039062 L 30.546875 22.015625 L 30.609375 21.988281 L 30.667969 21.960938 L 30.785156 21.898438 L 30.894531 21.820312 L 30.945312 21.78125 L 30.996094 21.738281 L 31.089844 21.644531 L 31.132812 21.59375 L 31.175781 21.539062 L 31.253906 21.429688 L 31.289062 21.367188 L 31.320312 21.304688 L 31.347656 21.238281 L 31.371094 21.167969 L 31.394531 21.09375 L 31.410156 21.015625 L 31.421875 20.9375 L 31.433594 20.855469 L 31.4375 20.765625 L 31.441406 20.679688 L 31.433594 20.539062 L 31.421875 20.40625 L 31.402344 20.28125 L 31.371094 20.160156 L 31.335938 20.046875 L 31.289062 19.9375 L 31.234375 19.835938 L 31.171875 19.738281 L 31.101562 19.648438 L 31.019531 19.566406 L 30.933594 19.488281 L 30.839844 19.417969 L 30.738281 19.355469 L 30.625 19.300781 L 30.507812 19.257812 L 30.378906 19.21875 L 30.246094 19.191406 L 30.101562 19.167969 L 29.949219 19.15625 L 29.789062 19.152344 L 29.644531 19.15625 L 29.503906 19.167969 L 29.367188 19.1875 L 29.238281 19.214844 L 29.117188 19.25 L 29 19.289062 L 28.886719 19.339844 L 28.78125 19.398438 L 28.679688 19.460938 L 28.582031 19.535156 L 28.496094 19.613281 L 28.417969 19.699219 L 28.34375 19.789062 L 28.277344 19.890625 L 28.222656 19.992188 L 28.171875 20.105469 L 28.132812 20.222656 L 28.097656 20.34375 L 28.070312 20.472656 L 28.050781 20.609375 L 26.921875 20.523438 L 26.9375 20.40625 L 26.976562 20.1875 L 27.003906 20.082031 L 27.035156 19.976562 L 27.105469 19.78125 L 27.148438 19.6875 L 27.191406 19.597656 L 27.238281 19.507812 L 27.289062 19.425781 L 27.34375 19.34375 L 27.460938 19.1875 L 27.585938 19.046875 L 27.652344 18.980469 L 27.722656 18.914062 L 27.871094 18.796875 L 27.949219 18.742188 L 28.03125 18.6875 L 28.113281 18.636719 L 28.199219 18.589844 L 28.285156 18.546875 L 28.375 18.503906 L 28.464844 18.46875 L 28.558594 18.433594 L 28.753906 18.371094 L 28.851562 18.34375 L 29.054688 18.296875 L 29.15625 18.28125 L 29.367188 18.25 L 29.472656 18.242188 L 29.582031 18.234375 L 29.800781 18.226562 L 29.949219 18.230469 L 30.089844 18.234375 L 30.226562 18.246094 L 30.359375 18.257812 L 30.488281 18.273438 L 30.613281 18.296875 L 30.734375 18.320312 L 30.851562 18.347656 L 30.960938 18.378906 L 31.070312 18.414062 L 31.175781 18.453125 L 31.277344 18.492188 L 31.371094 18.535156 L 31.464844 18.582031 L 31.554688 18.632812 L 31.636719 18.683594 L 31.71875 18.738281 L 31.796875 18.792969 L 31.871094 18.851562 L 31.941406 18.914062 L 32.003906 18.980469 L 32.066406 19.042969 L 32.125 19.113281 L 32.179688 19.183594 L 32.230469 19.257812 L 32.324219 19.40625 L 32.363281 19.488281 L 32.433594 19.652344 L 32.464844 19.738281 L 32.492188 19.824219 L 32.515625 19.914062 L 32.539062 20 L 32.554688 20.09375 L 32.570312 20.183594 L 32.582031 20.273438 L 32.589844 20.367188 L 32.59375 20.464844 L 32.597656 20.558594 L 32.59375 20.636719 L 32.585938 20.785156 L 32.570312 20.933594 L 32.558594 21.007812 L 32.527344 21.148438 L 32.507812 21.214844 L 32.488281 21.285156 L 32.46875 21.351562 L 32.441406 21.417969 L 32.386719 21.542969 L 32.355469 21.605469 L 32.320312 21.664062 L 32.242188 21.78125 L 32.203125 21.835938 L 32.160156 21.890625 L 32.113281 21.941406 L 32.0625 21.996094 L 32.011719 22.042969 L 31.957031 22.09375 L 31.902344 22.140625 L 31.84375 22.1875 L 31.71875 22.273438 L 31.652344 22.3125 L 31.511719 22.390625 L 31.441406 22.425781 L 31.363281 22.460938 L 31.285156 22.492188 L 31.203125 22.523438 L 31.03125 22.578125 L 30.941406 22.601562 L 30.753906 22.648438 L 30.753906 22.671875 L 30.855469 22.683594 L 30.960938 22.699219 L 31.15625 22.738281 L 31.25 22.761719 L 31.339844 22.785156 L 31.429688 22.816406 L 31.515625 22.84375 L 31.597656 22.878906 L 31.675781 22.914062 L 31.753906 22.953125 L 31.902344 23.03125 L 31.96875 23.074219 L 32.101562 23.167969 L 32.160156 23.214844 L 32.21875 23.265625 L 32.273438 23.316406 L 32.328125 23.371094 L 32.378906 23.425781 L 32.425781 23.484375 L 32.511719 23.601562 L 32.550781 23.664062 L 32.585938 23.726562 L 32.621094 23.792969 L 32.683594 23.925781 L 32.707031 23.996094 L 32.734375 24.066406 L 32.753906 24.136719 L 32.773438 24.210938 L 32.792969 24.28125 L 32.808594 24.355469 L 32.820312 24.429688 L 32.828125 24.503906 L 32.835938 24.582031 L 32.839844 24.65625 Z M 32.839844 24.734375 "/>
<path style=" stroke:none;fill-rule:evenodd;fill:rgb(30.196078%,30.196078%,30.196078%);fill-opacity:1;" d="M 34.570312 27.164062 L 34.570312 25.796875 L 35.789062 25.796875 L 35.789062 27.164062 Z M 34.570312 27.164062 "/>
<path style=" stroke:none;fill-rule:evenodd;fill:rgb(30.196078%,30.196078%,30.196078%);fill-opacity:1;" d="M 43.578125 22.757812 L 43.574219 23.007812 L 43.566406 23.25 L 43.554688 23.484375 L 43.539062 23.710938 L 43.515625 23.929688 L 43.488281 24.136719 L 43.457031 24.339844 L 43.421875 24.53125 L 43.378906 24.71875 L 43.332031 24.898438 L 43.285156 25.066406 L 43.230469 25.226562 L 43.175781 25.382812 L 43.113281 25.535156 L 43.050781 25.679688 L 42.984375 25.816406 L 42.910156 25.945312 L 42.835938 26.070312 L 42.757812 26.1875 L 42.675781 26.296875 L 42.59375 26.398438 L 42.507812 26.496094 L 42.417969 26.589844 L 42.324219 26.671875 L 42.226562 26.753906 L 42.128906 26.824219 L 42.027344 26.894531 L 41.921875 26.953125 L 41.8125 27.007812 L 41.703125 27.058594 L 41.589844 27.101562 L 41.472656 27.140625 L 41.359375 27.175781 L 41.238281 27.207031 L 41.121094 27.234375 L 41 27.253906 L 40.878906 27.269531 L 40.753906 27.28125 L 40.628906 27.289062 L 40.375 27.289062 L 40.246094 27.28125 L 40.125 27.269531 L 40 27.253906 L 39.878906 27.234375 L 39.761719 27.207031 L 39.644531 27.175781 L 39.527344 27.140625 L 39.414062 27.101562 L 39.300781 27.058594 L 39.191406 27.007812 L 39.085938 26.953125 L 38.980469 26.894531 L 38.878906 26.824219 L 38.78125 26.753906 L 38.59375 26.589844 L 38.503906 26.496094 L 38.417969 26.398438 L 38.332031 26.296875 L 38.253906 26.1875 L 38.175781 26.070312 L 38.105469 25.949219 L 38.035156 25.820312 L 37.96875 25.683594 L 37.90625 25.539062 L 37.847656 25.390625 L 37.792969 25.234375 L 37.738281 25.070312 L 37.691406 24.902344 L 37.644531 24.726562 L 37.605469 24.539062 L 37.570312 24.34375 L 37.542969 24.144531 L 37.515625 23.933594 L 37.496094 23.714844 L 37.480469 23.488281 L 37.46875 23.253906 L 37.460938 23.011719 L 37.457031 22.757812 L 37.460938 22.496094 L 37.46875 22.246094 L 37.480469 22 L 37.496094 21.769531 L 37.515625 21.542969 L 37.542969 21.328125 L 37.570312 21.121094 L 37.605469 20.925781 L 37.644531 20.738281 L 37.691406 20.558594 L 37.738281 20.386719 L 37.792969 20.222656 L 37.847656 20.066406 L 37.90625 19.914062 L 37.972656 19.773438 L 38.039062 19.636719 L 38.109375 19.507812 L 38.179688 19.386719 L 38.257812 19.273438 L 38.339844 19.164062 L 38.421875 19.066406 L 38.511719 18.96875 L 38.601562 18.882812 L 38.695312 18.800781 L 38.789062 18.726562 L 38.886719 18.65625 L 38.992188 18.59375 L 39.09375 18.535156 L 39.203125 18.484375 L 39.429688 18.398438 L 39.542969 18.363281 L 39.660156 18.332031 L 39.78125 18.304688 L 39.902344 18.28125 L 40.027344 18.261719 L 40.152344 18.246094 L 40.277344 18.234375 L 40.40625 18.230469 L 40.539062 18.226562 L 40.789062 18.234375 L 40.910156 18.246094 L 41.03125 18.261719 L 41.152344 18.28125 L 41.269531 18.304688 L 41.382812 18.332031 L 41.496094 18.363281 L 41.609375 18.398438 L 41.722656 18.441406 L 41.832031 18.484375 L 41.9375 18.535156 L 42.042969 18.59375 L 42.144531 18.65625 L 42.242188 18.726562 L 42.335938 18.800781 L 42.429688 18.882812 L 42.519531 18.96875 L 42.691406 19.164062 L 42.769531 19.273438 L 42.847656 19.386719 L 42.921875 19.507812 L 42.992188 19.636719 L 43.058594 19.773438 L 43.121094 19.914062 L 43.179688 20.066406 L 43.238281 20.222656 L 43.289062 20.386719 L 43.339844 20.558594 L 43.382812 20.738281 L 43.425781 20.925781 L 43.460938 21.121094 L 43.492188 21.328125 L 43.519531 21.542969 L 43.539062 21.769531 L 43.554688 22 L 43.566406 22.246094 L 43.574219 22.496094 Z M 42.433594 22.757812 L 42.433594 22.550781 L 42.429688 22.351562 L 42.421875 22.160156 L 42.414062 21.976562 L 42.402344 21.796875 L 42.386719 21.628906 L 42.371094 21.464844 L 42.351562 21.308594 L 42.332031 21.15625 L 42.308594 21.015625 L 42.28125 20.878906 L 42.253906 20.746094 L 42.222656 20.621094 L 42.1875 20.5 L 42.152344 20.386719 L 42.117188 20.277344 L 42.074219 20.175781 L 42.03125 20.078125 L 41.988281 19.988281 L 41.941406 19.902344 L 41.890625 19.820312 L 41.835938 19.746094 L 41.78125 19.675781 L 41.726562 19.609375 L 41.667969 19.546875 L 41.542969 19.4375 L 41.410156 19.351562 L 41.269531 19.28125 L 41.121094 19.226562 L 41.042969 19.203125 L 40.964844 19.183594 L 40.882812 19.167969 L 40.800781 19.15625 L 40.628906 19.140625 L 40.445312 19.140625 L 40.265625 19.15625 L 40.175781 19.167969 L 40.09375 19.183594 L 40.011719 19.203125 L 39.929688 19.226562 L 39.851562 19.253906 L 39.777344 19.28125 L 39.628906 19.351562 L 39.5625 19.394531 L 39.496094 19.441406 L 39.429688 19.496094 L 39.367188 19.550781 L 39.308594 19.613281 L 39.25 19.679688 L 39.195312 19.75 L 39.140625 19.828125 L 39.089844 19.910156 L 39.042969 19.996094 L 38.996094 20.085938 L 38.953125 20.183594 L 38.914062 20.285156 L 38.875 20.394531 L 38.839844 20.507812 L 38.804688 20.628906 L 38.777344 20.753906 L 38.746094 20.882812 L 38.722656 21.023438 L 38.695312 21.164062 L 38.675781 21.3125 L 38.65625 21.46875 L 38.640625 21.632812 L 38.628906 21.804688 L 38.617188 21.980469 L 38.605469 22.164062 L 38.601562 22.355469 L 38.597656 22.554688 L 38.597656 22.957031 L 38.601562 23.152344 L 38.605469 23.335938 L 38.617188 23.519531 L 38.628906 23.691406 L 38.640625 23.859375 L 38.65625 24.019531 L 38.675781 24.175781 L 38.695312 24.324219 L 38.722656 24.464844 L 38.75 24.601562 L 38.777344 24.730469 L 38.808594 24.855469 L 38.84375 24.976562 L 38.878906 25.09375 L 38.917969 25.199219 L 38.960938 25.304688 L 39.003906 25.402344 L 39.046875 25.496094 L 39.097656 25.585938 L 39.199219 25.742188 L 39.253906 25.8125 L 39.3125 25.882812 L 39.371094 25.945312 L 39.433594 26.003906 L 39.496094 26.058594 L 39.5625 26.105469 L 39.632812 26.152344 L 39.703125 26.191406 L 39.773438 26.226562 L 39.847656 26.253906 L 39.925781 26.28125 L 40.082031 26.328125 L 40.164062 26.34375 L 40.25 26.355469 L 40.335938 26.363281 L 40.425781 26.371094 L 40.601562 26.371094 L 40.773438 26.355469 L 40.855469 26.34375 L 40.9375 26.328125 L 41.09375 26.28125 L 41.242188 26.226562 L 41.316406 26.191406 L 41.382812 26.152344 L 41.453125 26.105469 L 41.519531 26.058594 L 41.582031 26.003906 L 41.644531 25.945312 L 41.703125 25.882812 L 41.8125 25.742188 L 41.914062 25.585938 L 41.964844 25.496094 L 42.011719 25.402344 L 42.054688 25.304688 L 42.09375 25.199219 L 42.136719 25.09375 L 42.171875 24.976562 L 42.207031 24.855469 L 42.238281 24.730469 L 42.269531 24.601562 L 42.296875 24.464844 L 42.320312 24.324219 L 42.34375 24.175781 L 42.367188 24.019531 L 42.382812 23.859375 L 42.398438 23.691406 L 42.410156 23.519531 L 42.421875 23.335938 L 42.429688 23.152344 L 42.433594 22.957031 Z M 42.433594 22.757812 "/>
<path style="fill:none;stroke-width:2.069291;stroke-linecap:butt;stroke-linejoin:round;stroke:rgb(20%,20%,20%);stroke-opacity:1;stroke-miterlimit:10;" d="M 47.265625 318.601562 L 51.25 318.601562 "/>
<path style="fill:none;stroke-width:2.069291;stroke-linecap:butt;stroke-linejoin:round;stroke:rgb(20%,20%,20%);stroke-opacity:1;stroke-miterlimit:10;" d="M 47.265625 244.640625 L 51.25 244.640625 "/>
<path style="fill:none;stroke-width:2.069291;stroke-linecap:butt;stroke-linejoin:round;stroke:rgb(20%,20%,20%);stroke-opacity:1;stroke-miterlimit:10;" d="M 47.265625 170.683594 L 51.25 170.683594 "/>
<path style="fill:none;stroke-width:2.069291;stroke-linecap:butt;stroke-linejoin:round;stroke:rgb(20%,20%,20%);stroke-opacity:1;stroke-miterlimit:10;" d="M 47.265625 96.722656 L 51.25 96.722656 "/>
<path style="fill:none;stroke-width:2.069291;stroke-linecap:butt;stroke-linejoin:round;stroke:rgb(20%,20%,20%);stroke-opacity:1;stroke-miterlimit:10;" d="M 47.265625 22.761719 L 51.25 22.761719 "/>
<path style="fill:none;stroke-width:2.069291;stroke-linecap:butt;stroke-linejoin:round;stroke:rgb(0%,0%,0%);stroke-opacity:1;stroke-miterlimit:10;" d="M 51.25 333.394531 L 496.03125 333.394531 "/>
<path style="fill:none;stroke-width:2.069291;stroke-linecap:butt;stroke-linejoin:round;stroke:rgb(20%,20%,20%);stroke-opacity:1;stroke-miterlimit:10;" d="M 71.46875 337.378906 L 71.46875 333.394531 "/>
<path style="fill:none;stroke-width:2.069291;stroke-linecap:butt;stroke-linejoin:round;stroke:rgb(20%,20%,20%);stroke-opacity:1;stroke-miterlimit:10;" d="M 161.320312 337.378906 L 161.320312 333.394531 "/>
<path style="fill:none;stroke-width:2.069291;stroke-linecap:butt;stroke-linejoin:round;stroke:rgb(20%,20%,20%);stroke-opacity:1;stroke-miterlimit:10;" d="M 251.175781 337.378906 L 251.175781 333.394531 "/>
<path style="fill:none;stroke-width:2.069291;stroke-linecap:butt;stroke-linejoin:round;stroke:rgb(20%,20%,20%);stroke-opacity:1;stroke-miterlimit:10;" d="M 341.03125 337.378906 L 341.03125 333.394531 "/>
<path style="fill:none;stroke-width:2.069291;stroke-linecap:butt;stroke-linejoin:round;stroke:rgb(20%,20%,20%);stroke-opacity:1;stroke-miterlimit:10;" d="M 430.886719 337.378906 L 430.886719 333.394531 "/>
<path style=" stroke:none;fill-rule:evenodd;fill:rgb(30.196078%,30.196078%,30.196078%);fill-opacity:1;" d="M 68.882812 349.375 L 68.882812 348.417969 L 71.125 348.417969 L 71.125 341.640625 L 69.140625 343.0625 L 69.140625 342 L 71.21875 340.566406 L 72.257812 340.566406 L 72.257812 348.417969 L 74.402344 348.417969 L 74.402344 349.375 Z M 68.882812 349.375 "/>
<path style=" stroke:none;fill-rule:evenodd;fill:rgb(30.196078%,30.196078%,30.196078%);fill-opacity:1;" d="M 158.40625 349.375 L 158.40625 348.578125 L 158.472656 348.433594 L 158.539062 348.292969 L 158.609375 348.15625 L 158.757812 347.890625 L 158.839844 347.765625 L 158.917969 347.640625 L 159.089844 347.40625 L 159.179688 347.292969 L 159.273438 347.179688 L 159.367188 347.070312 L 159.460938 346.964844 L 159.558594 346.859375 L 159.753906 346.65625 L 159.851562 346.558594 L 159.949219 346.464844 L 160.050781 346.371094 L 160.148438 346.28125 L 160.25 346.1875 L 160.351562 346.101562 L 160.453125 346.011719 L 160.554688 345.925781 L 160.652344 345.839844 L 160.753906 345.757812 L 160.851562 345.675781 L 160.953125 345.59375 L 161.148438 345.4375 L 161.25 345.359375 L 161.347656 345.28125 L 161.535156 345.125 L 161.625 345.046875 L 161.714844 344.972656 L 161.886719 344.816406 L 162.050781 344.660156 L 162.128906 344.582031 L 162.277344 344.425781 L 162.34375 344.34375 L 162.410156 344.265625 L 162.535156 344.101562 L 162.589844 344.015625 L 162.644531 343.933594 L 162.695312 343.847656 L 162.742188 343.761719 L 162.785156 343.675781 L 162.820312 343.582031 L 162.855469 343.492188 L 162.882812 343.394531 L 162.921875 343.199219 L 162.933594 343.097656 L 162.941406 342.992188 L 162.945312 342.886719 L 162.9375 342.738281 L 162.933594 342.667969 L 162.925781 342.601562 L 162.902344 342.46875 L 162.886719 342.40625 L 162.871094 342.347656 L 162.851562 342.285156 L 162.832031 342.230469 L 162.808594 342.171875 L 162.78125 342.117188 L 162.726562 342.015625 L 162.695312 341.964844 L 162.660156 341.917969 L 162.625 341.875 L 162.585938 341.828125 L 162.507812 341.75 L 162.464844 341.710938 L 162.371094 341.640625 L 162.324219 341.609375 L 162.273438 341.578125 L 162.21875 341.550781 L 162.054688 341.480469 L 161.992188 341.460938 L 161.933594 341.441406 L 161.875 341.425781 L 161.8125 341.410156 L 161.746094 341.398438 L 161.683594 341.386719 L 161.550781 341.371094 L 161.480469 341.363281 L 161.410156 341.363281 L 161.335938 341.359375 L 161.269531 341.363281 L 161.203125 341.363281 L 161.136719 341.371094 L 161.074219 341.375 L 161.007812 341.382812 L 160.882812 341.40625 L 160.820312 341.421875 L 160.761719 341.4375 L 160.699219 341.453125 L 160.640625 341.472656 L 160.476562 341.542969 L 160.421875 341.570312 L 160.269531 341.664062 L 160.175781 341.734375 L 160.128906 341.773438 L 160.085938 341.816406 L 160.042969 341.855469 L 160.003906 341.902344 L 159.964844 341.945312 L 159.925781 341.996094 L 159.890625 342.042969 L 159.855469 342.097656 L 159.824219 342.148438 L 159.792969 342.203125 L 159.765625 342.261719 L 159.742188 342.320312 L 159.714844 342.378906 L 159.675781 342.503906 L 159.65625 342.570312 L 159.640625 342.636719 L 159.628906 342.703125 L 159.617188 342.777344 L 159.605469 342.847656 L 158.457031 342.742188 L 158.46875 342.648438 L 158.484375 342.554688 L 158.503906 342.460938 L 158.523438 342.371094 L 158.578125 342.191406 L 158.640625 342.019531 L 158.71875 341.847656 L 158.761719 341.765625 L 158.808594 341.683594 L 158.855469 341.605469 L 158.964844 341.457031 L 159.023438 341.382812 L 159.085938 341.3125 L 159.148438 341.246094 L 159.214844 341.179688 L 159.363281 341.054688 L 159.4375 340.996094 L 159.519531 340.9375 L 159.601562 340.882812 L 159.6875 340.832031 L 159.773438 340.785156 L 159.867188 340.738281 L 159.960938 340.695312 L 160.054688 340.65625 L 160.15625 340.617188 L 160.261719 340.582031 L 160.367188 340.550781 L 160.476562 340.523438 L 160.589844 340.5 L 160.707031 340.480469 L 160.828125 340.464844 L 160.949219 340.453125 L 161.207031 340.4375 L 161.46875 340.4375 L 161.59375 340.441406 L 161.71875 340.449219 L 161.839844 340.460938 L 162.074219 340.492188 L 162.1875 340.511719 L 162.296875 340.535156 L 162.402344 340.5625 L 162.507812 340.59375 L 162.605469 340.625 L 162.703125 340.660156 L 162.800781 340.699219 L 162.890625 340.742188 L 162.976562 340.785156 L 163.0625 340.832031 L 163.144531 340.882812 L 163.222656 340.9375 L 163.296875 340.996094 L 163.367188 341.054688 L 163.4375 341.117188 L 163.503906 341.183594 L 163.566406 341.25 L 163.683594 341.398438 L 163.734375 341.472656 L 163.785156 341.554688 L 163.832031 341.636719 L 163.875 341.722656 L 163.914062 341.8125 L 163.949219 341.902344 L 163.980469 341.996094 L 164.007812 342.09375 L 164.03125 342.191406 L 164.054688 342.296875 L 164.070312 342.402344 L 164.082031 342.507812 L 164.09375 342.617188 L 164.097656 342.734375 L 164.101562 342.847656 L 164.097656 342.9375 L 164.09375 343.023438 L 164.085938 343.109375 L 164.074219 343.195312 L 164.042969 343.367188 L 163.996094 343.53125 L 163.96875 343.613281 L 163.9375 343.691406 L 163.90625 343.773438 L 163.871094 343.851562 L 163.792969 344.007812 L 163.753906 344.082031 L 163.710938 344.160156 L 163.617188 344.308594 L 163.566406 344.382812 L 163.511719 344.453125 L 163.460938 344.527344 L 163.402344 344.597656 L 163.347656 344.671875 L 163.289062 344.742188 L 163.226562 344.8125 L 163.167969 344.882812 L 163.101562 344.949219 L 163.035156 345.019531 L 162.898438 345.15625 L 162.6875 345.355469 L 162.613281 345.421875 L 162.542969 345.488281 L 162.246094 345.753906 L 162.167969 345.816406 L 162.09375 345.882812 L 162.015625 345.945312 L 161.941406 346.007812 L 161.863281 346.074219 L 161.785156 346.136719 L 161.710938 346.199219 L 161.632812 346.261719 L 161.554688 346.328125 L 161.398438 346.453125 L 161.324219 346.515625 L 161.246094 346.582031 L 160.949219 346.832031 L 160.808594 346.957031 L 160.738281 347.023438 L 160.667969 347.085938 L 160.601562 347.148438 L 160.472656 347.277344 L 160.410156 347.34375 L 160.347656 347.40625 L 160.171875 347.605469 L 160.117188 347.671875 L 160.0625 347.734375 L 159.910156 347.933594 L 159.867188 348 L 159.824219 348.070312 L 159.78125 348.136719 L 159.746094 348.207031 L 159.707031 348.277344 L 159.644531 348.417969 L 164.238281 348.417969 L 164.238281 349.375 Z M 158.40625 349.375 "/>
<path style=" stroke:none;fill-rule:evenodd;fill:rgb(30.196078%,30.196078%,30.196078%);fill-opacity:1;" d="M 254.171875 346.941406 L 254.171875 347.0625 L 254.164062 347.179688 L 254.15625 347.292969 L 254.140625 347.40625 L 254.125 347.515625 L 254.101562 347.621094 L 254.074219 347.726562 L 254.046875 347.828125 L 254.011719 347.925781 L 253.972656 348.023438 L 253.933594 348.117188 L 253.839844 348.296875 L 253.789062 348.378906 L 253.734375 348.460938 L 253.671875 348.542969 L 253.609375 348.617188 L 253.542969 348.691406 L 253.472656 348.761719 L 253.398438 348.828125 L 253.320312 348.894531 L 253.242188 348.953125 L 253.15625 349.011719 L 253.066406 349.066406 L 252.976562 349.117188 L 252.78125 349.210938 L 252.679688 349.253906 L 252.570312 349.292969 L 252.460938 349.328125 L 252.347656 349.363281 L 252.230469 349.390625 L 252.113281 349.414062 L 251.988281 349.4375 L 251.863281 349.457031 L 251.734375 349.472656 L 251.601562 349.484375 L 251.464844 349.492188 L 251.328125 349.496094 L 251.1875 349.5 L 251.023438 349.496094 L 250.867188 349.492188 L 250.71875 349.480469 L 250.570312 349.464844 L 250.429688 349.449219 L 250.164062 349.402344 L 250.039062 349.371094 L 249.917969 349.335938 L 249.804688 349.296875 L 249.695312 349.257812 L 249.589844 349.210938 L 249.488281 349.164062 L 249.390625 349.113281 L 249.296875 349.0625 L 249.207031 349.007812 L 249.121094 348.949219 L 249.039062 348.886719 L 248.960938 348.824219 L 248.886719 348.761719 L 248.746094 348.621094 L 248.683594 348.550781 L 248.625 348.476562 L 248.570312 348.402344 L 248.515625 348.324219 L 248.46875 348.246094 L 248.421875 348.164062 L 248.378906 348.082031 L 248.34375 348 L 248.308594 347.914062 L 248.273438 347.824219 L 248.246094 347.738281 L 248.21875 347.648438 L 248.191406 347.5625 L 248.167969 347.472656 L 248.148438 347.382812 L 248.117188 347.203125 L 248.105469 347.109375 L 249.265625 347.003906 L 249.277344 347.074219 L 249.289062 347.140625 L 249.304688 347.210938 L 249.320312 347.273438 L 249.335938 347.339844 L 249.375 347.464844 L 249.398438 347.523438 L 249.421875 347.585938 L 249.449219 347.640625 L 249.476562 347.699219 L 249.539062 347.808594 L 249.609375 347.910156 L 249.726562 348.050781 L 249.773438 348.09375 L 249.816406 348.136719 L 249.863281 348.175781 L 249.914062 348.214844 L 249.964844 348.25 L 250.074219 348.320312 L 250.132812 348.351562 L 250.191406 348.378906 L 250.253906 348.40625 L 250.453125 348.476562 L 250.527344 348.496094 L 250.597656 348.511719 L 250.675781 348.527344 L 250.753906 348.539062 L 250.835938 348.550781 L 250.917969 348.558594 L 251.003906 348.5625 L 251.09375 348.566406 L 251.1875 348.566406 L 251.351562 348.5625 L 251.511719 348.550781 L 251.664062 348.53125 L 251.808594 348.5 L 251.945312 348.460938 L 252.074219 348.417969 L 252.195312 348.363281 L 252.308594 348.300781 L 252.417969 348.226562 L 252.515625 348.148438 L 252.609375 348.0625 L 252.691406 347.964844 L 252.765625 347.859375 L 252.828125 347.75 L 252.882812 347.628906 L 252.925781 347.5 L 252.960938 347.363281 L 252.984375 347.21875 L 253 347.066406 L 253.003906 346.90625 L 253.003906 346.808594 L 252.996094 346.71875 L 252.984375 346.628906 L 252.96875 346.546875 L 252.949219 346.464844 L 252.925781 346.390625 L 252.898438 346.316406 L 252.828125 346.183594 L 252.742188 346.066406 L 252.695312 346.007812 L 252.648438 345.957031 L 252.597656 345.90625 L 252.546875 345.859375 L 252.492188 345.8125 L 252.433594 345.769531 L 252.375 345.730469 L 252.25 345.660156 L 252.117188 345.597656 L 251.984375 345.542969 L 251.914062 345.519531 L 251.84375 345.5 L 251.769531 345.480469 L 251.699219 345.464844 L 251.625 345.449219 L 251.546875 345.4375 L 251.472656 345.425781 L 251.402344 345.414062 L 251.328125 345.40625 L 251.257812 345.398438 L 251.117188 345.390625 L 250.917969 345.378906 L 250.21875 345.378906 L 250.21875 344.40625 L 250.828125 344.40625 L 250.894531 344.402344 L 250.957031 344.402344 L 251.15625 344.390625 L 251.289062 344.375 L 251.355469 344.363281 L 251.421875 344.355469 L 251.492188 344.34375 L 251.558594 344.328125 L 251.628906 344.3125 L 251.691406 344.292969 L 251.757812 344.269531 L 251.820312 344.25 L 251.882812 344.222656 L 251.941406 344.195312 L 252.003906 344.167969 L 252.058594 344.136719 L 252.117188 344.105469 L 252.171875 344.070312 L 252.226562 344.03125 L 252.28125 343.988281 L 252.328125 343.945312 L 252.378906 343.898438 L 252.421875 343.851562 L 252.46875 343.800781 L 252.507812 343.75 L 252.546875 343.695312 L 252.585938 343.636719 L 252.621094 343.574219 L 252.652344 343.511719 L 252.679688 343.445312 L 252.707031 343.375 L 252.726562 343.300781 L 252.742188 343.226562 L 252.757812 343.144531 L 252.765625 343.0625 L 252.769531 342.976562 L 252.773438 342.886719 L 252.769531 342.746094 L 252.757812 342.617188 L 252.734375 342.488281 L 252.707031 342.367188 L 252.667969 342.253906 L 252.621094 342.148438 L 252.566406 342.042969 L 252.503906 341.949219 L 252.433594 341.859375 L 252.355469 341.773438 L 252.269531 341.695312 L 252.171875 341.625 L 252.070312 341.5625 L 251.960938 341.507812 L 251.839844 341.464844 L 251.714844 341.425781 L 251.578125 341.398438 L 251.433594 341.378906 L 251.28125 341.367188 L 251.125 341.359375 L 250.976562 341.363281 L 250.835938 341.375 L 250.703125 341.394531 L 250.574219 341.421875 L 250.449219 341.457031 L 250.332031 341.5 L 250.21875 341.546875 L 250.113281 341.605469 L 250.011719 341.671875 L 249.917969 341.742188 L 249.828125 341.820312 L 249.75 341.90625 L 249.675781 342 L 249.613281 342.097656 L 249.554688 342.203125 L 249.507812 342.3125 L 249.464844 342.429688 L 249.429688 342.550781 L 249.40625 342.683594 L 249.386719 342.816406 L 248.253906 342.730469 L 248.269531 342.613281 L 248.289062 342.503906 L 248.3125 342.394531 L 248.339844 342.289062 L 248.367188 342.1875 L 248.402344 342.085938 L 248.441406 341.988281 L 248.480469 341.894531 L 248.523438 341.804688 L 248.625 341.632812 L 248.679688 341.550781 L 248.734375 341.472656 L 248.792969 341.394531 L 248.855469 341.324219 L 248.921875 341.253906 L 248.988281 341.1875 L 249.128906 341.0625 L 249.203125 341.003906 L 249.28125 340.949219 L 249.363281 340.894531 L 249.445312 340.847656 L 249.617188 340.753906 L 249.707031 340.714844 L 249.800781 340.675781 L 249.890625 340.640625 L 250.085938 340.578125 L 250.183594 340.550781 L 250.285156 340.527344 L 250.386719 340.507812 L 250.492188 340.488281 L 250.59375 340.472656 L 250.699219 340.460938 L 250.808594 340.449219 L 250.914062 340.441406 L 251.023438 340.4375 L 251.28125 340.4375 L 251.421875 340.445312 L 251.558594 340.453125 L 251.691406 340.464844 L 251.820312 340.484375 L 251.945312 340.503906 L 252.066406 340.527344 L 252.183594 340.554688 L 252.296875 340.589844 L 252.40625 340.625 L 252.507812 340.660156 L 252.609375 340.703125 L 252.707031 340.746094 L 252.796875 340.789062 L 252.886719 340.839844 L 252.972656 340.890625 L 253.054688 340.945312 L 253.128906 341 L 253.203125 341.0625 L 253.273438 341.125 L 253.339844 341.1875 L 253.402344 341.253906 L 253.460938 341.320312 L 253.515625 341.390625 L 253.566406 341.464844 L 253.613281 341.539062 L 253.699219 341.695312 L 253.734375 341.777344 L 253.765625 341.859375 L 253.796875 341.945312 L 253.824219 342.035156 L 253.851562 342.121094 L 253.890625 342.300781 L 253.902344 342.390625 L 253.914062 342.484375 L 253.929688 342.671875 L 253.929688 342.84375 L 253.925781 342.921875 L 253.921875 342.996094 L 253.914062 343.070312 L 253.902344 343.140625 L 253.890625 343.214844 L 253.878906 343.285156 L 253.863281 343.355469 L 253.84375 343.425781 L 253.824219 343.492188 L 253.777344 343.625 L 253.75 343.6875 L 253.6875 343.8125 L 253.617188 343.929688 L 253.578125 343.988281 L 253.492188 344.097656 L 253.445312 344.152344 L 253.398438 344.203125 L 253.347656 344.253906 L 253.292969 344.300781 L 253.175781 344.394531 L 253.117188 344.4375 L 252.984375 344.523438 L 252.917969 344.5625 L 252.847656 344.597656 L 252.773438 344.636719 L 252.699219 344.667969 L 252.617188 344.699219 L 252.539062 344.730469 L 252.453125 344.761719 L 252.367188 344.785156 L 252.273438 344.8125 L 252.183594 344.832031 L 252.085938 344.855469 L 252.085938 344.878906 L 252.191406 344.890625 L 252.292969 344.90625 L 252.488281 344.945312 L 252.582031 344.96875 L 252.761719 345.023438 L 252.847656 345.054688 L 252.929688 345.085938 L 253.011719 345.125 L 253.089844 345.160156 L 253.164062 345.199219 L 253.304688 345.285156 L 253.371094 345.328125 L 253.496094 345.421875 L 253.554688 345.472656 L 253.660156 345.578125 L 253.710938 345.636719 L 253.757812 345.691406 L 253.800781 345.75 L 253.84375 345.8125 L 253.921875 345.9375 L 253.957031 346 L 253.988281 346.066406 L 254.015625 346.136719 L 254.042969 346.203125 L 254.066406 346.273438 L 254.089844 346.347656 L 254.109375 346.417969 L 254.125 346.492188 L 254.140625 346.5625 L 254.152344 346.636719 L 254.160156 346.714844 L 254.167969 346.789062 L 254.171875 346.867188 Z M 254.171875 346.941406 "/>
<path style=" stroke:none;fill-rule:evenodd;fill:rgb(30.196078%,30.196078%,30.196078%);fill-opacity:1;" d="M 342.976562 347.378906 L 342.976562 349.375 L 341.914062 349.375 L 341.914062 347.378906 L 337.765625 347.378906 L 337.765625 346.503906 L 341.796875 340.566406 L 342.976562 340.566406 L 342.976562 346.492188 L 344.214844 346.492188 L 344.214844 347.378906 Z M 341.914062 341.835938 L 341.914062 341.84375 L 341.90625 341.859375 L 341.898438 341.871094 L 341.894531 341.882812 L 341.886719 341.894531 L 341.863281 341.941406 L 341.851562 341.960938 L 341.84375 341.980469 L 341.832031 341.996094 L 341.820312 342.015625 L 341.8125 342.035156 L 341.789062 342.074219 L 341.777344 342.097656 L 341.765625 342.117188 L 341.753906 342.140625 L 341.742188 342.160156 L 341.726562 342.183594 L 341.703125 342.230469 L 341.6875 342.253906 L 341.675781 342.273438 L 341.664062 342.296875 L 341.648438 342.320312 L 341.636719 342.34375 L 341.621094 342.367188 L 341.585938 342.4375 L 341.539062 342.515625 L 341.515625 342.546875 L 341.507812 342.566406 L 341.496094 342.578125 L 339.242188 345.90625 L 339.234375 345.914062 L 339.203125 345.960938 L 339.191406 345.976562 L 339.179688 345.988281 L 339.171875 346.003906 L 339.136719 346.050781 L 339.125 346.070312 L 339.089844 346.117188 L 339.078125 346.136719 L 339.066406 346.152344 L 339.050781 346.171875 L 339.027344 346.203125 L 339.015625 346.222656 L 338.992188 346.253906 L 338.976562 346.269531 L 338.953125 346.300781 L 338.941406 346.320312 L 338.929688 346.335938 L 338.914062 346.351562 L 338.867188 346.414062 L 338.855469 346.425781 L 338.847656 346.4375 L 338.835938 346.453125 L 338.828125 346.460938 L 338.820312 346.472656 L 338.808594 346.484375 L 338.804688 346.492188 L 341.914062 346.492188 Z M 341.914062 341.835938 "/>
<path style=" stroke:none;fill-rule:evenodd;fill:rgb(30.196078%,30.196078%,30.196078%);fill-opacity:1;" d="M 433.90625 346.503906 L 433.90625 346.636719 L 433.898438 346.765625 L 433.890625 346.890625 L 433.875 347.015625 L 433.855469 347.140625 L 433.835938 347.257812 L 433.808594 347.378906 L 433.746094 347.605469 L 433.707031 347.71875 L 433.621094 347.929688 L 433.570312 348.035156 L 433.515625 348.132812 L 433.457031 348.230469 L 433.398438 348.324219 L 433.332031 348.414062 L 433.191406 348.585938 L 433.113281 348.667969 L 433.03125 348.746094 L 432.949219 348.816406 L 432.859375 348.886719 L 432.765625 348.953125 L 432.671875 349.015625 L 432.570312 349.078125 L 432.46875 349.132812 L 432.359375 349.183594 L 432.246094 349.234375 L 432.132812 349.28125 L 432.015625 349.320312 L 431.890625 349.359375 L 431.765625 349.390625 L 431.636719 349.417969 L 431.503906 349.445312 L 431.367188 349.464844 L 431.226562 349.480469 L 431.082031 349.488281 L 430.933594 349.496094 L 430.78125 349.5 L 430.644531 349.496094 L 430.511719 349.492188 L 430.382812 349.484375 L 430.253906 349.472656 L 430.011719 349.441406 L 429.785156 349.394531 L 429.675781 349.367188 L 429.570312 349.335938 L 429.46875 349.300781 L 429.371094 349.265625 L 429.183594 349.1875 L 429.097656 349.144531 L 429.011719 349.097656 L 428.929688 349.050781 L 428.773438 348.949219 L 428.699219 348.890625 L 428.632812 348.832031 L 428.5625 348.773438 L 428.4375 348.648438 L 428.378906 348.582031 L 428.324219 348.511719 L 428.273438 348.445312 L 428.222656 348.371094 L 428.175781 348.300781 L 428.132812 348.222656 L 428.09375 348.148438 L 428.054688 348.070312 L 428.019531 347.988281 L 427.984375 347.910156 L 427.957031 347.828125 L 427.925781 347.746094 L 427.902344 347.664062 L 427.855469 347.492188 L 427.839844 347.40625 L 428.976562 347.273438 L 428.992188 347.324219 L 429.003906 347.375 L 429.023438 347.421875 L 429.039062 347.472656 L 429.058594 347.519531 L 429.078125 347.570312 L 429.101562 347.617188 L 429.121094 347.664062 L 429.144531 347.714844 L 429.167969 347.761719 L 429.195312 347.808594 L 429.222656 347.851562 L 429.316406 347.980469 L 429.351562 348.023438 L 429.386719 348.0625 L 429.464844 348.140625 L 429.507812 348.179688 L 429.550781 348.214844 L 429.597656 348.25 L 429.648438 348.28125 L 429.695312 348.3125 L 429.75 348.34375 L 429.859375 348.398438 L 429.917969 348.425781 L 429.976562 348.449219 L 430.039062 348.472656 L 430.171875 348.511719 L 430.242188 348.527344 L 430.316406 348.542969 L 430.390625 348.554688 L 430.46875 348.5625 L 430.550781 348.570312 L 430.632812 348.574219 L 430.71875 348.578125 L 430.894531 348.578125 L 430.980469 348.574219 L 431.144531 348.558594 L 431.222656 348.546875 L 431.304688 348.53125 L 431.378906 348.515625 L 431.457031 348.496094 L 431.527344 348.472656 L 431.601562 348.449219 L 431.671875 348.417969 L 431.804688 348.355469 L 431.867188 348.320312 L 431.929688 348.28125 L 431.992188 348.238281 L 432.046875 348.195312 L 432.15625 348.101562 L 432.207031 348.046875 L 432.257812 347.996094 L 432.351562 347.878906 L 432.394531 347.820312 L 432.433594 347.757812 L 432.472656 347.691406 L 432.542969 347.550781 L 432.574219 347.480469 L 432.601562 347.40625 L 432.628906 347.328125 L 432.652344 347.246094 L 432.671875 347.164062 L 432.6875 347.082031 L 432.703125 346.996094 L 432.726562 346.816406 L 432.734375 346.722656 L 432.738281 346.628906 L 432.738281 346.449219 L 432.734375 346.371094 L 432.71875 346.214844 L 432.707031 346.140625 L 432.691406 346.066406 L 432.675781 345.996094 L 432.65625 345.925781 L 432.632812 345.855469 L 432.605469 345.785156 L 432.550781 345.652344 L 432.519531 345.589844 L 432.484375 345.527344 L 432.449219 345.46875 L 432.410156 345.410156 L 432.324219 345.300781 L 432.28125 345.25 L 432.230469 345.199219 L 432.183594 345.148438 L 432.128906 345.101562 L 432.019531 345.015625 L 431.960938 344.976562 L 431.898438 344.9375 L 431.835938 344.902344 L 431.703125 344.839844 L 431.5625 344.785156 L 431.488281 344.761719 L 431.414062 344.742188 L 431.335938 344.722656 L 431.257812 344.707031 L 431.175781 344.695312 L 431.09375 344.6875 L 431.007812 344.679688 L 430.921875 344.675781 L 430.832031 344.671875 L 430.777344 344.675781 L 430.722656 344.675781 L 430.667969 344.679688 L 430.613281 344.679688 L 430.5625 344.6875 L 430.511719 344.691406 L 430.410156 344.707031 L 430.363281 344.714844 L 430.3125 344.722656 L 430.171875 344.757812 L 430.128906 344.769531 L 430.082031 344.78125 L 429.910156 344.84375 L 429.871094 344.859375 L 429.828125 344.878906 L 429.789062 344.898438 L 429.753906 344.917969 L 429.675781 344.957031 L 429.640625 344.976562 L 429.605469 345 L 429.570312 345.019531 L 429.5 345.066406 L 429.28125 345.230469 L 429.253906 345.253906 L 429.222656 345.28125 L 429.195312 345.304688 L 428.09375 345.304688 L 428.386719 340.566406 L 433.394531 340.566406 L 433.394531 341.523438 L 429.414062 341.523438 L 429.246094 344.316406 L 429.304688 344.273438 L 429.371094 344.226562 L 429.4375 344.183594 L 429.507812 344.144531 L 429.582031 344.101562 L 429.660156 344.066406 L 429.738281 344.027344 L 429.820312 343.992188 L 429.90625 343.957031 L 429.996094 343.921875 L 430.085938 343.890625 L 430.179688 343.863281 L 430.28125 343.835938 L 430.382812 343.816406 L 430.488281 343.796875 L 430.59375 343.78125 L 430.707031 343.769531 L 430.824219 343.761719 L 430.941406 343.757812 L 431.0625 343.753906 L 431.195312 343.757812 L 431.320312 343.761719 L 431.445312 343.773438 L 431.566406 343.785156 L 431.6875 343.804688 L 431.804688 343.828125 L 431.917969 343.851562 L 432.03125 343.882812 L 432.136719 343.917969 L 432.246094 343.953125 L 432.347656 343.996094 L 432.449219 344.042969 L 432.546875 344.089844 L 432.640625 344.140625 L 432.730469 344.195312 L 432.820312 344.253906 L 432.902344 344.316406 L 432.984375 344.382812 L 433.0625 344.453125 L 433.136719 344.523438 L 433.210938 344.597656 L 433.34375 344.753906 L 433.40625 344.835938 L 433.464844 344.921875 L 433.519531 345.011719 L 433.570312 345.101562 L 433.621094 345.195312 L 433.707031 345.390625 L 433.746094 345.496094 L 433.777344 345.597656 L 433.808594 345.707031 L 433.835938 345.8125 L 433.855469 345.921875 L 433.875 346.035156 L 433.890625 346.148438 L 433.90625 346.382812 Z M 433.90625 346.503906 "/>
<path style=" stroke:none;fill-rule:evenodd;fill:rgb(0%,0%,0%);fill-opacity:1;" d="M 18.976562 169.964844 L 19.128906 170.023438 L 19.277344 170.082031 L 19.421875 170.144531 L 19.566406 170.203125 L 19.703125 170.265625 L 19.839844 170.324219 L 19.972656 170.386719 L 20.230469 170.511719 L 20.351562 170.574219 L 20.472656 170.632812 L 20.59375 170.699219 L 20.707031 170.761719 L 20.816406 170.828125 L 20.921875 170.898438 L 21.027344 170.964844 L 21.125 171.039062 L 21.21875 171.109375 L 21.3125 171.183594 L 21.398438 171.261719 L 21.484375 171.335938 L 21.644531 171.496094 L 21.714844 171.582031 L 21.785156 171.664062 L 21.847656 171.75 L 21.910156 171.839844 L 21.964844 171.929688 L 22.015625 172.019531 L 22.109375 172.207031 L 22.148438 172.304688 L 22.183594 172.40625 L 22.214844 172.507812 L 22.261719 172.726562 L 22.277344 172.835938 L 22.289062 172.953125 L 22.296875 173.070312 L 22.296875 173.394531 L 22.292969 173.445312 L 22.292969 173.496094 L 22.289062 173.542969 L 22.289062 173.589844 L 22.28125 173.683594 L 22.277344 173.726562 L 22.265625 173.867188 L 22.25 173.960938 L 22.242188 174.011719 L 22.234375 174.058594 L 22.210938 174.160156 L 21.15625 174.160156 L 21.164062 174.128906 L 21.175781 174.035156 L 21.175781 174 L 21.179688 173.964844 L 21.183594 173.933594 L 21.183594 173.894531 L 21.1875 173.859375 L 21.1875 173.824219 L 21.191406 173.785156 L 21.195312 173.75 L 21.195312 173.714844 L 21.199219 173.679688 L 21.199219 173.648438 L 21.203125 173.617188 L 21.203125 173.503906 L 21.199219 173.378906 L 21.1875 173.257812 L 21.164062 173.140625 L 21.128906 173.023438 L 21.089844 172.90625 L 21.039062 172.792969 L 20.980469 172.679688 L 20.910156 172.570312 L 20.832031 172.460938 L 20.742188 172.355469 L 20.644531 172.25 L 20.539062 172.148438 L 20.417969 172.046875 L 20.289062 171.949219 L 20.144531 171.855469 L 19.992188 171.765625 L 19.832031 171.675781 L 19.65625 171.589844 L 19.472656 171.503906 L 19.273438 171.425781 L 18.9375 171.292969 L 10.523438 174.644531 L 10.523438 173.144531 L 15.195312 171.363281 L 15.242188 171.347656 L 15.285156 171.328125 L 15.335938 171.3125 L 15.386719 171.292969 L 15.441406 171.273438 L 15.5 171.253906 L 15.5625 171.234375 L 15.625 171.210938 L 15.691406 171.191406 L 15.757812 171.167969 L 15.828125 171.140625 L 15.96875 171.09375 L 16.039062 171.066406 L 16.460938 170.925781 L 16.53125 170.898438 L 16.601562 170.875 L 16.667969 170.851562 L 16.730469 170.828125 L 16.796875 170.808594 L 16.859375 170.785156 L 16.921875 170.765625 L 17.039062 170.726562 L 17.148438 170.6875 L 17.199219 170.671875 L 17.246094 170.65625 L 17.324219 170.632812 L 17.355469 170.621094 L 17.386719 170.613281 L 17.410156 170.605469 L 17.429688 170.601562 L 17.445312 170.597656 L 17.429688 170.589844 L 17.40625 170.585938 L 17.378906 170.578125 L 17.351562 170.566406 L 17.320312 170.558594 L 17.285156 170.546875 L 17.246094 170.53125 L 17.203125 170.519531 L 17.160156 170.503906 L 17.109375 170.488281 L 17.058594 170.46875 L 16.839844 170.390625 L 16.78125 170.367188 L 16.664062 170.328125 L 16.601562 170.304688 L 16.539062 170.285156 L 16.164062 170.144531 L 16.097656 170.121094 L 15.972656 170.074219 L 15.90625 170.050781 L 15.78125 170.003906 L 15.722656 169.984375 L 15.664062 169.960938 L 15.554688 169.921875 L 15.5 169.90625 L 15.449219 169.886719 L 15.402344 169.871094 L 15.351562 169.855469 L 10.523438 168.199219 L 10.523438 166.714844 Z M 18.976562 169.964844 "/>
</g>
</svg>
