<?xml version="1.0" encoding="UTF-8"?>
<svg xmlns="http://www.w3.org/2000/svg" xmlns:xlink="http://www.w3.org/1999/xlink" width="504pt" height="360pt" viewBox="0 0 504 360" version="1.1">
<defs>
<clipPath id="clip1">
  <path d="M 40.574219 7.96875 L 497 7.96875 L 497 316 L 40.574219 316 Z M 40.574219 7.96875 "/>
</clipPath>
<clipPath id="clip2">
  <path d="M 239 7.96875 L 241 7.96875 L 241 316 L 239 316 Z M 239 7.96875 "/>
</clipPath>
</defs>
<g id="surface14">
<rect x="0" y="0" width="504" height="360" style="fill:rgb(100%,100%,100%);fill-opacity:1;stroke:none;"/>
<path style="fill:none;stroke-width:2.069291;stroke-linecap:round;stroke-linejoin:round;stroke:rgb(100%,100%,100%);stroke-opacity:1;stroke-miterlimit:10;" d="M 0 0 L 504 0 L 504 360 L 0 360 Z M 0 0 "/>
<g clip-path="url(#clip1)" clip-rule="nonzero">
<path style=" stroke:none;fill-rule:nonzero;fill:rgb(100%,100%,100%);fill-opacity:1;" d="M 40.574219 7.96875 L 496.027344 7.96875 L 496.027344 315.078125 L 40.574219 315.078125 Z M 40.574219 7.96875 "/>
</g>
<path style="fill:none;stroke-width:1.422638;stroke-linecap:butt;stroke-linejoin:round;stroke:rgb(0%,0%,0%);stroke-opacity:1;stroke-miterlimit:10;" d="M 61.277344 279.644531 L 311.777344 279.644531 "/>
<path style="fill:none;stroke-width:1.422638;stroke-linecap:butt;stroke-linejoin:round;stroke:rgb(0%,0%,0%);stroke-opacity:1;stroke-miterlimit:10;" d="M 186.710938 220.585938 L 437.210938 220.585938 "/>
<path style="fill:none;stroke-width:1.422638;stroke-linecap:butt;stroke-linejoin:round;stroke:rgb(0%,0%,0%);stroke-opacity:1;stroke-miterlimit:10;" d="M 91.6875 161.527344 L 342.1875 161.527344 "/>
<path style="fill:none;stroke-width:1.422638;stroke-linecap:butt;stroke-linejoin:round;stroke:rgb(0%,0%,0%);stroke-opacity:1;stroke-miterlimit:10;" d="M 210.4375 102.464844 L 460.9375 102.464844 "/>
<path style="fill:none;stroke-width:1.422638;stroke-linecap:butt;stroke-linejoin:round;stroke:rgb(0%,0%,0%);stroke-opacity:1;stroke-miterlimit:10;" d="M 224.828125 43.40625 L 475.328125 43.40625 "/>
<g clip-path="url(#clip2)" clip-rule="nonzero">
<path style="fill:none;stroke-width:1.422638;stroke-linecap:butt;stroke-linejoin:round;stroke:rgb(100%,0%,0%);stroke-opacity:1;stroke-miterlimit:10;" d="M 239.738281 315.082031 L 239.738281 7.96875 "/>
</g>
<path style="fill-rule:nonzero;fill:rgb(0%,0%,100%);fill-opacity:1;stroke-width:0.944882;stroke-linecap:round;stroke-linejoin:round;stroke:rgb(0%,0%,100%);stroke-opacity:1;stroke-miterlimit:10;" d="M 242.726562 279.644531 C 242.726562 283.628906 236.75 283.628906 236.75 279.644531 C 236.75 275.660156 242.726562 275.660156 242.726562 279.644531 "/>
<path style="fill-rule:nonzero;fill:rgb(0%,0%,100%);fill-opacity:1;stroke-width:0.944882;stroke-linecap:round;stroke-linejoin:round;stroke:rgb(0%,0%,100%);stroke-opacity:1;stroke-miterlimit:10;" d="M 242.726562 220.585938 C 242.726562 224.570312 236.75 224.570312 236.75 220.585938 C 236.75 216.601562 242.726562 216.601562 242.726562 220.585938 "/>
<path style="fill-rule:nonzero;fill:rgb(0%,0%,100%);fill-opacity:1;stroke-width:0.944882;stroke-linecap:round;stroke-linejoin:round;stroke:rgb(0%,0%,100%);stroke-opacity:1;stroke-miterlimit:10;" d="M 242.726562 161.527344 C 242.726562 165.511719 236.75 165.511719 236.75 161.527344 C 236.75 157.542969 242.726562 157.542969 242.726562 161.527344 "/>
<path style="fill-rule:nonzero;fill:rgb(0%,0%,100%);fill-opacity:1;stroke-width:0.944882;stroke-linecap:round;stroke-linejoin:round;stroke:rgb(0%,0%,100%);stroke-opacity:1;stroke-miterlimit:10;" d="M 242.726562 102.464844 C 242.726562 106.449219 236.75 106.449219 236.75 102.464844 C 236.75 98.480469 242.726562 98.480469 242.726562 102.464844 "/>
<path style="fill-rule:nonzero;fill:rgb(0%,0%,100%);fill-opacity:1;stroke-width:0.944882;stroke-linecap:round;stroke-linejoin:round;stroke:rgb(0%,0%,100%);stroke-opacity:1;stroke-miterlimit:10;" d="M 242.726562 43.40625 C 242.726562 47.390625 236.75 47.390625 236.75 43.40625 C 236.75 39.421875 242.726562 39.421875 242.726562 43.40625 "/>
<path style="fill:none;stroke-width:2.069291;stroke-linecap:butt;stroke-linejoin:round;stroke:rgb(0%,0%,0%);stroke-opacity:1;stroke-miterlimit:10;" d="M 40.574219 315.082031 L 40.574219 7.96875 "/>
<path style=" stroke:none;fill-rule:evenodd;fill:rgb(30.196078%,30.196078%,30.196078%);fill-opacity:1;" d="M 28.871094 284.171875 L 28.671875 284.167969 L 28.484375 284.152344 L 28.304688 284.125 L 28.136719 284.085938 L 27.980469 284.039062 L 27.832031 283.980469 L 27.691406 283.910156 L 27.566406 283.828125 L 27.445312 283.738281 L 27.339844 283.636719 L 27.242188 283.523438 L 27.15625 283.40625 L 27.078125 283.277344 L 27.011719 283.140625 L 26.957031 283 L 26.910156 282.847656 L 26.875 282.6875 L 26.847656 282.519531 L 26.832031 282.34375 L 26.828125 282.160156 L 26.828125 282.03125 L 26.835938 281.902344 L 26.847656 281.78125 L 26.867188 281.664062 L 26.890625 281.554688 L 26.917969 281.445312 L 26.949219 281.34375 L 26.988281 281.246094 L 27.03125 281.15625 L 27.078125 281.066406 L 27.128906 280.984375 L 27.183594 280.902344 L 27.246094 280.824219 L 27.304688 280.753906 L 27.371094 280.683594 L 27.4375 280.617188 L 27.507812 280.554688 L 27.582031 280.496094 L 27.660156 280.441406 L 27.738281 280.390625 L 27.824219 280.34375 L 27.996094 280.257812 L 28.085938 280.222656 L 28.273438 280.152344 L 28.371094 280.125 L 28.472656 280.097656 L 28.574219 280.074219 L 28.675781 280.054688 L 28.78125 280.035156 L 28.992188 280.003906 L 29.101562 279.992188 L 29.207031 279.980469 L 29.3125 279.972656 L 29.421875 279.964844 L 29.527344 279.957031 L 29.746094 279.949219 L 31.265625 279.921875 L 31.265625 279.554688 L 31.261719 279.472656 L 31.261719 279.390625 L 31.257812 279.316406 L 31.25 279.238281 L 31.234375 279.097656 L 31.222656 279.03125 L 31.207031 278.964844 L 31.195312 278.902344 L 31.175781 278.84375 L 31.160156 278.785156 L 31.136719 278.730469 L 31.117188 278.675781 L 31.09375 278.625 L 31.039062 278.53125 L 31.007812 278.484375 L 30.945312 278.40625 L 30.910156 278.367188 L 30.832031 278.296875 L 30.792969 278.265625 L 30.75 278.238281 L 30.703125 278.210938 L 30.609375 278.164062 L 30.558594 278.140625 L 30.507812 278.121094 L 30.398438 278.089844 L 30.28125 278.058594 L 30.222656 278.046875 L 30.160156 278.039062 L 30.027344 278.023438 L 29.957031 278.019531 L 29.886719 278.019531 L 29.816406 278.015625 L 29.75 278.019531 L 29.6875 278.019531 L 29.625 278.023438 L 29.566406 278.023438 L 29.503906 278.03125 L 29.445312 278.035156 L 29.226562 278.066406 L 29.175781 278.078125 L 29.125 278.085938 L 29.074219 278.101562 L 29.027344 278.113281 L 28.980469 278.132812 L 28.9375 278.148438 L 28.851562 278.1875 L 28.808594 278.210938 L 28.769531 278.234375 L 28.734375 278.261719 L 28.695312 278.285156 L 28.660156 278.316406 L 28.566406 278.410156 L 28.535156 278.449219 L 28.507812 278.484375 L 28.484375 278.527344 L 28.457031 278.566406 L 28.433594 278.609375 L 28.414062 278.652344 L 28.394531 278.699219 L 28.375 278.75 L 28.359375 278.800781 L 28.34375 278.855469 L 28.332031 278.910156 L 28.320312 278.96875 L 28.308594 279.03125 L 28.300781 279.09375 L 27.128906 278.984375 L 27.140625 278.90625 L 27.15625 278.828125 L 27.175781 278.753906 L 27.195312 278.675781 L 27.21875 278.601562 L 27.242188 278.53125 L 27.269531 278.460938 L 27.332031 278.320312 L 27.363281 278.253906 L 27.402344 278.1875 L 27.441406 278.125 L 27.484375 278.058594 L 27.527344 278 L 27.574219 277.941406 L 27.625 277.882812 L 27.679688 277.828125 L 27.738281 277.773438 L 27.796875 277.722656 L 27.859375 277.671875 L 27.925781 277.625 L 28.066406 277.539062 L 28.144531 277.496094 L 28.222656 277.457031 L 28.304688 277.421875 L 28.390625 277.386719 L 28.476562 277.355469 L 28.570312 277.324219 L 28.664062 277.296875 L 28.867188 277.25 L 28.976562 277.226562 L 29.085938 277.210938 L 29.203125 277.195312 L 29.320312 277.183594 L 29.445312 277.171875 L 29.703125 277.164062 L 29.839844 277.160156 L 30.089844 277.167969 L 30.324219 277.183594 L 30.546875 277.214844 L 30.757812 277.253906 L 30.957031 277.308594 L 31.140625 277.371094 L 31.316406 277.449219 L 31.476562 277.535156 L 31.625 277.636719 L 31.757812 277.75 L 31.878906 277.871094 L 31.988281 278 L 32.085938 278.144531 L 32.171875 278.296875 L 32.242188 278.460938 L 32.300781 278.636719 L 32.34375 278.820312 L 32.375 279.015625 L 32.394531 279.21875 L 32.402344 279.4375 L 32.402344 282.445312 L 32.40625 282.539062 L 32.421875 282.710938 L 32.433594 282.789062 L 32.464844 282.929688 L 32.484375 282.992188 L 32.507812 283.050781 L 32.535156 283.105469 L 32.5625 283.152344 L 32.59375 283.195312 L 32.632812 283.230469 L 32.675781 283.265625 L 32.722656 283.292969 L 32.777344 283.316406 L 32.832031 283.332031 L 32.894531 283.34375 L 32.960938 283.351562 L 33.035156 283.355469 L 33.070312 283.355469 L 33.089844 283.351562 L 33.144531 283.351562 L 33.164062 283.347656 L 33.183594 283.347656 L 33.203125 283.34375 L 33.222656 283.34375 L 33.238281 283.339844 L 33.257812 283.335938 L 33.277344 283.335938 L 33.292969 283.332031 L 33.332031 283.324219 L 33.347656 283.320312 L 33.367188 283.316406 L 33.382812 283.316406 L 33.402344 283.3125 L 33.402344 284.011719 L 33.359375 284.019531 L 33.316406 284.03125 L 33.230469 284.046875 L 33.191406 284.054688 L 33.105469 284.070312 L 33.0625 284.074219 L 33.019531 284.082031 L 32.933594 284.089844 L 32.894531 284.09375 L 32.808594 284.101562 L 32.761719 284.105469 L 32.71875 284.105469 L 32.671875 284.109375 L 32.410156 284.109375 L 32.351562 284.105469 L 32.292969 284.097656 L 32.183594 284.082031 L 32.128906 284.070312 L 32.078125 284.058594 L 32.03125 284.046875 L 31.984375 284.03125 L 31.9375 284.011719 L 31.898438 283.992188 L 31.855469 283.96875 L 31.777344 283.921875 L 31.707031 283.867188 L 31.613281 283.773438 L 31.585938 283.738281 L 31.558594 283.699219 L 31.511719 283.621094 L 31.464844 283.535156 L 31.445312 283.492188 L 31.429688 283.445312 L 31.410156 283.398438 L 31.394531 283.347656 L 31.382812 283.296875 L 31.367188 283.242188 L 31.355469 283.1875 L 31.34375 283.128906 L 31.335938 283.070312 L 31.324219 283.011719 L 31.316406 282.949219 L 31.3125 282.886719 L 31.304688 282.820312 L 31.300781 282.753906 L 31.265625 282.753906 L 31.226562 282.820312 L 31.191406 282.882812 L 31.152344 282.945312 L 31.035156 283.121094 L 30.992188 283.179688 L 30.863281 283.34375 L 30.777344 283.445312 L 30.683594 283.539062 L 30.632812 283.585938 L 30.53125 283.671875 L 30.476562 283.714844 L 30.421875 283.753906 L 30.363281 283.792969 L 30.246094 283.863281 L 30.121094 283.925781 L 30.058594 283.953125 L 29.992188 283.980469 L 29.921875 284.007812 L 29.851562 284.03125 L 29.78125 284.050781 L 29.707031 284.074219 L 29.632812 284.09375 L 29.558594 284.109375 L 29.480469 284.125 L 29.316406 284.148438 L 29.234375 284.15625 L 29.144531 284.164062 L 28.964844 284.171875 Z M 29.128906 283.328125 L 29.234375 283.328125 L 29.4375 283.3125 L 29.535156 283.296875 L 29.628906 283.28125 L 29.722656 283.261719 L 29.8125 283.234375 L 29.898438 283.207031 L 29.984375 283.171875 L 30.066406 283.136719 L 30.222656 283.050781 L 30.296875 283.007812 L 30.367188 282.957031 L 30.433594 282.910156 L 30.5 282.859375 L 30.5625 282.804688 L 30.621094 282.746094 L 30.679688 282.691406 L 30.734375 282.628906 L 30.835938 282.503906 L 30.882812 282.441406 L 30.96875 282.308594 L 31.007812 282.242188 L 31.042969 282.171875 L 31.074219 282.105469 L 31.105469 282.03125 L 31.132812 281.960938 L 31.160156 281.886719 L 31.21875 281.675781 L 31.242188 281.535156 L 31.253906 281.46875 L 31.257812 281.402344 L 31.261719 281.332031 L 31.265625 281.265625 L 31.265625 280.710938 L 30.035156 280.734375 L 29.949219 280.738281 L 29.871094 280.742188 L 29.789062 280.742188 L 29.710938 280.75 L 29.628906 280.753906 L 29.472656 280.769531 L 29.398438 280.777344 L 29.320312 280.789062 L 29.246094 280.796875 L 29.171875 280.808594 L 29.03125 280.839844 L 28.964844 280.855469 L 28.898438 280.875 L 28.710938 280.945312 L 28.652344 280.972656 L 28.597656 281.003906 L 28.539062 281.035156 L 28.488281 281.070312 L 28.4375 281.109375 L 28.390625 281.148438 L 28.34375 281.191406 L 28.296875 281.238281 L 28.257812 281.285156 L 28.179688 281.386719 L 28.144531 281.441406 L 28.113281 281.5 L 28.085938 281.5625 L 28.0625 281.625 L 28.023438 281.765625 L 28.007812 281.84375 L 27.996094 281.921875 L 27.988281 282.003906 L 27.984375 282.089844 L 27.984375 282.285156 L 27.996094 282.390625 L 28.007812 282.488281 L 28.03125 282.578125 L 28.058594 282.667969 L 28.089844 282.75 L 28.128906 282.828125 L 28.171875 282.898438 L 28.222656 282.96875 L 28.277344 283.03125 L 28.339844 283.085938 L 28.40625 283.136719 L 28.480469 283.183594 L 28.558594 283.222656 L 28.640625 283.253906 L 28.726562 283.28125 L 28.820312 283.300781 L 28.917969 283.316406 L 29.019531 283.328125 Z M 29.128906 283.328125 "/>
<path style=" stroke:none;fill-rule:evenodd;fill:rgb(30.196078%,30.196078%,30.196078%);fill-opacity:1;" d="M 32.863281 221.574219 L 32.839844 222.25 L 32.765625 222.847656 L 32.640625 223.378906 L 32.464844 223.839844 L 32.242188 224.230469 L 31.96875 224.546875 L 31.644531 224.796875 L 31.273438 224.972656 L 30.851562 225.078125 L 30.378906 225.113281 L 30.226562 225.109375 L 30.078125 225.101562 L 29.9375 225.089844 L 29.804688 225.070312 L 29.671875 225.042969 L 29.546875 225.015625 L 29.425781 224.980469 L 29.3125 224.9375 L 29.199219 224.890625 L 29.097656 224.839844 L 28.996094 224.777344 L 28.902344 224.710938 L 28.808594 224.640625 L 28.722656 224.558594 L 28.636719 224.472656 L 28.554688 224.378906 L 28.480469 224.28125 L 28.40625 224.171875 L 28.335938 224.058594 L 28.269531 223.9375 L 28.257812 223.9375 L 28.257812 224.070312 L 28.253906 224.105469 L 28.253906 224.171875 L 28.25 224.207031 L 28.25 224.242188 L 28.246094 224.277344 L 28.246094 224.3125 L 28.242188 224.34375 L 28.242188 224.378906 L 28.238281 224.410156 L 28.238281 224.445312 L 28.234375 224.476562 L 28.234375 224.507812 L 28.230469 224.539062 L 28.230469 224.570312 L 28.226562 224.601562 L 28.226562 224.628906 L 28.222656 224.660156 L 28.222656 224.714844 L 28.21875 224.738281 L 28.21875 224.765625 L 28.214844 224.789062 L 28.214844 224.8125 L 28.210938 224.835938 L 28.207031 224.855469 L 28.207031 224.898438 L 28.203125 224.914062 L 28.203125 224.941406 L 28.199219 224.957031 L 28.199219 224.976562 L 28.195312 224.984375 L 28.195312 224.988281 L 27.109375 224.988281 L 27.109375 224.964844 L 27.113281 224.949219 L 27.113281 224.914062 L 27.117188 224.894531 L 27.117188 224.851562 L 27.121094 224.828125 L 27.121094 224.773438 L 27.125 224.742188 L 27.125 224.683594 L 27.128906 224.652344 L 27.128906 224.550781 L 27.132812 224.511719 L 27.132812 224.4375 L 27.136719 224.398438 L 27.136719 224.238281 L 27.140625 224.195312 L 27.140625 223.972656 L 27.144531 223.925781 L 27.144531 215.714844 L 28.269531 215.714844 L 28.269531 218.613281 L 28.265625 218.648438 L 28.265625 218.816406 L 28.261719 218.847656 L 28.261719 218.964844 L 28.257812 218.992188 L 28.257812 219.050781 L 28.253906 219.082031 L 28.253906 219.171875 L 28.25 219.199219 L 28.25 219.257812 L 28.246094 219.285156 L 28.246094 219.3125 L 28.269531 219.3125 L 28.335938 219.1875 L 28.402344 219.066406 L 28.476562 218.957031 L 28.554688 218.851562 L 28.632812 218.753906 L 28.71875 218.667969 L 28.804688 218.585938 L 28.898438 218.507812 L 28.996094 218.441406 L 29.097656 218.382812 L 29.203125 218.328125 L 29.3125 218.28125 L 29.429688 218.238281 L 29.550781 218.203125 L 29.675781 218.171875 L 29.804688 218.144531 L 29.941406 218.125 L 30.082031 218.113281 L 30.226562 218.105469 L 30.378906 218.101562 L 30.625 218.109375 L 30.863281 218.136719 L 31.085938 218.179688 L 31.292969 218.238281 L 31.488281 218.316406 L 31.667969 218.410156 L 31.835938 218.523438 L 31.992188 218.652344 L 32.132812 218.800781 L 32.257812 218.964844 L 32.375 219.144531 L 32.476562 219.34375 L 32.566406 219.5625 L 32.644531 219.796875 L 32.714844 220.046875 L 32.765625 220.316406 L 32.808594 220.605469 L 32.839844 220.910156 L 32.859375 221.234375 Z M 31.683594 221.613281 L 31.683594 221.476562 L 31.679688 221.339844 L 31.675781 221.210938 L 31.667969 221.085938 L 31.652344 220.84375 L 31.640625 220.730469 L 31.628906 220.621094 L 31.613281 220.515625 L 31.597656 220.414062 L 31.578125 220.316406 L 31.554688 220.222656 L 31.535156 220.128906 L 31.480469 219.957031 L 31.453125 219.878906 L 31.421875 219.800781 L 31.351562 219.660156 L 31.316406 219.59375 L 31.273438 219.53125 L 31.234375 219.472656 L 31.1875 219.414062 L 31.09375 219.3125 L 30.992188 219.226562 L 30.9375 219.1875 L 30.878906 219.152344 L 30.820312 219.121094 L 30.757812 219.089844 L 30.695312 219.066406 L 30.628906 219.042969 L 30.558594 219.023438 L 30.488281 219.007812 L 30.414062 218.992188 L 30.257812 218.976562 L 30.175781 218.972656 L 30.089844 218.96875 L 30 218.972656 L 29.917969 218.976562 L 29.832031 218.984375 L 29.75 218.992188 L 29.671875 219.003906 L 29.59375 219.023438 L 29.515625 219.039062 L 29.445312 219.0625 L 29.371094 219.085938 L 29.300781 219.113281 L 29.234375 219.144531 L 29.109375 219.214844 L 28.992188 219.300781 L 28.933594 219.347656 L 28.882812 219.402344 L 28.828125 219.457031 L 28.734375 219.574219 L 28.6875 219.640625 L 28.648438 219.710938 L 28.609375 219.785156 L 28.570312 219.863281 L 28.535156 219.945312 L 28.5 220.03125 L 28.46875 220.121094 L 28.441406 220.214844 L 28.414062 220.3125 L 28.390625 220.414062 L 28.367188 220.519531 L 28.347656 220.628906 L 28.328125 220.746094 L 28.3125 220.867188 L 28.300781 220.988281 L 28.289062 221.121094 L 28.28125 221.253906 L 28.277344 221.390625 L 28.273438 221.535156 L 28.269531 221.683594 L 28.277344 221.964844 L 28.28125 222.097656 L 28.289062 222.226562 L 28.3125 222.46875 L 28.328125 222.582031 L 28.347656 222.695312 L 28.367188 222.800781 L 28.390625 222.902344 L 28.414062 222.996094 L 28.441406 223.089844 L 28.46875 223.179688 L 28.5 223.265625 L 28.570312 223.429688 L 28.609375 223.503906 L 28.6875 223.644531 L 28.734375 223.707031 L 28.828125 223.824219 L 28.882812 223.875 L 28.933594 223.925781 L 28.992188 223.972656 L 29.050781 224.015625 L 29.109375 224.054688 L 29.171875 224.089844 L 29.234375 224.121094 L 29.300781 224.152344 L 29.441406 224.199219 L 29.511719 224.21875 L 29.589844 224.234375 L 29.664062 224.25 L 29.742188 224.261719 L 29.90625 224.277344 L 29.992188 224.28125 L 30.160156 224.28125 L 30.238281 224.277344 L 30.3125 224.269531 L 30.390625 224.257812 L 30.460938 224.246094 L 30.53125 224.230469 L 30.664062 224.191406 L 30.789062 224.136719 L 30.847656 224.109375 L 30.90625 224.074219 L 30.960938 224.035156 L 31.011719 223.996094 L 31.066406 223.949219 L 31.113281 223.902344 L 31.160156 223.851562 L 31.207031 223.796875 L 31.25 223.738281 L 31.289062 223.675781 L 31.367188 223.542969 L 31.398438 223.46875 L 31.433594 223.390625 L 31.464844 223.308594 L 31.492188 223.226562 L 31.515625 223.136719 L 31.542969 223.046875 L 31.582031 222.851562 L 31.601562 222.746094 L 31.621094 222.636719 L 31.632812 222.523438 L 31.648438 222.40625 L 31.660156 222.285156 L 31.667969 222.160156 L 31.675781 222.03125 L 31.683594 221.757812 Z M 31.683594 221.613281 "/>
<path style=" stroke:none;fill-rule:evenodd;fill:rgb(30.196078%,30.196078%,30.196078%);fill-opacity:1;" d="M 28.722656 162.515625 L 28.722656 162.746094 L 28.726562 162.855469 L 28.742188 163.074219 L 28.75 163.179688 L 28.761719 163.285156 L 28.785156 163.488281 L 28.800781 163.585938 L 28.839844 163.773438 L 28.863281 163.867188 L 28.917969 164.039062 L 28.980469 164.203125 L 29.015625 164.28125 L 29.050781 164.355469 L 29.089844 164.429688 L 29.128906 164.496094 L 29.175781 164.5625 L 29.222656 164.625 L 29.269531 164.683594 L 29.320312 164.738281 L 29.375 164.792969 L 29.429688 164.84375 L 29.488281 164.890625 L 29.550781 164.933594 L 29.613281 164.972656 L 29.753906 165.042969 L 29.902344 165.097656 L 30.066406 165.136719 L 30.152344 165.148438 L 30.242188 165.160156 L 30.332031 165.164062 L 30.425781 165.167969 L 30.546875 165.164062 L 30.660156 165.152344 L 30.769531 165.136719 L 30.875 165.113281 L 30.976562 165.085938 L 31.074219 165.050781 L 31.167969 165.007812 L 31.257812 164.957031 L 31.34375 164.902344 L 31.425781 164.839844 L 31.503906 164.773438 L 31.578125 164.695312 L 31.644531 164.613281 L 31.703125 164.523438 L 31.753906 164.429688 L 31.800781 164.324219 L 31.84375 164.214844 L 31.878906 164.097656 L 31.90625 163.972656 L 31.925781 163.839844 L 33.066406 163.917969 L 33.019531 164.164062 L 33 164.246094 L 32.976562 164.328125 L 32.949219 164.40625 L 32.921875 164.488281 L 32.890625 164.566406 L 32.820312 164.722656 L 32.78125 164.800781 L 32.742188 164.875 L 32.648438 165.015625 L 32.597656 165.085938 L 32.546875 165.152344 L 32.492188 165.21875 L 32.433594 165.28125 L 32.371094 165.34375 L 32.308594 165.402344 L 32.242188 165.460938 L 32.175781 165.515625 L 32.105469 165.570312 L 32.03125 165.621094 L 31.875 165.714844 L 31.792969 165.761719 L 31.707031 165.800781 L 31.527344 165.878906 L 31.433594 165.910156 L 31.335938 165.941406 L 31.238281 165.96875 L 31.132812 165.992188 L 31.027344 166.011719 L 30.921875 166.027344 L 30.808594 166.039062 L 30.695312 166.046875 L 30.578125 166.050781 L 30.457031 166.054688 L 30.300781 166.050781 L 30.148438 166.042969 L 30.003906 166.03125 L 29.859375 166.011719 L 29.722656 165.988281 L 29.589844 165.957031 L 29.464844 165.921875 L 29.339844 165.882812 L 29.222656 165.835938 L 29.109375 165.785156 L 29 165.730469 L 28.894531 165.667969 L 28.792969 165.605469 L 28.695312 165.539062 L 28.515625 165.390625 L 28.429688 165.3125 L 28.273438 165.140625 L 28.203125 165.046875 L 28.070312 164.851562 L 28.011719 164.746094 L 27.957031 164.640625 L 27.90625 164.53125 L 27.855469 164.417969 L 27.8125 164.304688 L 27.734375 164.0625 L 27.671875 163.804688 L 27.644531 163.671875 L 27.621094 163.539062 L 27.601562 163.402344 L 27.585938 163.265625 L 27.570312 163.125 L 27.558594 162.980469 L 27.550781 162.835938 L 27.546875 162.691406 L 27.546875 162.40625 L 27.550781 162.273438 L 27.554688 162.148438 L 27.5625 162.023438 L 27.585938 161.78125 L 27.617188 161.554688 L 27.636719 161.445312 L 27.660156 161.339844 L 27.707031 161.136719 L 27.761719 160.941406 L 27.824219 160.761719 L 27.859375 160.671875 L 27.894531 160.589844 L 27.933594 160.507812 L 28.011719 160.351562 L 28.054688 160.277344 L 28.101562 160.203125 L 28.148438 160.132812 L 28.195312 160.066406 L 28.242188 160.003906 L 28.292969 159.941406 L 28.34375 159.882812 L 28.507812 159.71875 L 28.5625 159.667969 L 28.679688 159.574219 L 28.738281 159.53125 L 28.796875 159.492188 L 28.921875 159.414062 L 28.984375 159.378906 L 29.109375 159.316406 L 29.175781 159.285156 L 29.242188 159.257812 L 29.3125 159.234375 L 29.378906 159.207031 L 29.445312 159.1875 L 29.515625 159.164062 L 29.796875 159.101562 L 29.871094 159.089844 L 30.011719 159.066406 L 30.085938 159.058594 L 30.15625 159.054688 L 30.230469 159.046875 L 30.300781 159.042969 L 30.558594 159.042969 L 30.667969 159.046875 L 30.777344 159.054688 L 30.878906 159.066406 L 30.984375 159.082031 L 31.082031 159.097656 L 31.179688 159.117188 L 31.277344 159.140625 L 31.367188 159.167969 L 31.546875 159.230469 L 31.628906 159.265625 L 31.714844 159.300781 L 31.792969 159.339844 L 31.871094 159.382812 L 31.945312 159.425781 L 32.019531 159.472656 L 32.089844 159.523438 L 32.15625 159.574219 L 32.222656 159.628906 L 32.347656 159.738281 L 32.40625 159.800781 L 32.460938 159.859375 L 32.515625 159.921875 L 32.566406 159.988281 L 32.660156 160.121094 L 32.703125 160.195312 L 32.746094 160.265625 L 32.785156 160.339844 L 32.820312 160.414062 L 32.855469 160.492188 L 32.917969 160.648438 L 32.941406 160.730469 L 32.96875 160.808594 L 32.988281 160.890625 L 33.007812 160.976562 L 33.027344 161.058594 L 31.871094 161.148438 L 31.851562 161.039062 L 31.824219 160.933594 L 31.792969 160.832031 L 31.757812 160.734375 L 31.714844 160.644531 L 31.667969 160.554688 L 31.617188 160.472656 L 31.558594 160.394531 L 31.496094 160.324219 L 31.425781 160.253906 L 31.351562 160.191406 L 31.273438 160.132812 L 31.1875 160.085938 L 31.09375 160.042969 L 30.996094 160.003906 L 30.890625 159.976562 L 30.78125 159.953125 L 30.664062 159.9375 L 30.542969 159.925781 L 30.414062 159.921875 L 30.226562 159.929688 L 30.140625 159.9375 L 30.054688 159.949219 L 29.972656 159.964844 L 29.894531 159.980469 L 29.816406 160.003906 L 29.746094 160.027344 L 29.675781 160.054688 L 29.609375 160.085938 L 29.546875 160.117188 L 29.484375 160.152344 L 29.425781 160.195312 L 29.371094 160.238281 L 29.269531 160.332031 L 29.21875 160.386719 L 29.175781 160.441406 L 29.128906 160.503906 L 29.089844 160.566406 L 29.050781 160.632812 L 29.015625 160.699219 L 28.980469 160.773438 L 28.949219 160.847656 L 28.917969 160.925781 L 28.890625 161.007812 L 28.863281 161.09375 L 28.839844 161.183594 L 28.800781 161.371094 L 28.785156 161.472656 L 28.773438 161.574219 L 28.761719 161.679688 L 28.75 161.789062 L 28.742188 161.902344 L 28.726562 162.136719 L 28.722656 162.261719 Z M 28.722656 162.515625 "/>
<path style=" stroke:none;fill-rule:evenodd;fill:rgb(30.196078%,30.196078%,30.196078%);fill-opacity:1;" d="M 31.414062 105.78125 L 31.351562 105.90625 L 31.28125 106.027344 L 31.207031 106.136719 L 31.132812 106.242188 L 31.050781 106.339844 L 30.964844 106.429688 L 30.875 106.511719 L 30.78125 106.585938 L 30.683594 106.652344 L 30.582031 106.710938 L 30.476562 106.765625 L 30.367188 106.8125 L 30.253906 106.855469 L 30.132812 106.894531 L 30.007812 106.921875 L 29.878906 106.949219 L 29.742188 106.96875 L 29.601562 106.984375 L 29.457031 106.992188 L 29.308594 106.992188 L 29.058594 106.984375 L 28.824219 106.960938 L 28.601562 106.917969 L 28.390625 106.855469 L 28.195312 106.777344 L 28.015625 106.683594 L 27.84375 106.570312 L 27.691406 106.441406 L 27.546875 106.296875 L 27.421875 106.132812 L 27.308594 105.949219 L 27.203125 105.75 L 27.113281 105.535156 L 27.035156 105.300781 L 26.972656 105.046875 L 26.917969 104.777344 L 26.875 104.488281 L 26.84375 104.183594 L 26.828125 103.859375 L 26.820312 103.519531 L 26.84375 102.847656 L 26.921875 102.246094 L 27.042969 101.714844 L 27.21875 101.253906 L 27.441406 100.867188 L 27.714844 100.546875 L 28.039062 100.300781 L 28.414062 100.121094 L 28.835938 100.015625 L 29.308594 99.980469 L 29.460938 99.984375 L 29.605469 99.992188 L 29.746094 100.007812 L 29.882812 100.027344 L 30.011719 100.050781 L 30.136719 100.082031 L 30.257812 100.121094 L 30.375 100.160156 L 30.484375 100.210938 L 30.589844 100.261719 L 30.691406 100.320312 L 30.785156 100.386719 L 30.878906 100.460938 L 30.96875 100.539062 L 31.050781 100.625 L 31.132812 100.71875 L 31.210938 100.820312 L 31.28125 100.925781 L 31.351562 101.039062 L 31.414062 101.15625 L 31.425781 101.15625 L 31.425781 101.035156 L 31.421875 101.011719 L 31.421875 100.878906 L 31.417969 100.851562 L 31.417969 100.738281 L 31.414062 100.710938 L 31.414062 97.59375 L 32.539062 97.59375 L 32.539062 105.988281 L 32.542969 106.03125 L 32.542969 106.117188 L 32.546875 106.160156 L 32.546875 106.242188 L 32.550781 106.28125 L 32.550781 106.355469 L 32.554688 106.394531 L 32.554688 106.464844 L 32.558594 106.5 L 32.558594 106.5625 L 32.5625 106.59375 L 32.5625 106.652344 L 32.566406 106.679688 L 32.566406 106.753906 L 32.570312 106.773438 L 32.570312 106.8125 L 32.574219 106.828125 L 32.574219 106.855469 L 32.578125 106.867188 L 31.503906 106.867188 L 31.496094 106.84375 L 31.496094 106.828125 L 31.492188 106.8125 L 31.488281 106.792969 L 31.488281 106.777344 L 31.480469 106.738281 L 31.480469 106.714844 L 31.476562 106.695312 L 31.476562 106.667969 L 31.472656 106.644531 L 31.472656 106.59375 L 31.46875 106.566406 L 31.46875 106.539062 L 31.464844 106.511719 L 31.464844 106.484375 L 31.460938 106.453125 L 31.457031 106.425781 L 31.457031 106.363281 L 31.453125 106.335938 L 31.453125 106.273438 L 31.449219 106.242188 L 31.449219 106.175781 L 31.445312 106.144531 L 31.445312 106.046875 L 31.441406 106.011719 L 31.441406 105.78125 Z M 28.003906 103.480469 L 28.003906 103.753906 L 28.011719 103.882812 L 28.015625 104.007812 L 28.023438 104.132812 L 28.035156 104.25 L 28.042969 104.363281 L 28.058594 104.472656 L 28.074219 104.578125 L 28.089844 104.679688 L 28.109375 104.78125 L 28.128906 104.875 L 28.175781 105.054688 L 28.203125 105.136719 L 28.234375 105.21875 L 28.265625 105.296875 L 28.296875 105.371094 L 28.332031 105.441406 L 28.371094 105.507812 L 28.410156 105.570312 L 28.453125 105.628906 L 28.496094 105.683594 L 28.542969 105.734375 L 28.589844 105.78125 L 28.640625 105.828125 L 28.695312 105.871094 L 28.75 105.910156 L 28.804688 105.945312 L 28.863281 105.976562 L 28.925781 106.003906 L 28.988281 106.027344 L 29.054688 106.050781 L 29.125 106.070312 L 29.273438 106.101562 L 29.347656 106.113281 L 29.429688 106.121094 L 29.511719 106.125 L 29.683594 106.125 L 29.769531 106.121094 L 29.851562 106.113281 L 29.933594 106.101562 L 30.011719 106.089844 L 30.089844 106.074219 L 30.164062 106.054688 L 30.238281 106.03125 L 30.308594 106.007812 L 30.378906 105.980469 L 30.511719 105.917969 L 30.574219 105.878906 L 30.632812 105.839844 L 30.691406 105.792969 L 30.746094 105.746094 L 30.800781 105.695312 L 30.851562 105.640625 L 30.898438 105.582031 L 30.945312 105.519531 L 30.992188 105.453125 L 31.035156 105.382812 L 31.113281 105.226562 L 31.148438 105.144531 L 31.183594 105.058594 L 31.214844 104.96875 L 31.242188 104.875 L 31.269531 104.777344 L 31.296875 104.675781 L 31.316406 104.570312 L 31.339844 104.457031 L 31.355469 104.34375 L 31.371094 104.222656 L 31.386719 104.097656 L 31.394531 103.96875 L 31.402344 103.835938 L 31.410156 103.695312 L 31.414062 103.554688 L 31.414062 103.265625 L 31.410156 103.128906 L 31.402344 102.996094 L 31.394531 102.867188 L 31.386719 102.742188 L 31.371094 102.625 L 31.355469 102.511719 L 31.339844 102.402344 L 31.316406 102.296875 L 31.296875 102.195312 L 31.242188 102 L 31.214844 101.910156 L 31.183594 101.824219 L 31.148438 101.742188 L 31.113281 101.664062 L 31.074219 101.589844 L 31.035156 101.519531 L 30.992188 101.449219 L 30.945312 101.386719 L 30.898438 101.328125 L 30.796875 101.21875 L 30.6875 101.125 L 30.628906 101.082031 L 30.570312 101.042969 L 30.507812 101.007812 L 30.445312 100.976562 L 30.378906 100.949219 L 30.308594 100.925781 L 30.242188 100.902344 L 30.167969 100.878906 L 30.019531 100.847656 L 29.941406 100.835938 L 29.859375 100.824219 L 29.777344 100.816406 L 29.695312 100.8125 L 29.527344 100.8125 L 29.449219 100.820312 L 29.371094 100.824219 L 29.222656 100.847656 L 29.152344 100.863281 L 29.085938 100.882812 L 29.019531 100.90625 L 28.957031 100.929688 L 28.894531 100.957031 L 28.835938 100.988281 L 28.78125 101.019531 L 28.671875 101.097656 L 28.570312 101.191406 L 28.523438 101.242188 L 28.480469 101.296875 L 28.4375 101.355469 L 28.394531 101.417969 L 28.355469 101.484375 L 28.320312 101.554688 L 28.25 101.703125 L 28.222656 101.785156 L 28.191406 101.871094 L 28.164062 101.960938 L 28.117188 102.148438 L 28.097656 102.25 L 28.078125 102.355469 L 28.0625 102.460938 L 28.046875 102.574219 L 28.035156 102.691406 L 28.027344 102.8125 L 28.015625 102.9375 L 28.011719 103.066406 L 28.003906 103.199219 Z M 28.003906 103.480469 "/>
<path style=" stroke:none;fill-rule:evenodd;fill:rgb(30.196078%,30.196078%,30.196078%);fill-opacity:1;" d="M 28.007812 44.664062 L 28.007812 44.769531 L 28.011719 44.875 L 28.019531 44.976562 L 28.023438 45.078125 L 28.058594 45.371094 L 28.078125 45.464844 L 28.09375 45.554688 L 28.113281 45.648438 L 28.136719 45.734375 L 28.164062 45.820312 L 28.191406 45.902344 L 28.222656 45.984375 L 28.253906 46.0625 L 28.289062 46.136719 L 28.328125 46.210938 L 28.367188 46.28125 L 28.40625 46.347656 L 28.453125 46.414062 L 28.5 46.476562 L 28.550781 46.539062 L 28.601562 46.59375 L 28.65625 46.648438 L 28.773438 46.75 L 28.835938 46.792969 L 28.96875 46.878906 L 29.039062 46.914062 L 29.113281 46.949219 L 29.1875 46.976562 L 29.265625 47.003906 L 29.347656 47.027344 L 29.433594 47.046875 L 29.519531 47.0625 L 29.609375 47.074219 L 29.796875 47.089844 L 29.894531 47.089844 L 30.039062 47.085938 L 30.175781 47.078125 L 30.308594 47.0625 L 30.433594 47.042969 L 30.554688 47.015625 L 30.667969 46.984375 L 30.777344 46.945312 L 30.878906 46.902344 L 30.972656 46.851562 L 31.066406 46.796875 L 31.152344 46.734375 L 31.230469 46.671875 L 31.304688 46.605469 L 31.375 46.535156 L 31.4375 46.464844 L 31.492188 46.386719 L 31.542969 46.308594 L 31.589844 46.226562 L 31.628906 46.140625 L 31.664062 46.054688 L 32.652344 46.335938 L 32.605469 46.445312 L 32.582031 46.503906 L 32.554688 46.558594 L 32.492188 46.675781 L 32.460938 46.730469 L 32.425781 46.789062 L 32.390625 46.84375 L 32.351562 46.902344 L 32.273438 47.011719 L 32.179688 47.121094 L 32.132812 47.171875 L 32.023438 47.273438 L 31.96875 47.320312 L 31.910156 47.367188 L 31.847656 47.414062 L 31.78125 47.460938 L 31.710938 47.503906 L 31.640625 47.542969 L 31.566406 47.582031 L 31.488281 47.621094 L 31.40625 47.660156 L 31.320312 47.695312 L 31.140625 47.757812 L 31.046875 47.789062 L 30.949219 47.816406 L 30.847656 47.84375 L 30.742188 47.863281 L 30.632812 47.882812 L 30.519531 47.898438 L 30.402344 47.910156 L 30.28125 47.921875 L 30.15625 47.929688 L 30.027344 47.933594 L 29.894531 47.933594 L 29.601562 47.925781 L 29.324219 47.898438 L 29.058594 47.855469 L 28.808594 47.792969 L 28.574219 47.710938 L 28.351562 47.613281 L 28.144531 47.496094 L 27.953125 47.363281 L 27.773438 47.210938 L 27.609375 47.039062 L 27.460938 46.851562 L 27.328125 46.648438 L 27.210938 46.425781 L 27.109375 46.1875 L 27.023438 45.929688 L 26.953125 45.65625 L 26.898438 45.363281 L 26.859375 45.054688 L 26.835938 44.726562 L 26.828125 44.382812 L 26.828125 44.195312 L 26.835938 44.015625 L 26.847656 43.839844 L 26.863281 43.671875 L 26.886719 43.507812 L 26.914062 43.351562 L 26.945312 43.199219 L 26.980469 43.050781 L 27.019531 42.910156 L 27.066406 42.777344 L 27.113281 42.648438 L 27.167969 42.523438 L 27.222656 42.402344 L 27.28125 42.289062 L 27.347656 42.179688 L 27.414062 42.074219 L 27.484375 41.972656 L 27.554688 41.878906 L 27.632812 41.789062 L 27.714844 41.703125 L 27.796875 41.621094 L 27.886719 41.546875 L 27.972656 41.476562 L 28.066406 41.410156 L 28.160156 41.347656 L 28.257812 41.292969 L 28.359375 41.238281 L 28.460938 41.191406 L 28.570312 41.148438 L 28.675781 41.109375 L 28.789062 41.074219 L 28.898438 41.042969 L 29.015625 41.011719 L 29.128906 40.988281 L 29.246094 40.96875 L 29.363281 40.953125 L 29.484375 40.9375 L 29.726562 40.921875 L 29.851562 40.921875 L 30.019531 40.925781 L 30.179688 40.933594 L 30.335938 40.945312 L 30.488281 40.964844 L 30.632812 40.992188 L 30.769531 41.019531 L 30.902344 41.054688 L 31.03125 41.097656 L 31.152344 41.144531 L 31.269531 41.195312 L 31.382812 41.253906 L 31.492188 41.316406 L 31.59375 41.378906 L 31.695312 41.449219 L 31.789062 41.523438 L 31.878906 41.601562 L 32.042969 41.773438 L 32.117188 41.863281 L 32.191406 41.960938 L 32.257812 42.058594 L 32.382812 42.261719 L 32.4375 42.371094 L 32.488281 42.484375 L 32.535156 42.601562 L 32.578125 42.71875 L 32.617188 42.839844 L 32.652344 42.96875 L 32.683594 43.097656 L 32.738281 43.363281 L 32.761719 43.5 L 32.777344 43.636719 L 32.796875 43.78125 L 32.808594 43.921875 L 32.820312 44.066406 L 32.828125 44.214844 L 32.832031 44.363281 L 32.832031 44.664062 Z M 31.671875 43.804688 L 31.648438 43.59375 L 31.617188 43.398438 L 31.582031 43.214844 L 31.539062 43.039062 L 31.488281 42.878906 L 31.429688 42.730469 L 31.363281 42.589844 L 31.292969 42.464844 L 31.214844 42.351562 L 31.128906 42.246094 L 31.03125 42.152344 L 30.929688 42.070312 L 30.820312 41.996094 L 30.703125 41.929688 L 30.578125 41.875 L 30.445312 41.832031 L 30.304688 41.796875 L 30.15625 41.773438 L 30 41.757812 L 29.832031 41.753906 L 29.777344 41.753906 L 29.660156 41.761719 L 29.484375 41.785156 L 29.425781 41.796875 L 29.300781 41.828125 L 29.238281 41.847656 L 29.179688 41.867188 L 29.117188 41.886719 L 29.058594 41.910156 L 29 41.941406 L 28.945312 41.96875 L 28.886719 42.003906 L 28.832031 42.039062 L 28.777344 42.078125 L 28.722656 42.121094 L 28.671875 42.164062 L 28.617188 42.214844 L 28.570312 42.265625 L 28.519531 42.320312 L 28.472656 42.378906 L 28.429688 42.4375 L 28.34375 42.570312 L 28.265625 42.71875 L 28.226562 42.796875 L 28.191406 42.878906 L 28.160156 42.960938 L 28.132812 43.050781 L 28.105469 43.148438 L 28.085938 43.246094 L 28.066406 43.347656 L 28.050781 43.453125 L 28.035156 43.566406 L 28.027344 43.683594 L 28.019531 43.804688 Z M 31.671875 43.804688 "/>
<path style="fill:none;stroke-width:2.069291;stroke-linecap:butt;stroke-linejoin:round;stroke:rgb(20%,20%,20%);stroke-opacity:1;stroke-miterlimit:10;" d="M 36.589844 279.644531 L 40.574219 279.644531 "/>
<path style="fill:none;stroke-width:2.069291;stroke-linecap:butt;stroke-linejoin:round;stroke:rgb(20%,20%,20%);stroke-opacity:1;stroke-miterlimit:10;" d="M 36.589844 220.585938 L 40.574219 220.585938 "/>
<path style="fill:none;stroke-width:2.069291;stroke-linecap:butt;stroke-linejoin:round;stroke:rgb(20%,20%,20%);stroke-opacity:1;stroke-miterlimit:10;" d="M 36.589844 161.527344 L 40.574219 161.527344 "/>
<path style="fill:none;stroke-width:2.069291;stroke-linecap:butt;stroke-linejoin:round;stroke:rgb(20%,20%,20%);stroke-opacity:1;stroke-miterlimit:10;" d="M 36.589844 102.464844 L 40.574219 102.464844 "/>
<path style="fill:none;stroke-width:2.069291;stroke-linecap:butt;stroke-linejoin:round;stroke:rgb(20%,20%,20%);stroke-opacity:1;stroke-miterlimit:10;" d="M 36.589844 43.40625 L 40.574219 43.40625 "/>
<path style="fill:none;stroke-width:2.069291;stroke-linecap:butt;stroke-linejoin:round;stroke:rgb(0%,0%,0%);stroke-opacity:1;stroke-miterlimit:10;" d="M 40.574219 315.082031 L 496.03125 315.082031 "/>
<path style="fill:none;stroke-width:2.069291;stroke-linecap:butt;stroke-linejoin:round;stroke:rgb(20%,20%,20%);stroke-opacity:1;stroke-miterlimit:10;" d="M 114.488281 319.066406 L 114.488281 315.082031 "/>
<path style="fill:none;stroke-width:2.069291;stroke-linecap:butt;stroke-linejoin:round;stroke:rgb(20%,20%,20%);stroke-opacity:1;stroke-miterlimit:10;" d="M 239.738281 319.066406 L 239.738281 315.082031 "/>
<path style="fill:none;stroke-width:2.069291;stroke-linecap:butt;stroke-linejoin:round;stroke:rgb(20%,20%,20%);stroke-opacity:1;stroke-miterlimit:10;" d="M 364.988281 319.066406 L 364.988281 315.082031 "/>
<path style="fill:none;stroke-width:2.069291;stroke-linecap:butt;stroke-linejoin:round;stroke:rgb(20%,20%,20%);stroke-opacity:1;stroke-miterlimit:10;" d="M 490.242188 319.066406 L 490.242188 315.082031 "/>
<path style=" stroke:none;fill-rule:evenodd;fill:rgb(30.196078%,30.196078%,30.196078%);fill-opacity:1;" d="M 112.210938 326.652344 L 112.210938 326.902344 L 112.203125 327.144531 L 112.191406 327.378906 L 112.171875 327.605469 L 112.152344 327.824219 L 112.125 328.03125 L 112.09375 328.234375 L 112.054688 328.429688 L 112.015625 328.613281 L 111.96875 328.792969 L 111.917969 328.960938 L 111.867188 329.125 L 111.808594 329.28125 L 111.75 329.429688 L 111.683594 329.574219 L 111.617188 329.710938 L 111.546875 329.839844 L 111.472656 329.964844 L 111.394531 330.082031 L 111.3125 330.191406 L 111.226562 330.296875 L 111.140625 330.390625 L 111.050781 330.484375 L 110.957031 330.570312 L 110.863281 330.648438 L 110.761719 330.722656 L 110.660156 330.789062 L 110.554688 330.851562 L 110.449219 330.90625 L 110.222656 331 L 110.109375 331.039062 L 109.875 331.101562 L 109.753906 331.128906 L 109.632812 331.148438 L 109.511719 331.164062 L 109.386719 331.175781 L 109.261719 331.183594 L 109.007812 331.183594 L 108.882812 331.175781 L 108.757812 331.164062 L 108.636719 331.148438 L 108.515625 331.128906 L 108.394531 331.101562 L 108.277344 331.070312 L 108.164062 331.039062 L 108.046875 331 L 107.828125 330.90625 L 107.71875 330.851562 L 107.617188 330.789062 L 107.515625 330.722656 L 107.417969 330.648438 L 107.320312 330.570312 L 107.226562 330.484375 L 107.136719 330.390625 L 107.050781 330.296875 L 106.96875 330.191406 L 106.886719 330.082031 L 106.8125 329.964844 L 106.738281 329.84375 L 106.667969 329.714844 L 106.605469 329.578125 L 106.539062 329.433594 L 106.480469 329.285156 L 106.425781 329.128906 L 106.375 328.96875 L 106.324219 328.796875 L 106.28125 328.621094 L 106.242188 328.433594 L 106.207031 328.238281 L 106.175781 328.039062 L 106.152344 327.828125 L 106.128906 327.609375 L 106.113281 327.382812 L 106.101562 327.148438 L 106.09375 326.90625 L 106.09375 326.394531 L 106.101562 326.140625 L 106.113281 325.898438 L 106.128906 325.664062 L 106.152344 325.4375 L 106.175781 325.222656 L 106.207031 325.015625 L 106.242188 324.820312 L 106.28125 324.632812 L 106.324219 324.453125 L 106.375 324.28125 L 106.425781 324.117188 L 106.480469 323.960938 L 106.542969 323.8125 L 106.605469 323.667969 L 106.671875 323.53125 L 106.742188 323.402344 L 106.816406 323.28125 L 106.894531 323.167969 L 106.972656 323.058594 L 107.058594 322.960938 L 107.144531 322.867188 L 107.234375 322.777344 L 107.328125 322.695312 L 107.425781 322.621094 L 107.523438 322.550781 L 107.625 322.488281 L 107.730469 322.429688 L 107.839844 322.378906 L 107.949219 322.335938 L 108.0625 322.296875 L 108.179688 322.257812 L 108.296875 322.226562 L 108.414062 322.199219 L 108.535156 322.175781 L 108.660156 322.15625 L 108.785156 322.140625 L 109.042969 322.125 L 109.175781 322.121094 L 109.300781 322.125 L 109.421875 322.132812 L 109.546875 322.140625 L 109.664062 322.15625 L 109.785156 322.175781 L 109.902344 322.199219 L 110.019531 322.226562 L 110.132812 322.257812 L 110.246094 322.296875 L 110.355469 322.335938 L 110.464844 322.378906 L 110.570312 322.429688 L 110.675781 322.488281 L 110.777344 322.550781 L 110.875 322.621094 L 110.972656 322.695312 L 111.0625 322.777344 L 111.152344 322.867188 L 111.238281 322.960938 L 111.324219 323.058594 L 111.40625 323.167969 L 111.480469 323.28125 L 111.554688 323.402344 L 111.625 323.53125 L 111.691406 323.667969 L 111.757812 323.8125 L 111.816406 323.960938 L 111.871094 324.117188 L 111.925781 324.28125 L 111.972656 324.453125 L 112.019531 324.632812 L 112.058594 324.820312 L 112.09375 325.015625 L 112.125 325.222656 L 112.152344 325.4375 L 112.171875 325.664062 L 112.191406 325.898438 L 112.203125 326.140625 L 112.210938 326.394531 Z M 111.066406 326.652344 L 111.066406 326.449219 L 111.0625 326.25 L 111.054688 326.054688 L 111.046875 325.871094 L 111.035156 325.691406 L 111.023438 325.523438 L 111.007812 325.359375 L 110.988281 325.203125 L 110.964844 325.054688 L 110.941406 324.910156 L 110.917969 324.773438 L 110.886719 324.640625 L 110.855469 324.515625 L 110.824219 324.394531 L 110.789062 324.28125 L 110.710938 324.070312 L 110.667969 323.972656 L 110.621094 323.882812 L 110.574219 323.796875 L 110.523438 323.714844 L 110.472656 323.640625 L 110.417969 323.570312 L 110.359375 323.503906 L 110.300781 323.441406 L 110.242188 323.386719 L 110.175781 323.335938 L 110.113281 323.289062 L 110.042969 323.246094 L 109.902344 323.175781 L 109.753906 323.121094 L 109.679688 323.097656 L 109.597656 323.078125 L 109.519531 323.0625 L 109.433594 323.050781 L 109.351562 323.042969 L 109.261719 323.039062 L 109.175781 323.035156 L 109.078125 323.039062 L 108.988281 323.042969 L 108.898438 323.050781 L 108.8125 323.0625 L 108.726562 323.078125 L 108.644531 323.097656 L 108.5625 323.121094 L 108.484375 323.148438 L 108.410156 323.175781 L 108.335938 323.210938 L 108.265625 323.246094 L 108.195312 323.289062 L 108.128906 323.335938 L 108.0625 323.390625 L 108.003906 323.445312 L 107.941406 323.507812 L 107.882812 323.574219 L 107.828125 323.644531 L 107.773438 323.722656 L 107.722656 323.804688 L 107.675781 323.890625 L 107.632812 323.980469 L 107.589844 324.078125 L 107.546875 324.179688 L 107.511719 324.289062 L 107.472656 324.402344 L 107.441406 324.523438 L 107.410156 324.648438 L 107.382812 324.78125 L 107.355469 324.917969 L 107.332031 325.058594 L 107.308594 325.207031 L 107.292969 325.363281 L 107.273438 325.527344 L 107.261719 325.699219 L 107.25 325.875 L 107.242188 326.058594 L 107.234375 326.25 L 107.230469 326.449219 L 107.230469 326.855469 L 107.234375 327.046875 L 107.242188 327.234375 L 107.25 327.414062 L 107.261719 327.585938 L 107.273438 327.753906 L 107.292969 327.914062 L 107.308594 328.070312 L 107.332031 328.21875 L 107.355469 328.359375 L 107.382812 328.496094 L 107.414062 328.628906 L 107.445312 328.753906 L 107.476562 328.871094 L 107.515625 328.988281 L 107.554688 329.097656 L 107.59375 329.199219 L 107.636719 329.296875 L 107.683594 329.390625 L 107.730469 329.480469 L 107.78125 329.5625 L 107.890625 329.710938 L 107.945312 329.777344 L 108.007812 329.839844 L 108.070312 329.898438 L 108.132812 329.953125 L 108.265625 330.046875 L 108.335938 330.085938 L 108.410156 330.121094 L 108.484375 330.152344 L 108.558594 330.179688 L 108.636719 330.203125 L 108.71875 330.222656 L 108.800781 330.238281 L 108.882812 330.25 L 108.96875 330.257812 L 109.058594 330.265625 L 109.238281 330.265625 L 109.324219 330.257812 L 109.40625 330.25 L 109.488281 330.238281 L 109.570312 330.222656 L 109.648438 330.203125 L 109.726562 330.179688 L 109.804688 330.152344 L 109.875 330.121094 L 109.949219 330.085938 L 110.019531 330.046875 L 110.152344 329.953125 L 110.214844 329.898438 L 110.277344 329.839844 L 110.335938 329.777344 L 110.390625 329.710938 L 110.5 329.5625 L 110.550781 329.480469 L 110.597656 329.390625 L 110.644531 329.296875 L 110.6875 329.199219 L 110.730469 329.097656 L 110.769531 328.988281 L 110.839844 328.753906 L 110.871094 328.628906 L 110.902344 328.496094 L 110.929688 328.359375 L 110.957031 328.21875 L 110.980469 328.070312 L 111 327.914062 L 111.019531 327.753906 L 111.035156 327.585938 L 111.046875 327.414062 L 111.054688 327.234375 L 111.0625 327.046875 L 111.066406 326.855469 Z M 111.066406 326.652344 "/>
<path style=" stroke:none;fill-rule:evenodd;fill:rgb(30.196078%,30.196078%,30.196078%);fill-opacity:1;" d="M 113.878906 331.058594 L 113.878906 329.691406 L 115.097656 329.691406 L 115.097656 331.058594 Z M 113.878906 331.058594 "/>
<path style=" stroke:none;fill-rule:evenodd;fill:rgb(30.196078%,30.196078%,30.196078%);fill-opacity:1;" d="M 122.847656 328.191406 L 122.847656 328.324219 L 122.839844 328.453125 L 122.832031 328.578125 L 122.816406 328.703125 L 122.800781 328.824219 L 122.777344 328.945312 L 122.722656 329.179688 L 122.6875 329.292969 L 122.648438 329.402344 L 122.605469 329.511719 L 122.5625 329.617188 L 122.511719 329.722656 L 122.402344 329.917969 L 122.339844 330.011719 L 122.273438 330.101562 L 122.132812 330.273438 L 122.054688 330.355469 L 121.890625 330.503906 L 121.800781 330.574219 L 121.710938 330.640625 L 121.613281 330.703125 L 121.511719 330.765625 L 121.410156 330.820312 L 121.191406 330.921875 L 120.957031 331.007812 L 120.832031 331.046875 L 120.707031 331.078125 L 120.578125 331.105469 L 120.445312 331.128906 L 120.308594 331.152344 L 120.167969 331.164062 L 120.023438 331.175781 L 119.875 331.183594 L 119.585938 331.183594 L 119.453125 331.179688 L 119.324219 331.171875 L 119.195312 331.160156 L 118.953125 331.128906 L 118.726562 331.082031 L 118.617188 331.054688 L 118.511719 331.023438 L 118.410156 330.988281 L 118.3125 330.953125 L 118.125 330.875 L 118.039062 330.832031 L 117.953125 330.785156 L 117.871094 330.738281 L 117.792969 330.6875 L 117.714844 330.632812 L 117.644531 330.578125 L 117.574219 330.519531 L 117.507812 330.460938 L 117.441406 330.398438 L 117.378906 330.335938 L 117.324219 330.269531 L 117.265625 330.199219 L 117.164062 330.058594 L 117.117188 329.984375 L 117.074219 329.910156 L 116.996094 329.753906 L 116.960938 329.675781 L 116.929688 329.597656 L 116.898438 329.515625 L 116.871094 329.433594 L 116.84375 329.347656 L 116.820312 329.265625 L 116.800781 329.179688 L 116.78125 329.089844 L 117.917969 328.960938 L 117.933594 329.011719 L 117.949219 329.058594 L 117.980469 329.160156 L 118 329.207031 L 118.019531 329.257812 L 118.042969 329.304688 L 118.0625 329.351562 L 118.085938 329.398438 L 118.113281 329.449219 L 118.136719 329.492188 L 118.164062 329.539062 L 118.257812 329.667969 L 118.292969 329.710938 L 118.328125 329.75 L 118.40625 329.828125 L 118.449219 329.867188 L 118.492188 329.902344 L 118.539062 329.9375 L 118.691406 330.03125 L 118.800781 330.085938 L 118.859375 330.113281 L 118.917969 330.136719 L 118.980469 330.160156 L 119.113281 330.199219 L 119.183594 330.214844 L 119.332031 330.238281 L 119.410156 330.25 L 119.492188 330.257812 L 119.574219 330.261719 L 119.660156 330.265625 L 119.835938 330.265625 L 119.921875 330.261719 L 120.085938 330.246094 L 120.167969 330.234375 L 120.246094 330.21875 L 120.320312 330.203125 L 120.398438 330.183594 L 120.46875 330.160156 L 120.542969 330.136719 L 120.613281 330.105469 L 120.746094 330.042969 L 120.8125 330.003906 L 120.871094 329.964844 L 120.933594 329.925781 L 120.988281 329.882812 L 121.042969 329.835938 L 121.097656 329.785156 L 121.199219 329.683594 L 121.292969 329.566406 L 121.335938 329.507812 L 121.375 329.441406 L 121.414062 329.378906 L 121.484375 329.238281 L 121.515625 329.167969 L 121.542969 329.089844 L 121.570312 329.015625 L 121.59375 328.933594 L 121.613281 328.851562 L 121.628906 328.769531 L 121.644531 328.683594 L 121.667969 328.503906 L 121.675781 328.410156 L 121.679688 328.3125 L 121.679688 328.136719 L 121.675781 328.058594 L 121.660156 327.902344 L 121.648438 327.828125 L 121.632812 327.753906 L 121.617188 327.683594 L 121.597656 327.609375 L 121.574219 327.542969 L 121.550781 327.472656 L 121.523438 327.40625 L 121.492188 327.339844 L 121.460938 327.277344 L 121.390625 327.152344 L 121.351562 327.097656 L 121.308594 327.039062 L 121.265625 326.988281 L 121.222656 326.933594 L 121.125 326.835938 L 121.070312 326.789062 L 120.960938 326.703125 L 120.902344 326.664062 L 120.839844 326.625 L 120.777344 326.589844 L 120.644531 326.527344 L 120.574219 326.496094 L 120.503906 326.472656 L 120.429688 326.449219 L 120.355469 326.429688 L 120.277344 326.410156 L 120.199219 326.394531 L 120.035156 326.371094 L 119.863281 326.363281 L 119.773438 326.359375 L 119.71875 326.359375 L 119.664062 326.363281 L 119.609375 326.363281 L 119.554688 326.367188 L 119.503906 326.371094 L 119.402344 326.386719 L 119.351562 326.390625 L 119.304688 326.402344 L 119.253906 326.410156 L 119.160156 326.433594 L 119.117188 326.445312 L 119.070312 326.457031 L 119.027344 326.46875 L 118.980469 326.484375 L 118.851562 326.53125 L 118.8125 326.546875 L 118.734375 326.585938 L 118.695312 326.601562 L 118.65625 326.621094 L 118.621094 326.644531 L 118.582031 326.664062 L 118.546875 326.6875 L 118.511719 326.707031 L 118.441406 326.753906 L 118.222656 326.917969 L 118.195312 326.941406 L 118.164062 326.96875 L 118.136719 326.992188 L 117.035156 326.992188 L 117.332031 322.253906 L 122.335938 322.253906 L 122.335938 323.210938 L 118.355469 323.210938 L 118.1875 326.003906 L 118.246094 325.957031 L 118.378906 325.871094 L 118.449219 325.832031 L 118.523438 325.789062 L 118.601562 325.75 L 118.679688 325.714844 L 118.761719 325.679688 L 118.847656 325.644531 L 118.9375 325.609375 L 119.027344 325.578125 L 119.222656 325.523438 L 119.324219 325.503906 L 119.429688 325.484375 L 119.539062 325.46875 L 119.648438 325.457031 L 119.765625 325.449219 L 119.882812 325.445312 L 120.003906 325.441406 L 120.136719 325.445312 L 120.261719 325.449219 L 120.386719 325.460938 L 120.507812 325.472656 L 120.628906 325.492188 L 120.746094 325.515625 L 120.859375 325.539062 L 120.972656 325.570312 L 121.082031 325.605469 L 121.1875 325.640625 L 121.390625 325.726562 L 121.488281 325.777344 L 121.582031 325.828125 L 121.671875 325.882812 L 121.761719 325.941406 L 121.84375 326.003906 L 121.925781 326.070312 L 122.003906 326.136719 L 122.082031 326.210938 L 122.222656 326.359375 L 122.347656 326.523438 L 122.40625 326.609375 L 122.460938 326.695312 L 122.515625 326.789062 L 122.5625 326.882812 L 122.648438 327.078125 L 122.6875 327.179688 L 122.722656 327.285156 L 122.75 327.390625 L 122.777344 327.5 L 122.800781 327.609375 L 122.832031 327.835938 L 122.847656 328.070312 Z M 122.847656 328.191406 "/>
<path style=" stroke:none;fill-rule:evenodd;fill:rgb(30.196078%,30.196078%,30.196078%);fill-opacity:1;" d="M 231.816406 331.058594 L 231.816406 330.105469 L 234.0625 330.105469 L 234.0625 323.328125 L 232.074219 324.746094 L 232.074219 323.683594 L 234.15625 322.253906 L 235.191406 322.253906 L 235.191406 330.105469 L 237.335938 330.105469 L 237.335938 331.058594 Z M 231.816406 331.058594 "/>
<path style=" stroke:none;fill-rule:evenodd;fill:rgb(30.196078%,30.196078%,30.196078%);fill-opacity:1;" d="M 239.128906 331.058594 L 239.128906 329.691406 L 240.347656 329.691406 L 240.347656 331.058594 Z M 239.128906 331.058594 "/>
<path style=" stroke:none;fill-rule:evenodd;fill:rgb(30.196078%,30.196078%,30.196078%);fill-opacity:1;" d="M 248.136719 326.652344 L 248.132812 326.902344 L 248.128906 327.144531 L 248.113281 327.378906 L 248.097656 327.605469 L 248.074219 327.824219 L 248.050781 328.03125 L 248.015625 328.234375 L 247.980469 328.429688 L 247.9375 328.613281 L 247.894531 328.792969 L 247.84375 328.960938 L 247.789062 329.125 L 247.734375 329.28125 L 247.675781 329.429688 L 247.609375 329.574219 L 247.542969 329.710938 L 247.472656 329.839844 L 247.398438 329.964844 L 247.320312 330.082031 L 247.238281 330.191406 L 247.152344 330.296875 L 247.066406 330.390625 L 246.976562 330.484375 L 246.882812 330.570312 L 246.785156 330.648438 L 246.6875 330.722656 L 246.585938 330.789062 L 246.480469 330.851562 L 246.371094 330.90625 L 246.261719 330.953125 L 246.148438 331 L 246.035156 331.039062 L 245.800781 331.101562 L 245.679688 331.128906 L 245.558594 331.148438 L 245.4375 331.164062 L 245.3125 331.175781 L 245.1875 331.183594 L 244.933594 331.183594 L 244.808594 331.175781 L 244.683594 331.164062 L 244.5625 331.148438 L 244.441406 331.128906 L 244.320312 331.101562 L 244.085938 331.039062 L 243.972656 331 L 243.863281 330.953125 L 243.75 330.90625 L 243.644531 330.851562 L 243.539062 330.789062 L 243.441406 330.722656 L 243.339844 330.648438 L 243.246094 330.570312 L 243.152344 330.484375 L 243.0625 330.390625 L 242.976562 330.296875 L 242.894531 330.191406 L 242.8125 330.082031 L 242.738281 329.964844 L 242.664062 329.84375 L 242.59375 329.714844 L 242.527344 329.578125 L 242.464844 329.433594 L 242.40625 329.285156 L 242.351562 329.128906 L 242.296875 328.96875 L 242.25 328.796875 L 242.207031 328.621094 L 242.164062 328.433594 L 242.132812 328.238281 L 242.101562 328.039062 L 242.074219 327.828125 L 242.054688 327.609375 L 242.039062 327.382812 L 242.027344 327.148438 L 242.019531 326.90625 L 242.019531 326.394531 L 242.027344 326.140625 L 242.039062 325.898438 L 242.054688 325.664062 L 242.074219 325.4375 L 242.101562 325.222656 L 242.132812 325.015625 L 242.164062 324.820312 L 242.207031 324.632812 L 242.25 324.453125 L 242.296875 324.28125 L 242.351562 324.117188 L 242.40625 323.960938 L 242.46875 323.8125 L 242.53125 323.667969 L 242.597656 323.53125 L 242.667969 323.402344 L 242.742188 323.28125 L 242.820312 323.167969 L 242.898438 323.058594 L 242.984375 322.960938 L 243.070312 322.867188 L 243.160156 322.777344 L 243.253906 322.695312 L 243.347656 322.621094 L 243.449219 322.550781 L 243.550781 322.488281 L 243.65625 322.429688 L 243.761719 322.378906 L 243.875 322.335938 L 244.101562 322.257812 L 244.222656 322.226562 L 244.339844 322.199219 L 244.460938 322.175781 L 244.585938 322.15625 L 244.710938 322.140625 L 244.96875 322.125 L 245.097656 322.121094 L 245.226562 322.125 L 245.46875 322.140625 L 245.589844 322.15625 L 245.710938 322.175781 L 245.828125 322.199219 L 245.941406 322.226562 L 246.058594 322.257812 L 246.167969 322.296875 L 246.28125 322.335938 L 246.390625 322.378906 L 246.496094 322.429688 L 246.601562 322.488281 L 246.703125 322.550781 L 246.800781 322.621094 L 246.894531 322.695312 L 246.988281 322.777344 L 247.078125 322.867188 L 247.164062 322.960938 L 247.25 323.058594 L 247.328125 323.167969 L 247.40625 323.28125 L 247.480469 323.402344 L 247.550781 323.53125 L 247.617188 323.667969 L 247.679688 323.8125 L 247.742188 323.960938 L 247.796875 324.117188 L 247.851562 324.28125 L 247.898438 324.453125 L 247.945312 324.632812 L 247.984375 324.820312 L 248.019531 325.015625 L 248.050781 325.222656 L 248.078125 325.4375 L 248.097656 325.664062 L 248.117188 325.898438 L 248.128906 326.140625 L 248.132812 326.394531 Z M 246.992188 326.652344 L 246.992188 326.449219 L 246.988281 326.25 L 246.980469 326.054688 L 246.972656 325.871094 L 246.960938 325.691406 L 246.949219 325.523438 L 246.933594 325.359375 L 246.914062 325.203125 L 246.890625 325.054688 L 246.867188 324.910156 L 246.839844 324.773438 L 246.8125 324.640625 L 246.78125 324.515625 L 246.75 324.394531 L 246.714844 324.28125 L 246.636719 324.070312 L 246.59375 323.972656 L 246.546875 323.882812 L 246.5 323.796875 L 246.449219 323.714844 L 246.398438 323.640625 L 246.34375 323.570312 L 246.285156 323.503906 L 246.226562 323.441406 L 246.167969 323.386719 L 246.101562 323.335938 L 246.039062 323.289062 L 245.96875 323.246094 L 245.828125 323.175781 L 245.679688 323.121094 L 245.601562 323.097656 L 245.523438 323.078125 L 245.441406 323.0625 L 245.359375 323.050781 L 245.273438 323.042969 L 245.1875 323.039062 L 245.097656 323.035156 L 245.003906 323.039062 L 244.914062 323.042969 L 244.824219 323.050781 L 244.738281 323.0625 L 244.652344 323.078125 L 244.570312 323.097656 L 244.488281 323.121094 L 244.410156 323.148438 L 244.335938 323.175781 L 244.261719 323.210938 L 244.191406 323.246094 L 244.121094 323.289062 L 244.054688 323.335938 L 243.988281 323.390625 L 243.925781 323.445312 L 243.867188 323.507812 L 243.808594 323.574219 L 243.753906 323.644531 L 243.699219 323.722656 L 243.648438 323.804688 L 243.601562 323.890625 L 243.554688 323.980469 L 243.511719 324.078125 L 243.472656 324.179688 L 243.433594 324.289062 L 243.398438 324.402344 L 243.367188 324.523438 L 243.335938 324.648438 L 243.308594 324.78125 L 243.28125 324.917969 L 243.257812 325.058594 L 243.234375 325.207031 L 243.214844 325.363281 L 243.199219 325.527344 L 243.1875 325.699219 L 243.175781 325.875 L 243.167969 326.058594 L 243.160156 326.25 L 243.15625 326.449219 L 243.15625 326.855469 L 243.160156 327.046875 L 243.167969 327.234375 L 243.175781 327.414062 L 243.1875 327.585938 L 243.199219 327.753906 L 243.214844 327.914062 L 243.234375 328.070312 L 243.257812 328.21875 L 243.28125 328.359375 L 243.308594 328.496094 L 243.335938 328.628906 L 243.371094 328.753906 L 243.402344 328.871094 L 243.441406 328.988281 L 243.476562 329.097656 L 243.519531 329.199219 L 243.5625 329.296875 L 243.609375 329.390625 L 243.65625 329.480469 L 243.707031 329.5625 L 243.757812 329.636719 L 243.816406 329.710938 L 243.871094 329.777344 L 243.992188 329.898438 L 244.058594 329.953125 L 244.191406 330.046875 L 244.261719 330.085938 L 244.332031 330.121094 L 244.410156 330.152344 L 244.484375 330.179688 L 244.5625 330.203125 L 244.644531 330.222656 L 244.726562 330.238281 L 244.808594 330.25 L 244.894531 330.257812 L 244.984375 330.265625 L 245.160156 330.265625 L 245.25 330.257812 L 245.332031 330.25 L 245.414062 330.238281 L 245.496094 330.222656 L 245.574219 330.203125 L 245.652344 330.179688 L 245.726562 330.152344 L 245.800781 330.121094 L 245.875 330.085938 L 245.945312 330.046875 L 246.078125 329.953125 L 246.140625 329.898438 L 246.203125 329.839844 L 246.261719 329.777344 L 246.316406 329.710938 L 246.425781 329.5625 L 246.472656 329.480469 L 246.523438 329.390625 L 246.570312 329.296875 L 246.613281 329.199219 L 246.65625 329.097656 L 246.695312 328.988281 L 246.765625 328.753906 L 246.796875 328.628906 L 246.828125 328.496094 L 246.855469 328.359375 L 246.882812 328.21875 L 246.90625 328.070312 L 246.925781 327.914062 L 246.945312 327.753906 L 246.957031 327.585938 L 246.972656 327.414062 L 246.980469 327.234375 L 246.988281 327.046875 L 246.992188 326.855469 Z M 246.992188 326.652344 "/>
<path style=" stroke:none;fill-rule:evenodd;fill:rgb(30.196078%,30.196078%,30.196078%);fill-opacity:1;" d="M 357.066406 331.058594 L 357.066406 330.105469 L 359.3125 330.105469 L 359.3125 323.328125 L 357.324219 324.746094 L 357.324219 323.683594 L 359.40625 322.253906 L 360.441406 322.253906 L 360.441406 330.105469 L 362.585938 330.105469 L 362.585938 331.058594 Z M 357.066406 331.058594 "/>
<path style=" stroke:none;fill-rule:evenodd;fill:rgb(30.196078%,30.196078%,30.196078%);fill-opacity:1;" d="M 364.378906 331.058594 L 364.378906 329.691406 L 365.597656 329.691406 L 365.597656 331.058594 Z M 364.378906 331.058594 "/>
<path style=" stroke:none;fill-rule:evenodd;fill:rgb(30.196078%,30.196078%,30.196078%);fill-opacity:1;" d="M 373.347656 328.191406 L 373.347656 328.324219 L 373.339844 328.453125 L 373.332031 328.578125 L 373.316406 328.703125 L 373.300781 328.824219 L 373.277344 328.945312 L 373.222656 329.179688 L 373.1875 329.292969 L 373.109375 329.511719 L 373.0625 329.617188 L 373.011719 329.722656 L 372.902344 329.917969 L 372.839844 330.011719 L 372.773438 330.101562 L 372.707031 330.1875 L 372.632812 330.273438 L 372.554688 330.355469 L 372.476562 330.429688 L 372.390625 330.503906 L 372.300781 330.574219 L 372.210938 330.640625 L 372.113281 330.703125 L 372.011719 330.765625 L 371.910156 330.820312 L 371.691406 330.921875 L 371.457031 331.007812 L 371.335938 331.046875 L 371.207031 331.078125 L 371.078125 331.105469 L 370.945312 331.128906 L 370.808594 331.152344 L 370.667969 331.164062 L 370.523438 331.175781 L 370.375 331.183594 L 370.085938 331.183594 L 369.953125 331.179688 L 369.824219 331.171875 L 369.699219 331.160156 L 369.574219 331.144531 L 369.453125 331.128906 L 369.226562 331.082031 L 369.117188 331.054688 L 369.011719 331.023438 L 368.910156 330.988281 L 368.8125 330.953125 L 368.71875 330.914062 L 368.628906 330.875 L 368.539062 330.832031 L 368.453125 330.785156 L 368.371094 330.738281 L 368.292969 330.6875 L 368.214844 330.632812 L 368.144531 330.578125 L 368.074219 330.519531 L 368.007812 330.460938 L 367.941406 330.398438 L 367.882812 330.335938 L 367.824219 330.269531 L 367.765625 330.199219 L 367.664062 330.058594 L 367.617188 329.984375 L 367.574219 329.910156 L 367.496094 329.753906 L 367.460938 329.675781 L 367.429688 329.597656 L 367.398438 329.515625 L 367.371094 329.433594 L 367.34375 329.347656 L 367.320312 329.265625 L 367.300781 329.179688 L 367.28125 329.089844 L 368.417969 328.960938 L 368.433594 329.011719 L 368.449219 329.058594 L 368.480469 329.160156 L 368.5 329.207031 L 368.519531 329.257812 L 368.542969 329.304688 L 368.5625 329.351562 L 368.585938 329.398438 L 368.613281 329.449219 L 368.636719 329.492188 L 368.664062 329.539062 L 368.757812 329.667969 L 368.792969 329.710938 L 368.828125 329.75 L 368.90625 329.828125 L 368.949219 329.867188 L 368.996094 329.902344 L 369.039062 329.9375 L 369.191406 330.03125 L 369.300781 330.085938 L 369.359375 330.113281 L 369.417969 330.136719 L 369.480469 330.160156 L 369.613281 330.199219 L 369.683594 330.214844 L 369.832031 330.238281 L 369.910156 330.25 L 369.992188 330.257812 L 370.074219 330.261719 L 370.160156 330.265625 L 370.335938 330.265625 L 370.421875 330.261719 L 370.585938 330.246094 L 370.667969 330.234375 L 370.746094 330.21875 L 370.820312 330.203125 L 370.898438 330.183594 L 370.972656 330.160156 L 371.042969 330.136719 L 371.113281 330.105469 L 371.246094 330.042969 L 371.3125 330.003906 L 371.371094 329.964844 L 371.433594 329.925781 L 371.488281 329.882812 L 371.546875 329.835938 L 371.699219 329.683594 L 371.792969 329.566406 L 371.835938 329.507812 L 371.875 329.441406 L 371.914062 329.378906 L 371.984375 329.238281 L 372.015625 329.167969 L 372.042969 329.089844 L 372.070312 329.015625 L 372.09375 328.933594 L 372.132812 328.769531 L 372.144531 328.683594 L 372.160156 328.59375 L 372.167969 328.503906 L 372.175781 328.410156 L 372.179688 328.3125 L 372.179688 328.136719 L 372.175781 328.058594 L 372.160156 327.902344 L 372.148438 327.828125 L 372.132812 327.753906 L 372.117188 327.683594 L 372.097656 327.609375 L 372.074219 327.542969 L 372.050781 327.472656 L 372.023438 327.40625 L 371.992188 327.339844 L 371.960938 327.277344 L 371.890625 327.152344 L 371.851562 327.097656 L 371.8125 327.039062 L 371.765625 326.988281 L 371.722656 326.933594 L 371.625 326.835938 L 371.574219 326.789062 L 371.519531 326.746094 L 371.460938 326.703125 L 371.402344 326.664062 L 371.339844 326.625 L 371.277344 326.589844 L 371.144531 326.527344 L 371.074219 326.496094 L 371.003906 326.472656 L 370.929688 326.449219 L 370.855469 326.429688 L 370.777344 326.410156 L 370.699219 326.394531 L 370.535156 326.371094 L 370.363281 326.363281 L 370.273438 326.359375 L 370.21875 326.359375 L 370.164062 326.363281 L 370.109375 326.363281 L 370.054688 326.367188 L 370.003906 326.371094 L 369.902344 326.386719 L 369.851562 326.390625 L 369.804688 326.402344 L 369.753906 326.410156 L 369.660156 326.433594 L 369.617188 326.445312 L 369.570312 326.457031 L 369.527344 326.46875 L 369.480469 326.484375 L 369.394531 326.515625 L 369.355469 326.53125 L 369.3125 326.546875 L 369.234375 326.585938 L 369.195312 326.601562 L 369.15625 326.621094 L 369.121094 326.644531 L 369.082031 326.664062 L 369.046875 326.6875 L 369.011719 326.707031 L 368.941406 326.753906 L 368.753906 326.894531 L 368.726562 326.917969 L 368.695312 326.941406 L 368.664062 326.96875 L 368.636719 326.992188 L 367.535156 326.992188 L 367.832031 322.253906 L 372.835938 322.253906 L 372.835938 323.210938 L 368.855469 323.210938 L 368.6875 326.003906 L 368.75 325.957031 L 368.8125 325.914062 L 368.878906 325.871094 L 368.949219 325.832031 L 369.023438 325.789062 L 369.101562 325.75 L 369.179688 325.714844 L 369.261719 325.679688 L 369.347656 325.644531 L 369.4375 325.609375 L 369.527344 325.578125 L 369.722656 325.523438 L 369.824219 325.503906 L 369.929688 325.484375 L 370.039062 325.46875 L 370.148438 325.457031 L 370.265625 325.449219 L 370.382812 325.445312 L 370.503906 325.441406 L 370.636719 325.445312 L 370.761719 325.449219 L 370.886719 325.460938 L 371.007812 325.472656 L 371.128906 325.492188 L 371.246094 325.515625 L 371.359375 325.539062 L 371.472656 325.570312 L 371.582031 325.605469 L 371.6875 325.640625 L 371.890625 325.726562 L 371.988281 325.777344 L 372.082031 325.828125 L 372.171875 325.882812 L 372.261719 325.941406 L 372.34375 326.003906 L 372.425781 326.070312 L 372.503906 326.136719 L 372.582031 326.210938 L 372.722656 326.359375 L 372.847656 326.523438 L 372.90625 326.609375 L 372.960938 326.695312 L 373.015625 326.789062 L 373.0625 326.882812 L 373.109375 326.980469 L 373.148438 327.078125 L 373.1875 327.179688 L 373.222656 327.285156 L 373.25 327.390625 L 373.277344 327.5 L 373.300781 327.609375 L 373.332031 327.835938 L 373.347656 328.070312 Z M 373.347656 328.191406 "/>
<path style=" stroke:none;fill-rule:evenodd;fill:rgb(30.196078%,30.196078%,30.196078%);fill-opacity:1;" d="M 481.988281 331.058594 L 481.988281 330.265625 L 482.050781 330.121094 L 482.121094 329.980469 L 482.191406 329.84375 L 482.339844 329.578125 L 482.417969 329.453125 L 482.5 329.328125 L 482.585938 329.207031 L 482.671875 329.09375 L 482.761719 328.980469 L 482.855469 328.867188 L 482.949219 328.757812 L 483.042969 328.652344 L 483.140625 328.546875 L 483.234375 328.445312 L 483.332031 328.34375 L 483.429688 328.246094 L 483.53125 328.152344 L 483.628906 328.058594 L 483.730469 327.964844 L 483.933594 327.785156 L 484.035156 327.699219 L 484.132812 327.613281 L 484.234375 327.527344 L 484.335938 327.445312 L 484.53125 327.28125 L 484.632812 327.199219 L 484.730469 327.121094 L 484.828125 327.046875 L 485.023438 326.890625 L 485.113281 326.8125 L 485.207031 326.734375 L 485.296875 326.65625 L 485.382812 326.582031 L 485.46875 326.503906 L 485.632812 326.347656 L 485.710938 326.269531 L 485.785156 326.191406 L 485.855469 326.113281 L 485.925781 326.03125 L 485.992188 325.949219 L 486.054688 325.871094 L 486.113281 325.785156 L 486.171875 325.703125 L 486.222656 325.621094 L 486.273438 325.535156 L 486.320312 325.449219 L 486.363281 325.359375 L 486.402344 325.269531 L 486.433594 325.175781 L 486.460938 325.082031 L 486.484375 324.984375 L 486.503906 324.886719 L 486.515625 324.785156 L 486.523438 324.679688 L 486.523438 324.5 L 486.519531 324.425781 L 486.515625 324.355469 L 486.507812 324.289062 L 486.484375 324.15625 L 486.453125 324.03125 L 486.433594 323.972656 L 486.414062 323.917969 L 486.390625 323.859375 L 486.363281 323.804688 L 486.335938 323.753906 L 486.273438 323.652344 L 486.242188 323.605469 L 486.207031 323.558594 L 486.167969 323.515625 L 486.085938 323.433594 L 486 323.363281 L 485.953125 323.328125 L 485.851562 323.265625 L 485.800781 323.238281 L 485.691406 323.191406 L 485.632812 323.167969 L 485.515625 323.128906 L 485.328125 323.082031 L 485.265625 323.074219 L 485.199219 323.0625 L 485.128906 323.058594 L 485.0625 323.050781 L 484.992188 323.050781 L 484.917969 323.046875 L 484.851562 323.050781 L 484.785156 323.050781 L 484.71875 323.054688 L 484.65625 323.0625 L 484.589844 323.070312 L 484.464844 323.09375 L 484.339844 323.125 L 484.28125 323.140625 L 484.222656 323.160156 L 484.164062 323.183594 L 484.054688 323.230469 L 484.003906 323.257812 L 483.949219 323.289062 L 483.898438 323.320312 L 483.851562 323.351562 L 483.757812 323.421875 L 483.710938 323.460938 L 483.667969 323.5 L 483.625 323.542969 L 483.585938 323.589844 L 483.546875 323.632812 L 483.507812 323.683594 L 483.472656 323.730469 L 483.4375 323.78125 L 483.375 323.890625 L 483.347656 323.949219 L 483.320312 324.003906 L 483.296875 324.066406 L 483.277344 324.125 L 483.257812 324.191406 L 483.238281 324.253906 L 483.222656 324.324219 L 483.207031 324.390625 L 483.195312 324.460938 L 483.1875 324.535156 L 482.039062 324.429688 L 482.050781 324.335938 L 482.066406 324.242188 L 482.085938 324.148438 L 482.105469 324.058594 L 482.160156 323.878906 L 482.222656 323.707031 L 482.300781 323.535156 L 482.386719 323.371094 L 482.4375 323.292969 L 482.488281 323.21875 L 482.546875 323.144531 L 482.601562 323.070312 L 482.664062 323 L 482.796875 322.867188 L 482.867188 322.804688 L 482.941406 322.742188 L 483.097656 322.625 L 483.179688 322.570312 L 483.265625 322.519531 L 483.445312 322.425781 L 483.539062 322.382812 L 483.636719 322.34375 L 483.738281 322.304688 L 483.839844 322.269531 L 483.949219 322.238281 L 484.058594 322.210938 L 484.171875 322.1875 L 484.289062 322.167969 L 484.410156 322.152344 L 484.53125 322.140625 L 484.65625 322.128906 L 484.785156 322.125 L 484.917969 322.121094 L 485.175781 322.128906 L 485.300781 322.136719 L 485.421875 322.148438 L 485.539062 322.160156 L 485.765625 322.199219 L 485.875 322.222656 L 485.984375 322.25 L 486.085938 322.277344 L 486.1875 322.3125 L 486.285156 322.347656 L 486.378906 322.386719 L 486.472656 322.429688 L 486.558594 322.472656 L 486.644531 322.519531 L 486.726562 322.570312 L 486.804688 322.625 L 486.878906 322.683594 L 486.949219 322.742188 L 487.019531 322.804688 L 487.085938 322.871094 L 487.148438 322.9375 L 487.207031 323.007812 L 487.265625 323.082031 L 487.316406 323.160156 L 487.367188 323.242188 L 487.410156 323.324219 L 487.453125 323.410156 L 487.492188 323.496094 L 487.5625 323.683594 L 487.589844 323.78125 L 487.613281 323.878906 L 487.632812 323.980469 L 487.652344 324.085938 L 487.664062 324.195312 L 487.671875 324.304688 L 487.679688 324.417969 L 487.679688 324.625 L 487.675781 324.710938 L 487.667969 324.796875 L 487.65625 324.882812 L 487.640625 324.96875 L 487.621094 325.050781 L 487.601562 325.136719 L 487.578125 325.21875 L 487.550781 325.296875 L 487.519531 325.378906 L 487.484375 325.457031 L 487.453125 325.539062 L 487.414062 325.617188 L 487.375 325.691406 L 487.335938 325.769531 L 487.289062 325.847656 L 487.246094 325.921875 L 487.144531 326.070312 L 487.09375 326.140625 L 487.039062 326.214844 L 486.929688 326.355469 L 486.871094 326.425781 L 486.683594 326.636719 L 486.617188 326.707031 L 486.550781 326.773438 L 486.480469 326.839844 L 486.410156 326.910156 L 486.269531 327.042969 L 486.195312 327.109375 L 486.125 327.175781 L 485.902344 327.375 L 485.824219 327.4375 L 485.75 327.503906 L 485.671875 327.566406 L 485.597656 327.632812 L 485.519531 327.695312 L 485.445312 327.757812 L 485.367188 327.824219 L 485.289062 327.886719 L 485.214844 327.949219 L 485.136719 328.015625 L 484.902344 328.203125 L 484.753906 328.328125 L 484.679688 328.394531 L 484.53125 328.519531 L 484.390625 328.644531 L 484.320312 328.710938 L 484.25 328.773438 L 484.183594 328.835938 L 484.054688 328.964844 L 483.992188 329.03125 L 483.929688 329.09375 L 483.8125 329.226562 L 483.753906 329.289062 L 483.589844 329.488281 L 483.539062 329.554688 L 483.492188 329.621094 L 483.40625 329.753906 L 483.363281 329.824219 L 483.324219 329.894531 L 483.289062 329.964844 L 483.226562 330.105469 L 487.820312 330.105469 L 487.820312 331.058594 Z M 481.988281 331.058594 "/>
<path style=" stroke:none;fill-rule:evenodd;fill:rgb(30.196078%,30.196078%,30.196078%);fill-opacity:1;" d="M 489.632812 331.058594 L 489.632812 329.691406 L 490.851562 329.691406 L 490.851562 331.058594 Z M 489.632812 331.058594 "/>
<path style=" stroke:none;fill-rule:evenodd;fill:rgb(30.196078%,30.196078%,30.196078%);fill-opacity:1;" d="M 498.636719 326.652344 L 498.636719 326.902344 L 498.628906 327.144531 L 498.617188 327.378906 L 498.597656 327.605469 L 498.578125 327.824219 L 498.550781 328.03125 L 498.519531 328.234375 L 498.480469 328.429688 L 498.441406 328.613281 L 498.394531 328.792969 L 498.34375 328.960938 L 498.292969 329.125 L 498.234375 329.28125 L 498.175781 329.429688 L 498.109375 329.574219 L 498.042969 329.710938 L 497.972656 329.839844 L 497.898438 329.964844 L 497.820312 330.082031 L 497.738281 330.191406 L 497.652344 330.296875 L 497.566406 330.390625 L 497.476562 330.484375 L 497.382812 330.570312 L 497.289062 330.648438 L 497.1875 330.722656 L 497.085938 330.789062 L 496.980469 330.851562 L 496.875 330.90625 L 496.648438 331 L 496.535156 331.039062 L 496.300781 331.101562 L 496.179688 331.128906 L 496.058594 331.148438 L 495.9375 331.164062 L 495.8125 331.175781 L 495.6875 331.183594 L 495.433594 331.183594 L 495.308594 331.175781 L 495.183594 331.164062 L 495.0625 331.148438 L 494.941406 331.128906 L 494.820312 331.101562 L 494.703125 331.070312 L 494.589844 331.039062 L 494.472656 331 L 494.253906 330.90625 L 494.144531 330.851562 L 494.042969 330.789062 L 493.941406 330.722656 L 493.84375 330.648438 L 493.746094 330.570312 L 493.652344 330.484375 L 493.5625 330.390625 L 493.476562 330.296875 L 493.394531 330.191406 L 493.3125 330.082031 L 493.238281 329.964844 L 493.164062 329.84375 L 493.09375 329.714844 L 493.03125 329.578125 L 492.964844 329.433594 L 492.90625 329.285156 L 492.851562 329.128906 L 492.800781 328.96875 L 492.75 328.796875 L 492.707031 328.621094 L 492.667969 328.433594 L 492.632812 328.238281 L 492.601562 328.039062 L 492.578125 327.828125 L 492.554688 327.609375 L 492.539062 327.382812 L 492.527344 327.148438 L 492.519531 326.90625 L 492.519531 326.394531 L 492.527344 326.140625 L 492.539062 325.898438 L 492.554688 325.664062 L 492.578125 325.4375 L 492.601562 325.222656 L 492.632812 325.015625 L 492.667969 324.820312 L 492.707031 324.632812 L 492.75 324.453125 L 492.800781 324.28125 L 492.851562 324.117188 L 492.90625 323.960938 L 492.96875 323.8125 L 493.03125 323.667969 L 493.097656 323.53125 L 493.167969 323.402344 L 493.242188 323.28125 L 493.320312 323.167969 L 493.398438 323.058594 L 493.484375 322.960938 L 493.570312 322.867188 L 493.660156 322.777344 L 493.753906 322.695312 L 493.851562 322.621094 L 493.949219 322.550781 L 494.050781 322.488281 L 494.15625 322.429688 L 494.265625 322.378906 L 494.375 322.335938 L 494.488281 322.296875 L 494.605469 322.257812 L 494.722656 322.226562 L 494.839844 322.199219 L 494.960938 322.175781 L 495.085938 322.15625 L 495.210938 322.140625 L 495.46875 322.125 L 495.601562 322.121094 L 495.726562 322.125 L 495.847656 322.132812 L 495.972656 322.140625 L 496.089844 322.15625 L 496.210938 322.175781 L 496.328125 322.199219 L 496.445312 322.226562 L 496.558594 322.257812 L 496.671875 322.296875 L 496.78125 322.335938 L 496.890625 322.378906 L 496.996094 322.429688 L 497.101562 322.488281 L 497.203125 322.550781 L 497.300781 322.621094 L 497.398438 322.695312 L 497.488281 322.777344 L 497.578125 322.867188 L 497.664062 322.960938 L 497.75 323.058594 L 497.832031 323.167969 L 497.90625 323.28125 L 497.980469 323.402344 L 498.050781 323.53125 L 498.117188 323.667969 L 498.183594 323.8125 L 498.242188 323.960938 L 498.296875 324.117188 L 498.351562 324.28125 L 498.398438 324.453125 L 498.445312 324.632812 L 498.484375 324.820312 L 498.519531 325.015625 L 498.550781 325.222656 L 498.578125 325.4375 L 498.597656 325.664062 L 498.617188 325.898438 L 498.628906 326.140625 L 498.636719 326.394531 Z M 497.492188 326.652344 L 497.492188 326.449219 L 497.488281 326.25 L 497.480469 326.054688 L 497.472656 325.871094 L 497.460938 325.691406 L 497.449219 325.523438 L 497.433594 325.359375 L 497.414062 325.203125 L 497.390625 325.054688 L 497.367188 324.910156 L 497.34375 324.773438 L 497.3125 324.640625 L 497.28125 324.515625 L 497.25 324.394531 L 497.214844 324.28125 L 497.136719 324.070312 L 497.09375 323.972656 L 497.046875 323.882812 L 497 323.796875 L 496.949219 323.714844 L 496.898438 323.640625 L 496.84375 323.570312 L 496.785156 323.503906 L 496.726562 323.441406 L 496.667969 323.386719 L 496.601562 323.335938 L 496.539062 323.289062 L 496.46875 323.246094 L 496.328125 323.175781 L 496.179688 323.121094 L 496.105469 323.097656 L 496.023438 323.078125 L 495.945312 323.0625 L 495.859375 323.050781 L 495.777344 323.042969 L 495.6875 323.039062 L 495.601562 323.035156 L 495.414062 323.042969 L 495.324219 323.050781 L 495.238281 323.0625 L 495.152344 323.078125 L 495.070312 323.097656 L 494.988281 323.121094 L 494.910156 323.148438 L 494.835938 323.175781 L 494.761719 323.210938 L 494.691406 323.246094 L 494.621094 323.289062 L 494.554688 323.335938 L 494.429688 323.445312 L 494.367188 323.507812 L 494.308594 323.574219 L 494.253906 323.644531 L 494.199219 323.722656 L 494.148438 323.804688 L 494.101562 323.890625 L 494.058594 323.980469 L 494.015625 324.078125 L 493.972656 324.179688 L 493.9375 324.289062 L 493.898438 324.402344 L 493.867188 324.523438 L 493.835938 324.648438 L 493.808594 324.78125 L 493.78125 324.917969 L 493.757812 325.058594 L 493.734375 325.207031 L 493.71875 325.363281 L 493.699219 325.527344 L 493.6875 325.699219 L 493.675781 325.875 L 493.667969 326.058594 L 493.660156 326.25 L 493.65625 326.449219 L 493.65625 326.855469 L 493.660156 327.046875 L 493.667969 327.234375 L 493.675781 327.414062 L 493.6875 327.585938 L 493.699219 327.753906 L 493.71875 327.914062 L 493.734375 328.070312 L 493.757812 328.21875 L 493.78125 328.359375 L 493.808594 328.496094 L 493.839844 328.628906 L 493.871094 328.753906 L 493.902344 328.871094 L 493.941406 328.988281 L 493.980469 329.097656 L 494.019531 329.199219 L 494.0625 329.296875 L 494.109375 329.390625 L 494.15625 329.480469 L 494.207031 329.5625 L 494.316406 329.710938 L 494.371094 329.777344 L 494.433594 329.839844 L 494.496094 329.898438 L 494.558594 329.953125 L 494.691406 330.046875 L 494.761719 330.085938 L 494.835938 330.121094 L 494.910156 330.152344 L 494.984375 330.179688 L 495.0625 330.203125 L 495.144531 330.222656 L 495.226562 330.238281 L 495.308594 330.25 L 495.394531 330.257812 L 495.484375 330.265625 L 495.664062 330.265625 L 495.75 330.257812 L 495.832031 330.25 L 495.914062 330.238281 L 495.996094 330.222656 L 496.074219 330.203125 L 496.152344 330.179688 L 496.230469 330.152344 L 496.300781 330.121094 L 496.375 330.085938 L 496.445312 330.046875 L 496.578125 329.953125 L 496.640625 329.898438 L 496.703125 329.839844 L 496.761719 329.777344 L 496.820312 329.710938 L 496.871094 329.636719 L 496.925781 329.5625 L 496.976562 329.480469 L 497.023438 329.390625 L 497.070312 329.296875 L 497.113281 329.199219 L 497.15625 329.097656 L 497.195312 328.988281 L 497.265625 328.753906 L 497.296875 328.628906 L 497.328125 328.496094 L 497.355469 328.359375 L 497.382812 328.21875 L 497.40625 328.070312 L 497.425781 327.914062 L 497.445312 327.753906 L 497.460938 327.585938 L 497.472656 327.414062 L 497.480469 327.234375 L 497.488281 327.046875 L 497.492188 326.855469 Z M 497.492188 326.652344 "/>
<path style=" stroke:none;fill-rule:evenodd;fill:rgb(0%,0%,0%);fill-opacity:1;" d="M 269.019531 348.710938 L 268.902344 349.007812 L 268.839844 349.15625 L 268.78125 349.296875 L 268.71875 349.4375 L 268.660156 349.570312 L 268.535156 349.835938 L 268.410156 350.085938 L 268.351562 350.207031 L 268.285156 350.324219 L 268.222656 350.4375 L 268.15625 350.546875 L 268.085938 350.65625 L 268.019531 350.757812 L 267.945312 350.855469 L 267.875 350.953125 L 267.800781 351.042969 L 267.722656 351.132812 L 267.648438 351.21875 L 267.566406 351.296875 L 267.488281 351.375 L 267.40625 351.449219 L 267.234375 351.582031 L 267.144531 351.640625 L 267.058594 351.695312 L 266.964844 351.75 L 266.871094 351.796875 L 266.777344 351.839844 L 266.679688 351.878906 L 266.578125 351.914062 L 266.476562 351.945312 L 266.367188 351.972656 L 266.257812 351.992188 L 266.148438 352.007812 L 266.03125 352.019531 L 265.914062 352.027344 L 265.792969 352.03125 L 265.742188 352.03125 L 265.691406 352.027344 L 265.539062 352.027344 L 265.488281 352.023438 L 265.441406 352.023438 L 265.347656 352.015625 L 265.300781 352.015625 L 265.257812 352.011719 L 265.210938 352.007812 L 265.164062 352 L 265.117188 351.996094 L 265.023438 351.980469 L 264.972656 351.972656 L 264.925781 351.964844 L 264.875 351.953125 L 264.824219 351.945312 L 264.824219 350.890625 L 264.949219 350.90625 L 264.984375 350.910156 L 265.019531 350.910156 L 265.089844 350.917969 L 265.125 350.917969 L 265.160156 350.921875 L 265.199219 350.921875 L 265.269531 350.929688 L 265.304688 350.929688 L 265.335938 350.933594 L 265.425781 350.933594 L 265.457031 350.9375 L 265.480469 350.9375 L 265.605469 350.929688 L 265.726562 350.917969 L 265.84375 350.894531 L 265.960938 350.863281 L 266.078125 350.820312 L 266.191406 350.769531 L 266.304688 350.710938 L 266.414062 350.640625 L 266.523438 350.5625 L 266.628906 350.476562 L 266.734375 350.378906 L 266.835938 350.269531 L 266.9375 350.148438 L 267.035156 350.019531 L 267.128906 349.878906 L 267.21875 349.726562 L 267.308594 349.5625 L 267.394531 349.386719 L 267.480469 349.203125 L 267.558594 349.007812 L 267.691406 348.671875 L 264.339844 340.257812 L 265.839844 340.257812 L 267.621094 344.929688 L 267.640625 344.972656 L 267.671875 345.066406 L 267.730469 345.230469 L 267.75 345.292969 L 267.773438 345.355469 L 267.796875 345.421875 L 267.816406 345.492188 L 267.84375 345.5625 L 267.890625 345.703125 L 267.917969 345.773438 L 268.058594 346.195312 L 268.085938 346.261719 L 268.109375 346.332031 L 268.15625 346.464844 L 268.175781 346.527344 L 268.199219 346.589844 L 268.21875 346.652344 L 268.242188 346.710938 L 268.261719 346.769531 L 268.277344 346.828125 L 268.296875 346.882812 L 268.328125 346.976562 L 268.339844 347.019531 L 268.363281 347.089844 L 268.371094 347.117188 L 268.378906 347.140625 L 268.382812 347.164062 L 268.386719 347.179688 L 268.394531 347.160156 L 268.398438 347.136719 L 268.40625 347.113281 L 268.417969 347.082031 L 268.425781 347.050781 L 268.4375 347.015625 L 268.453125 346.976562 L 268.464844 346.9375 L 268.496094 346.84375 L 268.515625 346.789062 L 268.535156 346.738281 L 268.574219 346.628906 L 268.59375 346.570312 L 268.617188 346.511719 L 268.65625 346.394531 L 268.679688 346.335938 L 268.699219 346.273438 L 268.746094 346.148438 L 268.769531 346.082031 L 268.863281 345.832031 L 268.886719 345.765625 L 268.933594 345.640625 L 268.957031 345.574219 L 268.980469 345.515625 L 269.003906 345.453125 L 269.023438 345.398438 L 269.042969 345.339844 L 269.0625 345.285156 L 269.082031 345.234375 L 269.113281 345.132812 L 269.128906 345.085938 L 270.785156 340.257812 L 272.269531 340.257812 Z M 269.019531 348.710938 "/>
<path style=" stroke:none;fill-rule:evenodd;fill:rgb(0%,0%,0%);fill-opacity:1;" d="M 18.976562 159.269531 L 15.507812 161.542969 L 18.976562 163.832031 L 18.976562 165.347656 L 14.632812 162.339844 L 10.523438 165.207031 L 10.523438 163.652344 L 13.8125 161.542969 L 10.523438 159.449219 L 10.523438 157.878906 L 14.617188 160.746094 L 18.976562 157.699219 Z M 18.976562 159.269531 "/>
</g>
</svg>
