<?xml version="1.0" encoding="UTF-8"?>
<svg xmlns="http://www.w3.org/2000/svg" xmlns:xlink="http://www.w3.org/1999/xlink" width="504pt" height="360pt" viewBox="0 0 504 360" version="1.1">
<defs>
<clipPath id="clip1">
  <path d="M 40.574219 7.96875 L 497 7.96875 L 497 316 L 40.574219 316 Z M 40.574219 7.96875 "/>
</clipPath>
<clipPath id="clip2">
  <path d="M 239 7.96875 L 241 7.96875 L 241 316 L 239 316 Z M 239 7.96875 "/>
</clipPath>
</defs>
<g id="surface19">
<rect x="0" y="0" width="504" height="360" style="fill:rgb(100%,100%,100%);fill-opacity:1;stroke:none;"/>
<path style="fill:none;stroke-width:2.069291;stroke-linecap:round;stroke-linejoin:round;stroke:rgb(100%,100%,100%);stroke-opacity:1;stroke-miterlimit:10;" d="M 0 0 L 504 0 L 504 360 L 0 360 Z M 0 0 "/>
<g clip-path="url(#clip1)" clip-rule="nonzero">
<path style=" stroke:none;fill-rule:nonzero;fill:rgb(100%,100%,100%);fill-opacity:1;" d="M 40.574219 7.96875 L 496.027344 7.96875 L 496.027344 315.078125 L 40.574219 315.078125 Z M 40.574219 7.96875 "/>
</g>
<path style="fill:none;stroke-width:1.422638;stroke-linecap:butt;stroke-linejoin:round;stroke:rgb(0%,0%,0%);stroke-opacity:1;stroke-miterlimit:10;" d="M 61.277344 301.121094 L 91.6875 301.121094 L 91.6875 231.324219 L 186.710938 231.324219 L 186.710938 161.527344 L 210.4375 161.527344 L 210.4375 91.726562 L 224.828125 91.726562 L 224.828125 21.929688 L 311.777344 21.929688 "/>
<path style="fill:none;stroke-width:1.422638;stroke-linecap:butt;stroke-linejoin:round;stroke:rgb(0%,0%,0%);stroke-opacity:1;stroke-miterlimit:10;" d="M 224.828125 21.929688 L 311.777344 21.929688 L 311.777344 91.726562 L 342.1875 91.726562 L 342.1875 161.527344 L 437.210938 161.527344 L 437.210938 231.324219 L 460.9375 231.324219 L 460.9375 301.121094 L 475.328125 301.121094 "/>
<g clip-path="url(#clip2)" clip-rule="nonzero">
<path style="fill:none;stroke-width:1.422638;stroke-linecap:butt;stroke-linejoin:round;stroke:rgb(100%,0%,0%);stroke-opacity:1;stroke-miterlimit:10;" d="M 239.738281 315.082031 L 239.738281 7.96875 "/>
</g>
<path style="fill-rule:nonzero;fill:rgb(0%,0%,100%);fill-opacity:1;stroke-width:0.944882;stroke-linecap:round;stroke-linejoin:round;stroke:rgb(0%,0%,100%);stroke-opacity:1;stroke-miterlimit:10;" d="M 242.726562 21.929688 C 242.726562 25.914062 236.75 25.914062 236.75 21.929688 C 236.75 17.945312 242.726562 17.945312 242.726562 21.929688 "/>
<path style="fill-rule:nonzero;fill:rgb(0%,0%,100%);fill-opacity:1;stroke-width:0.944882;stroke-linecap:round;stroke-linejoin:round;stroke:rgb(0%,0%,100%);stroke-opacity:1;stroke-miterlimit:10;" d="M 242.726562 21.929688 C 242.726562 25.914062 236.75 25.914062 236.75 21.929688 C 236.75 17.945312 242.726562 17.945312 242.726562 21.929688 "/>
<path style="fill-rule:nonzero;fill:rgb(0%,0%,100%);fill-opacity:1;stroke-width:0.944882;stroke-linecap:round;stroke-linejoin:round;stroke:rgb(0%,0%,100%);stroke-opacity:1;stroke-miterlimit:10;" d="M 242.726562 21.929688 C 242.726562 25.914062 236.75 25.914062 236.75 21.929688 C 236.75 17.945312 242.726562 17.945312 242.726562 21.929688 "/>
<path style="fill-rule:nonzero;fill:rgb(0%,0%,100%);fill-opacity:1;stroke-width:0.944882;stroke-linecap:round;stroke-linejoin:round;stroke:rgb(0%,0%,100%);stroke-opacity:1;stroke-miterlimit:10;" d="M 242.726562 21.929688 C 242.726562 25.914062 236.75 25.914062 236.75 21.929688 C 236.75 17.945312 242.726562 17.945312 242.726562 21.929688 "/>
<path style="fill-rule:nonzero;fill:rgb(0%,0%,100%);fill-opacity:1;stroke-width:0.944882;stroke-linecap:round;stroke-linejoin:round;stroke:rgb(0%,0%,100%);stroke-opacity:1;stroke-miterlimit:10;" d="M 242.726562 21.929688 C 242.726562 25.914062 236.75 25.914062 236.75 21.929688 C 236.75 17.945312 242.726562 17.945312 242.726562 21.929688 "/>
<path style="fill-rule:nonzero;fill:rgb(0%,0%,100%);fill-opacity:1;stroke-width:0.944882;stroke-linecap:round;stroke-linejoin:round;stroke:rgb(0%,0%,100%);stroke-opacity:1;stroke-miterlimit:10;" d="M 242.726562 21.929688 C 242.726562 25.914062 236.75 25.914062 236.75 21.929688 C 236.75 17.945312 242.726562 17.945312 242.726562 21.929688 "/>
<path style="fill-rule:nonzero;fill:rgb(0%,0%,100%);fill-opacity:1;stroke-width:0.944882;stroke-linecap:round;stroke-linejoin:round;stroke:rgb(0%,0%,100%);stroke-opacity:1;stroke-miterlimit:10;" d="M 242.726562 21.929688 C 242.726562 25.914062 236.75 25.914062 236.75 21.929688 C 236.75 17.945312 242.726562 17.945312 242.726562 21.929688 "/>
<path style="fill-rule:nonzero;fill:rgb(0%,0%,100%);fill-opacity:1;stroke-width:0.944882;stroke-linecap:round;stroke-linejoin:round;stroke:rgb(0%,0%,100%);stroke-opacity:1;stroke-miterlimit:10;" d="M 242.726562 21.929688 C 242.726562 25.914062 236.75 25.914062 236.75 21.929688 C 236.75 17.945312 242.726562 17.945312 242.726562 21.929688 "/>
<path style="fill-rule:nonzero;fill:rgb(0%,0%,100%);fill-opacity:1;stroke-width:0.944882;stroke-linecap:round;stroke-linejoin:round;stroke:rgb(0%,0%,100%);stroke-opacity:1;stroke-miterlimit:10;" d="M 242.726562 21.929688 C 242.726562 25.914062 236.75 25.914062 236.75 21.929688 C 236.75 17.945312 242.726562 17.945312 242.726562 21.929688 "/>
<path style="fill-rule:nonzero;fill:rgb(0%,0%,100%);fill-opacity:1;stroke-width:0.944882;stroke-linecap:round;stroke-linejoin:round;stroke:rgb(0%,0%,100%);stroke-opacity:1;stroke-miterlimit:10;" d="M 242.726562 21.929688 C 242.726562 25.914062 236.75 25.914062 236.75 21.929688 C 236.75 17.945312 242.726562 17.945312 242.726562 21.929688 "/>
<path style="fill:none;stroke-width:2.069291;stroke-linecap:butt;stroke-linejoin:round;stroke:rgb(0%,0%,0%);stroke-opacity:1;stroke-miterlimit:10;" d="M 40.574219 315.082031 L 40.574219 7.96875 "/>
<path style=" stroke:none;fill-rule:evenodd;fill:rgb(30.196078%,30.196078%,30.196078%);fill-opacity:1;" d="M 27.257812 305.523438 L 27.257812 304.570312 L 29.503906 304.570312 L 29.503906 297.792969 L 27.515625 299.210938 L 27.515625 298.148438 L 29.597656 296.71875 L 30.632812 296.71875 L 30.632812 304.570312 L 32.777344 304.570312 L 32.777344 305.523438 Z M 27.257812 305.523438 "/>
<path style=" stroke:none;fill-rule:evenodd;fill:rgb(30.196078%,30.196078%,30.196078%);fill-opacity:1;" d="M 26.925781 235.726562 L 26.925781 234.933594 L 26.992188 234.789062 L 27.058594 234.648438 L 27.128906 234.511719 L 27.203125 234.375 L 27.359375 234.117188 L 27.523438 233.875 L 27.613281 233.757812 L 27.703125 233.644531 L 27.984375 233.316406 L 28.078125 233.214844 L 28.175781 233.109375 L 28.46875 232.816406 L 28.570312 232.722656 L 28.773438 232.542969 L 28.871094 232.453125 L 28.972656 232.367188 L 29.074219 232.277344 L 29.175781 232.195312 L 29.273438 232.109375 L 29.375 232.027344 L 29.472656 231.945312 L 29.570312 231.867188 L 29.671875 231.789062 L 29.867188 231.632812 L 29.960938 231.558594 L 30.054688 231.480469 L 30.234375 231.324219 L 30.40625 231.167969 L 30.488281 231.089844 L 30.570312 231.015625 L 30.648438 230.9375 L 30.722656 230.859375 L 30.796875 230.777344 L 30.867188 230.699219 L 30.933594 230.617188 L 30.996094 230.535156 L 31.054688 230.453125 L 31.109375 230.371094 L 31.164062 230.285156 L 31.214844 230.203125 L 31.261719 230.117188 L 31.304688 230.027344 L 31.34375 229.9375 L 31.375 229.84375 L 31.402344 229.75 L 31.425781 229.652344 L 31.441406 229.550781 L 31.453125 229.449219 L 31.460938 229.34375 L 31.464844 229.238281 L 31.464844 229.164062 L 31.460938 229.09375 L 31.445312 228.953125 L 31.4375 228.886719 L 31.425781 228.824219 L 31.410156 228.761719 L 31.390625 228.699219 L 31.375 228.640625 L 31.351562 228.582031 L 31.304688 228.472656 L 31.277344 228.417969 L 31.246094 228.367188 L 31.214844 228.320312 L 31.144531 228.226562 L 31.109375 228.183594 L 31.070312 228.140625 L 30.984375 228.0625 L 30.9375 228.027344 L 30.890625 227.996094 L 30.84375 227.960938 L 30.742188 227.90625 L 30.6875 227.878906 L 30.632812 227.855469 L 30.574219 227.832031 L 30.515625 227.8125 L 30.457031 227.796875 L 30.394531 227.777344 L 30.332031 227.761719 L 30.269531 227.75 L 30.203125 227.738281 L 30.070312 227.722656 L 29.929688 227.714844 L 29.792969 227.714844 L 29.660156 227.722656 L 29.59375 227.730469 L 29.53125 227.738281 L 29.464844 227.746094 L 29.402344 227.761719 L 29.34375 227.773438 L 29.28125 227.789062 L 29.105469 227.847656 L 29.050781 227.871094 L 28.941406 227.925781 L 28.890625 227.953125 L 28.839844 227.984375 L 28.789062 228.019531 L 28.742188 228.050781 L 28.648438 228.128906 L 28.605469 228.167969 L 28.5625 228.210938 L 28.523438 228.253906 L 28.484375 228.300781 L 28.449219 228.347656 L 28.410156 228.398438 L 28.378906 228.449219 L 28.34375 228.503906 L 28.316406 228.558594 L 28.285156 228.613281 L 28.238281 228.730469 L 28.214844 228.792969 L 28.195312 228.855469 L 28.164062 228.988281 L 28.148438 229.058594 L 28.136719 229.128906 L 28.128906 229.203125 L 26.976562 229.09375 L 26.988281 229 L 27.003906 228.90625 L 27.023438 228.816406 L 27.046875 228.722656 L 27.070312 228.632812 L 27.097656 228.546875 L 27.128906 228.457031 L 27.199219 228.285156 L 27.238281 228.203125 L 27.28125 228.117188 L 27.328125 228.039062 L 27.429688 227.882812 L 27.484375 227.808594 L 27.542969 227.738281 L 27.605469 227.667969 L 27.667969 227.601562 L 27.808594 227.46875 L 27.882812 227.40625 L 27.960938 227.347656 L 28.039062 227.292969 L 28.121094 227.238281 L 28.207031 227.1875 L 28.296875 227.136719 L 28.386719 227.089844 L 28.480469 227.046875 L 28.675781 226.96875 L 28.886719 226.90625 L 29 226.878906 L 29.113281 226.855469 L 29.347656 226.816406 L 29.472656 226.804688 L 29.597656 226.796875 L 29.726562 226.789062 L 29.988281 226.789062 L 30.238281 226.804688 L 30.359375 226.8125 L 30.480469 226.828125 L 30.59375 226.84375 L 30.707031 226.867188 L 30.816406 226.890625 L 30.921875 226.914062 L 31.027344 226.945312 L 31.128906 226.976562 L 31.226562 227.015625 L 31.320312 227.050781 L 31.410156 227.09375 L 31.5 227.140625 L 31.582031 227.1875 L 31.664062 227.238281 L 31.742188 227.292969 L 31.816406 227.347656 L 31.890625 227.40625 L 31.960938 227.46875 L 32.023438 227.535156 L 32.089844 227.605469 L 32.148438 227.675781 L 32.203125 227.75 L 32.257812 227.828125 L 32.304688 227.90625 L 32.351562 227.988281 L 32.394531 228.074219 L 32.433594 228.164062 L 32.46875 228.253906 L 32.5 228.351562 L 32.527344 228.445312 L 32.554688 228.546875 L 32.574219 228.648438 L 32.589844 228.753906 L 32.605469 228.863281 L 32.613281 228.972656 L 32.617188 229.085938 L 32.621094 229.203125 L 32.621094 229.289062 L 32.613281 229.378906 L 32.605469 229.464844 L 32.59375 229.550781 L 32.582031 229.632812 L 32.5625 229.71875 L 32.542969 229.800781 L 32.488281 229.964844 L 32.457031 230.046875 L 32.425781 230.125 L 32.355469 230.28125 L 32.316406 230.359375 L 32.273438 230.4375 L 32.230469 230.511719 L 32.136719 230.660156 L 32.035156 230.808594 L 31.980469 230.878906 L 31.925781 230.953125 L 31.75 231.164062 L 31.6875 231.234375 L 31.621094 231.304688 L 31.558594 231.371094 L 31.421875 231.507812 L 31.28125 231.640625 L 31.207031 231.710938 L 31.136719 231.777344 L 30.988281 231.910156 L 30.914062 231.972656 L 30.691406 232.171875 L 30.535156 232.296875 L 30.460938 232.363281 L 30.382812 232.425781 L 30.308594 232.488281 L 30.230469 232.554688 L 30.074219 232.679688 L 30 232.746094 L 29.765625 232.933594 L 29.542969 233.121094 L 29.472656 233.183594 L 29.398438 233.25 L 29.257812 233.375 L 29.191406 233.4375 L 29.121094 233.503906 L 28.929688 233.695312 L 28.871094 233.761719 L 28.808594 233.828125 L 28.75 233.890625 L 28.695312 233.957031 L 28.636719 234.023438 L 28.582031 234.089844 L 28.53125 234.15625 L 28.480469 234.21875 L 28.433594 234.285156 L 28.386719 234.355469 L 28.34375 234.421875 L 28.304688 234.492188 L 28.265625 234.558594 L 28.195312 234.699219 L 28.164062 234.769531 L 32.757812 234.769531 L 32.757812 235.726562 Z M 26.925781 235.726562 "/>
<path style=" stroke:none;fill-rule:evenodd;fill:rgb(30.196078%,30.196078%,30.196078%);fill-opacity:1;" d="M 32.839844 163.496094 L 32.835938 163.617188 L 32.832031 163.734375 L 32.808594 163.960938 L 32.789062 164.070312 L 32.742188 164.28125 L 32.710938 164.382812 L 32.640625 164.578125 L 32.597656 164.671875 L 32.554688 164.761719 L 32.507812 164.851562 L 32.453125 164.9375 L 32.398438 165.019531 L 32.339844 165.097656 L 32.277344 165.171875 L 32.210938 165.246094 L 32.140625 165.316406 L 32.066406 165.386719 L 31.988281 165.449219 L 31.824219 165.566406 L 31.734375 165.621094 L 31.644531 165.671875 L 31.546875 165.722656 L 31.449219 165.765625 L 31.34375 165.808594 L 31.238281 165.847656 L 31.128906 165.886719 L 31.015625 165.917969 L 30.898438 165.945312 L 30.777344 165.972656 L 30.65625 165.992188 L 30.53125 166.011719 L 30.402344 166.027344 L 30.269531 166.039062 L 30.132812 166.046875 L 29.996094 166.050781 L 29.851562 166.054688 L 29.691406 166.050781 L 29.535156 166.046875 L 29.382812 166.035156 L 29.238281 166.023438 L 29.097656 166.003906 L 28.960938 165.980469 L 28.832031 165.957031 L 28.707031 165.925781 L 28.585938 165.890625 L 28.472656 165.855469 L 28.363281 165.8125 L 28.257812 165.765625 L 28.15625 165.71875 L 28.058594 165.667969 L 27.964844 165.617188 L 27.871094 165.5625 L 27.785156 165.503906 L 27.703125 165.445312 L 27.625 165.382812 L 27.550781 165.316406 L 27.480469 165.246094 L 27.414062 165.175781 L 27.351562 165.105469 L 27.234375 164.957031 L 27.132812 164.800781 L 27.046875 164.636719 L 27.007812 164.554688 L 26.972656 164.46875 L 26.941406 164.378906 L 26.910156 164.292969 L 26.882812 164.203125 L 26.859375 164.117188 L 26.835938 164.027344 L 26.796875 163.847656 L 26.785156 163.757812 L 26.769531 163.667969 L 27.933594 163.558594 L 27.957031 163.699219 L 27.96875 163.765625 L 27.984375 163.828125 L 28.003906 163.894531 L 28.042969 164.019531 L 28.066406 164.078125 L 28.089844 164.140625 L 28.113281 164.199219 L 28.144531 164.253906 L 28.171875 164.308594 L 28.207031 164.363281 L 28.238281 164.414062 L 28.277344 164.464844 L 28.3125 164.511719 L 28.351562 164.558594 L 28.394531 164.605469 L 28.4375 164.648438 L 28.484375 164.691406 L 28.578125 164.769531 L 28.632812 164.804688 L 28.683594 164.839844 L 28.742188 164.875 L 28.800781 164.90625 L 28.859375 164.933594 L 28.984375 164.988281 L 29.050781 165.011719 L 29.191406 165.050781 L 29.265625 165.066406 L 29.34375 165.082031 L 29.421875 165.09375 L 29.503906 165.105469 L 29.585938 165.113281 L 29.671875 165.117188 L 29.761719 165.121094 L 29.851562 165.121094 L 30.019531 165.117188 L 30.175781 165.105469 L 30.328125 165.085938 L 30.472656 165.054688 L 30.609375 165.019531 L 30.738281 164.972656 L 30.863281 164.917969 L 30.976562 164.855469 L 31.082031 164.785156 L 31.183594 164.703125 L 31.277344 164.617188 L 31.359375 164.519531 L 31.433594 164.414062 L 31.496094 164.304688 L 31.550781 164.183594 L 31.59375 164.054688 L 31.625 163.917969 L 31.652344 163.773438 L 31.664062 163.621094 L 31.671875 163.460938 L 31.667969 163.363281 L 31.652344 163.183594 L 31.636719 163.101562 L 31.617188 163.019531 L 31.59375 162.945312 L 31.5625 162.871094 L 31.53125 162.804688 L 31.492188 162.738281 L 31.453125 162.679688 L 31.410156 162.621094 L 31.363281 162.5625 L 31.3125 162.511719 L 31.265625 162.460938 L 31.15625 162.367188 L 31.097656 162.324219 L 31.039062 162.285156 L 30.914062 162.214844 L 30.851562 162.183594 L 30.785156 162.152344 L 30.71875 162.125 L 30.648438 162.097656 L 30.582031 162.074219 L 30.507812 162.054688 L 30.4375 162.035156 L 30.289062 162.003906 L 30.140625 161.980469 L 30.066406 161.972656 L 29.996094 161.960938 L 29.921875 161.957031 L 29.855469 161.949219 L 29.785156 161.945312 L 29.585938 161.933594 L 28.882812 161.933594 L 28.882812 160.960938 L 29.558594 160.960938 L 29.625 160.957031 L 29.6875 160.953125 L 29.820312 160.945312 L 29.953125 160.929688 L 30.023438 160.921875 L 30.089844 160.910156 L 30.160156 160.898438 L 30.292969 160.867188 L 30.359375 160.847656 L 30.421875 160.828125 L 30.488281 160.804688 L 30.546875 160.777344 L 30.609375 160.753906 L 30.785156 160.660156 L 30.839844 160.625 L 30.894531 160.585938 L 30.996094 160.5 L 31.042969 160.457031 L 31.089844 160.40625 L 31.175781 160.304688 L 31.214844 160.25 L 31.253906 160.191406 L 31.289062 160.128906 L 31.320312 160.066406 L 31.347656 160 L 31.371094 159.929688 L 31.394531 159.855469 L 31.410156 159.78125 L 31.433594 159.617188 L 31.4375 159.53125 L 31.441406 159.441406 L 31.433594 159.304688 L 31.421875 159.171875 L 31.402344 159.042969 L 31.371094 158.925781 L 31.335938 158.808594 L 31.289062 158.703125 L 31.234375 158.597656 L 31.171875 158.503906 L 31.101562 158.414062 L 31.019531 158.328125 L 30.933594 158.25 L 30.839844 158.179688 L 30.738281 158.117188 L 30.625 158.066406 L 30.507812 158.019531 L 30.378906 157.980469 L 30.246094 157.953125 L 30.101562 157.933594 L 29.949219 157.921875 L 29.789062 157.917969 L 29.644531 157.921875 L 29.503906 157.929688 L 29.367188 157.949219 L 29.238281 157.976562 L 29.117188 158.011719 L 29 158.054688 L 28.886719 158.101562 L 28.78125 158.160156 L 28.679688 158.226562 L 28.582031 158.296875 L 28.496094 158.375 L 28.417969 158.460938 L 28.34375 158.554688 L 28.277344 158.652344 L 28.222656 158.757812 L 28.171875 158.867188 L 28.132812 158.984375 L 28.097656 159.109375 L 28.070312 159.238281 L 28.050781 159.371094 L 26.921875 159.285156 L 26.9375 159.171875 L 26.957031 159.058594 L 26.976562 158.949219 L 27.003906 158.84375 L 27.035156 158.742188 L 27.070312 158.640625 L 27.105469 158.542969 L 27.148438 158.449219 L 27.191406 158.359375 L 27.238281 158.273438 L 27.289062 158.1875 L 27.34375 158.105469 L 27.402344 158.027344 L 27.460938 157.953125 L 27.523438 157.878906 L 27.585938 157.808594 L 27.652344 157.742188 L 27.722656 157.679688 L 27.796875 157.617188 L 27.871094 157.558594 L 27.949219 157.503906 L 28.03125 157.449219 L 28.113281 157.402344 L 28.285156 157.308594 L 28.464844 157.230469 L 28.558594 157.195312 L 28.65625 157.164062 L 28.851562 157.109375 L 28.953125 157.082031 L 29.15625 157.042969 L 29.261719 157.027344 L 29.472656 157.003906 L 29.582031 156.996094 L 29.691406 156.992188 L 29.949219 156.992188 L 30.089844 157 L 30.226562 157.007812 L 30.359375 157.019531 L 30.488281 157.039062 L 30.613281 157.058594 L 30.734375 157.082031 L 30.851562 157.109375 L 31.070312 157.179688 L 31.175781 157.214844 L 31.277344 157.257812 L 31.371094 157.300781 L 31.464844 157.347656 L 31.554688 157.394531 L 31.636719 157.445312 L 31.71875 157.5 L 31.796875 157.558594 L 31.871094 157.617188 L 31.941406 157.679688 L 32.003906 157.742188 L 32.066406 157.808594 L 32.125 157.875 L 32.179688 157.945312 L 32.230469 158.019531 L 32.277344 158.09375 L 32.324219 158.171875 L 32.363281 158.25 L 32.398438 158.332031 L 32.433594 158.417969 L 32.464844 158.5 L 32.492188 158.589844 L 32.515625 158.675781 L 32.539062 158.765625 L 32.570312 158.945312 L 32.582031 159.039062 L 32.589844 159.132812 L 32.59375 159.226562 L 32.597656 159.324219 L 32.59375 159.398438 L 32.589844 159.476562 L 32.585938 159.550781 L 32.570312 159.699219 L 32.558594 159.769531 L 32.527344 159.910156 L 32.507812 159.980469 L 32.46875 160.113281 L 32.441406 160.179688 L 32.386719 160.304688 L 32.355469 160.367188 L 32.320312 160.425781 L 32.242188 160.542969 L 32.203125 160.597656 L 32.160156 160.652344 L 32.113281 160.707031 L 32.011719 160.808594 L 31.902344 160.902344 L 31.84375 160.949219 L 31.71875 161.035156 L 31.652344 161.078125 L 31.582031 161.117188 L 31.511719 161.152344 L 31.441406 161.191406 L 31.363281 161.222656 L 31.285156 161.257812 L 31.203125 161.285156 L 31.117188 161.316406 L 31.03125 161.339844 L 30.941406 161.367188 L 30.847656 161.390625 L 30.753906 161.410156 L 30.753906 161.433594 L 30.855469 161.449219 L 30.960938 161.460938 L 31.15625 161.5 L 31.25 161.523438 L 31.429688 161.578125 L 31.515625 161.609375 L 31.597656 161.640625 L 31.675781 161.679688 L 31.753906 161.714844 L 31.828125 161.753906 L 31.902344 161.796875 L 32.035156 161.882812 L 32.101562 161.929688 L 32.160156 161.976562 L 32.21875 162.027344 L 32.328125 162.136719 L 32.378906 162.191406 L 32.425781 162.246094 L 32.46875 162.308594 L 32.511719 162.367188 L 32.550781 162.429688 L 32.585938 162.492188 L 32.621094 162.558594 L 32.652344 162.621094 L 32.683594 162.691406 L 32.707031 162.761719 L 32.734375 162.832031 L 32.773438 162.972656 L 32.792969 163.046875 L 32.808594 163.121094 L 32.820312 163.195312 L 32.835938 163.34375 L 32.839844 163.421875 Z M 32.839844 163.496094 "/>
<path style=" stroke:none;fill-rule:evenodd;fill:rgb(30.196078%,30.196078%,30.196078%);fill-opacity:1;" d="M 31.789062 94.136719 L 31.789062 96.128906 L 30.726562 96.128906 L 30.726562 94.136719 L 26.578125 94.136719 L 26.578125 93.261719 L 30.609375 87.324219 L 31.789062 87.324219 L 31.789062 93.25 L 33.027344 93.25 L 33.027344 94.136719 Z M 30.726562 88.59375 L 30.714844 88.617188 L 30.707031 88.640625 L 30.699219 88.652344 L 30.675781 88.699219 L 30.664062 88.71875 L 30.65625 88.734375 L 30.621094 88.792969 L 30.613281 88.8125 L 30.589844 88.851562 L 30.578125 88.875 L 30.5625 88.894531 L 30.515625 88.988281 L 30.5 89.007812 L 30.476562 89.054688 L 30.460938 89.078125 L 30.449219 89.101562 L 30.433594 89.125 L 30.410156 89.171875 L 30.394531 89.191406 L 30.382812 89.214844 L 30.371094 89.234375 L 30.363281 89.253906 L 30.351562 89.269531 L 30.339844 89.289062 L 30.328125 89.304688 L 30.320312 89.320312 L 30.308594 89.335938 L 28.050781 92.660156 L 28.046875 92.671875 L 28.023438 92.707031 L 28.011719 92.71875 L 28.003906 92.734375 L 27.992188 92.746094 L 27.933594 92.824219 L 27.925781 92.84375 L 27.902344 92.875 L 27.886719 92.894531 L 27.863281 92.925781 L 27.851562 92.945312 L 27.828125 92.976562 L 27.816406 92.996094 L 27.800781 93.011719 L 27.753906 93.074219 L 27.738281 93.09375 L 27.691406 93.15625 L 27.679688 93.167969 L 27.667969 93.183594 L 27.660156 93.195312 L 27.648438 93.207031 L 27.640625 93.21875 L 27.628906 93.230469 L 27.621094 93.242188 L 27.613281 93.25 L 30.726562 93.25 Z M 30.726562 88.59375 "/>
<path style=" stroke:none;fill-rule:evenodd;fill:rgb(30.196078%,30.196078%,30.196078%);fill-opacity:1;" d="M 32.863281 23.464844 L 32.863281 23.59375 L 32.847656 23.851562 L 32.832031 23.976562 L 32.816406 24.097656 L 32.792969 24.21875 L 32.738281 24.453125 L 32.703125 24.566406 L 32.664062 24.675781 L 32.621094 24.785156 L 32.578125 24.890625 L 32.527344 24.992188 L 32.472656 25.09375 L 32.417969 25.1875 L 32.355469 25.28125 L 32.289062 25.375 L 32.148438 25.546875 L 32.070312 25.625 L 31.988281 25.703125 L 31.90625 25.777344 L 31.816406 25.847656 L 31.726562 25.914062 L 31.628906 25.976562 L 31.425781 26.09375 L 31.207031 26.195312 L 30.972656 26.28125 L 30.722656 26.351562 L 30.59375 26.378906 L 30.460938 26.402344 L 30.324219 26.421875 L 30.183594 26.4375 L 30.039062 26.449219 L 29.890625 26.457031 L 29.601562 26.457031 L 29.46875 26.453125 L 29.339844 26.441406 L 29.210938 26.433594 L 29.089844 26.417969 L 28.96875 26.398438 L 28.855469 26.378906 L 28.742188 26.355469 L 28.632812 26.328125 L 28.527344 26.296875 L 28.425781 26.261719 L 28.328125 26.226562 L 28.234375 26.1875 L 28.140625 26.144531 L 27.96875 26.058594 L 27.886719 26.007812 L 27.808594 25.960938 L 27.730469 25.90625 L 27.660156 25.851562 L 27.589844 25.792969 L 27.523438 25.734375 L 27.457031 25.671875 L 27.394531 25.605469 L 27.339844 25.539062 L 27.28125 25.472656 L 27.179688 25.332031 L 27.132812 25.257812 L 27.089844 25.183594 L 27.011719 25.027344 L 26.976562 24.949219 L 26.945312 24.867188 L 26.914062 24.789062 L 26.886719 24.703125 L 26.859375 24.621094 L 26.835938 24.535156 L 26.796875 24.363281 L 27.933594 24.234375 L 27.949219 24.28125 L 27.980469 24.382812 L 27.996094 24.429688 L 28.015625 24.480469 L 28.035156 24.527344 L 28.058594 24.578125 L 28.078125 24.625 L 28.101562 24.671875 L 28.128906 24.71875 L 28.152344 24.765625 L 28.179688 24.8125 L 28.273438 24.941406 L 28.308594 24.980469 L 28.34375 25.023438 L 28.421875 25.101562 L 28.464844 25.140625 L 28.507812 25.175781 L 28.554688 25.207031 L 28.605469 25.242188 L 28.707031 25.304688 L 28.816406 25.359375 L 28.875 25.386719 L 28.933594 25.410156 L 28.996094 25.433594 L 29.128906 25.472656 L 29.199219 25.488281 L 29.347656 25.511719 L 29.425781 25.523438 L 29.507812 25.53125 L 29.589844 25.535156 L 29.675781 25.539062 L 29.851562 25.539062 L 29.9375 25.535156 L 30.101562 25.519531 L 30.183594 25.507812 L 30.261719 25.492188 L 30.335938 25.476562 L 30.414062 25.453125 L 30.484375 25.433594 L 30.558594 25.40625 L 30.628906 25.378906 L 30.695312 25.347656 L 30.828125 25.277344 L 30.886719 25.238281 L 30.949219 25.199219 L 31.003906 25.152344 L 31.058594 25.109375 L 31.113281 25.058594 L 31.164062 25.007812 L 31.214844 24.953125 L 31.261719 24.898438 L 31.308594 24.839844 L 31.351562 24.777344 L 31.390625 24.714844 L 31.429688 24.648438 L 31.464844 24.582031 L 31.5 24.511719 L 31.53125 24.4375 L 31.558594 24.363281 L 31.585938 24.285156 L 31.609375 24.207031 L 31.628906 24.125 L 31.644531 24.042969 L 31.660156 23.953125 L 31.671875 23.867188 L 31.683594 23.773438 L 31.691406 23.683594 L 31.695312 23.585938 L 31.695312 23.410156 L 31.691406 23.328125 L 31.683594 23.25 L 31.675781 23.175781 L 31.664062 23.101562 L 31.632812 22.953125 L 31.613281 22.882812 L 31.589844 22.8125 L 31.566406 22.746094 L 31.539062 22.675781 L 31.507812 22.613281 L 31.476562 22.546875 L 31.441406 22.484375 L 31.40625 22.425781 L 31.367188 22.367188 L 31.28125 22.257812 L 31.238281 22.207031 L 31.191406 22.15625 L 31.140625 22.109375 L 31.085938 22.0625 L 30.976562 21.976562 L 30.917969 21.9375 L 30.855469 21.898438 L 30.792969 21.863281 L 30.726562 21.828125 L 30.660156 21.800781 L 30.589844 21.769531 L 30.519531 21.746094 L 30.371094 21.699219 L 30.214844 21.667969 L 30.050781 21.644531 L 29.964844 21.636719 L 29.878906 21.632812 L 29.734375 21.632812 L 29.679688 21.636719 L 29.625 21.636719 L 29.570312 21.640625 L 29.519531 21.644531 L 29.46875 21.652344 L 29.417969 21.65625 L 29.367188 21.664062 L 29.320312 21.671875 L 29.269531 21.683594 L 29.222656 21.691406 L 29.175781 21.703125 L 29.132812 21.714844 L 29.085938 21.730469 L 29.042969 21.742188 L 28.996094 21.757812 L 28.953125 21.769531 L 28.910156 21.785156 L 28.867188 21.804688 L 28.828125 21.820312 L 28.789062 21.839844 L 28.75 21.855469 L 28.671875 21.894531 L 28.636719 21.914062 L 28.597656 21.9375 L 28.5625 21.957031 L 28.457031 22.027344 L 28.425781 22.050781 L 28.394531 22.070312 L 28.300781 22.140625 L 28.269531 22.167969 L 28.238281 22.191406 L 28.210938 22.214844 L 28.179688 22.238281 L 28.152344 22.265625 L 27.050781 22.265625 L 27.347656 17.527344 L 32.351562 17.527344 L 32.351562 18.484375 L 28.371094 18.484375 L 28.203125 21.277344 L 28.261719 21.230469 L 28.394531 21.144531 L 28.464844 21.101562 L 28.539062 21.0625 L 28.617188 21.023438 L 28.695312 20.988281 L 28.777344 20.949219 L 28.863281 20.914062 L 29.042969 20.851562 L 29.140625 20.820312 L 29.238281 20.796875 L 29.339844 20.773438 L 29.445312 20.757812 L 29.554688 20.742188 L 29.664062 20.730469 L 29.898438 20.714844 L 30.152344 20.714844 L 30.402344 20.730469 L 30.523438 20.746094 L 30.644531 20.765625 L 30.761719 20.785156 L 30.875 20.8125 L 30.988281 20.84375 L 31.097656 20.875 L 31.203125 20.914062 L 31.40625 21 L 31.503906 21.050781 L 31.597656 21.101562 L 31.6875 21.15625 L 31.777344 21.214844 L 31.859375 21.277344 L 31.941406 21.34375 L 32.019531 21.410156 L 32.097656 21.484375 L 32.238281 21.632812 L 32.363281 21.796875 L 32.421875 21.882812 L 32.476562 21.96875 L 32.53125 22.0625 L 32.578125 22.15625 L 32.621094 22.25 L 32.664062 22.351562 L 32.703125 22.453125 L 32.738281 22.558594 L 32.765625 22.664062 L 32.792969 22.773438 L 32.816406 22.882812 L 32.847656 23.109375 L 32.863281 23.34375 Z M 32.863281 23.464844 "/>
<path style="fill:none;stroke-width:2.069291;stroke-linecap:butt;stroke-linejoin:round;stroke:rgb(20%,20%,20%);stroke-opacity:1;stroke-miterlimit:10;" d="M 36.589844 301.121094 L 40.574219 301.121094 "/>
<path style="fill:none;stroke-width:2.069291;stroke-linecap:butt;stroke-linejoin:round;stroke:rgb(20%,20%,20%);stroke-opacity:1;stroke-miterlimit:10;" d="M 36.589844 231.324219 L 40.574219 231.324219 "/>
<path style="fill:none;stroke-width:2.069291;stroke-linecap:butt;stroke-linejoin:round;stroke:rgb(20%,20%,20%);stroke-opacity:1;stroke-miterlimit:10;" d="M 36.589844 161.527344 L 40.574219 161.527344 "/>
<path style="fill:none;stroke-width:2.069291;stroke-linecap:butt;stroke-linejoin:round;stroke:rgb(20%,20%,20%);stroke-opacity:1;stroke-miterlimit:10;" d="M 36.589844 91.726562 L 40.574219 91.726562 "/>
<path style="fill:none;stroke-width:2.069291;stroke-linecap:butt;stroke-linejoin:round;stroke:rgb(20%,20%,20%);stroke-opacity:1;stroke-miterlimit:10;" d="M 36.589844 21.929688 L 40.574219 21.929688 "/>
<path style="fill:none;stroke-width:2.069291;stroke-linecap:butt;stroke-linejoin:round;stroke:rgb(0%,0%,0%);stroke-opacity:1;stroke-miterlimit:10;" d="M 40.574219 315.082031 L 496.03125 315.082031 "/>
<path style="fill:none;stroke-width:2.069291;stroke-linecap:butt;stroke-linejoin:round;stroke:rgb(20%,20%,20%);stroke-opacity:1;stroke-miterlimit:10;" d="M 114.488281 319.066406 L 114.488281 315.082031 "/>
<path style="fill:none;stroke-width:2.069291;stroke-linecap:butt;stroke-linejoin:round;stroke:rgb(20%,20%,20%);stroke-opacity:1;stroke-miterlimit:10;" d="M 239.738281 319.066406 L 239.738281 315.082031 "/>
<path style="fill:none;stroke-width:2.069291;stroke-linecap:butt;stroke-linejoin:round;stroke:rgb(20%,20%,20%);stroke-opacity:1;stroke-miterlimit:10;" d="M 364.988281 319.066406 L 364.988281 315.082031 "/>
<path style="fill:none;stroke-width:2.069291;stroke-linecap:butt;stroke-linejoin:round;stroke:rgb(20%,20%,20%);stroke-opacity:1;stroke-miterlimit:10;" d="M 490.242188 319.066406 L 490.242188 315.082031 "/>
<path style=" stroke:none;fill-rule:evenodd;fill:rgb(30.196078%,30.196078%,30.196078%);fill-opacity:1;" d="M 112.210938 326.652344 L 112.210938 326.902344 L 112.203125 327.144531 L 112.191406 327.378906 L 112.171875 327.605469 L 112.152344 327.824219 L 112.125 328.03125 L 112.09375 328.234375 L 112.054688 328.429688 L 112.015625 328.613281 L 111.96875 328.792969 L 111.917969 328.960938 L 111.867188 329.125 L 111.808594 329.28125 L 111.75 329.429688 L 111.683594 329.574219 L 111.617188 329.710938 L 111.546875 329.839844 L 111.472656 329.964844 L 111.394531 330.082031 L 111.3125 330.191406 L 111.226562 330.296875 L 111.140625 330.390625 L 111.050781 330.484375 L 110.957031 330.570312 L 110.863281 330.648438 L 110.761719 330.722656 L 110.660156 330.789062 L 110.554688 330.851562 L 110.449219 330.90625 L 110.222656 331 L 110.109375 331.039062 L 109.875 331.101562 L 109.753906 331.128906 L 109.632812 331.148438 L 109.511719 331.164062 L 109.386719 331.175781 L 109.261719 331.183594 L 109.007812 331.183594 L 108.882812 331.175781 L 108.757812 331.164062 L 108.636719 331.148438 L 108.515625 331.128906 L 108.394531 331.101562 L 108.277344 331.070312 L 108.164062 331.039062 L 108.046875 331 L 107.828125 330.90625 L 107.71875 330.851562 L 107.617188 330.789062 L 107.515625 330.722656 L 107.417969 330.648438 L 107.320312 330.570312 L 107.226562 330.484375 L 107.136719 330.390625 L 107.050781 330.296875 L 106.96875 330.191406 L 106.886719 330.082031 L 106.8125 329.964844 L 106.738281 329.84375 L 106.667969 329.714844 L 106.605469 329.578125 L 106.539062 329.433594 L 106.480469 329.285156 L 106.425781 329.128906 L 106.375 328.96875 L 106.324219 328.796875 L 106.28125 328.621094 L 106.242188 328.433594 L 106.207031 328.238281 L 106.175781 328.039062 L 106.152344 327.828125 L 106.128906 327.609375 L 106.113281 327.382812 L 106.101562 327.148438 L 106.09375 326.90625 L 106.09375 326.394531 L 106.101562 326.140625 L 106.113281 325.898438 L 106.128906 325.664062 L 106.152344 325.4375 L 106.175781 325.222656 L 106.207031 325.015625 L 106.242188 324.820312 L 106.28125 324.632812 L 106.324219 324.453125 L 106.375 324.28125 L 106.425781 324.117188 L 106.480469 323.960938 L 106.542969 323.8125 L 106.605469 323.667969 L 106.671875 323.53125 L 106.742188 323.402344 L 106.816406 323.28125 L 106.894531 323.167969 L 106.972656 323.058594 L 107.058594 322.960938 L 107.144531 322.867188 L 107.234375 322.777344 L 107.328125 322.695312 L 107.425781 322.621094 L 107.523438 322.550781 L 107.625 322.488281 L 107.730469 322.429688 L 107.839844 322.378906 L 107.949219 322.335938 L 108.0625 322.296875 L 108.179688 322.257812 L 108.296875 322.226562 L 108.414062 322.199219 L 108.535156 322.175781 L 108.660156 322.15625 L 108.785156 322.140625 L 109.042969 322.125 L 109.175781 322.121094 L 109.300781 322.125 L 109.421875 322.132812 L 109.546875 322.140625 L 109.664062 322.15625 L 109.785156 322.175781 L 109.902344 322.199219 L 110.019531 322.226562 L 110.132812 322.257812 L 110.246094 322.296875 L 110.355469 322.335938 L 110.464844 322.378906 L 110.570312 322.429688 L 110.675781 322.488281 L 110.777344 322.550781 L 110.875 322.621094 L 110.972656 322.695312 L 111.0625 322.777344 L 111.152344 322.867188 L 111.238281 322.960938 L 111.324219 323.058594 L 111.40625 323.167969 L 111.480469 323.28125 L 111.554688 323.402344 L 111.625 323.53125 L 111.691406 323.667969 L 111.757812 323.8125 L 111.816406 323.960938 L 111.871094 324.117188 L 111.925781 324.28125 L 111.972656 324.453125 L 112.019531 324.632812 L 112.058594 324.820312 L 112.09375 325.015625 L 112.125 325.222656 L 112.152344 325.4375 L 112.171875 325.664062 L 112.191406 325.898438 L 112.203125 326.140625 L 112.210938 326.394531 Z M 111.066406 326.652344 L 111.066406 326.449219 L 111.0625 326.25 L 111.054688 326.054688 L 111.046875 325.871094 L 111.035156 325.691406 L 111.023438 325.523438 L 111.007812 325.359375 L 110.988281 325.203125 L 110.964844 325.054688 L 110.941406 324.910156 L 110.917969 324.773438 L 110.886719 324.640625 L 110.855469 324.515625 L 110.824219 324.394531 L 110.789062 324.28125 L 110.710938 324.070312 L 110.667969 323.972656 L 110.621094 323.882812 L 110.574219 323.796875 L 110.523438 323.714844 L 110.472656 323.640625 L 110.417969 323.570312 L 110.359375 323.503906 L 110.300781 323.441406 L 110.242188 323.386719 L 110.175781 323.335938 L 110.113281 323.289062 L 110.042969 323.246094 L 109.902344 323.175781 L 109.753906 323.121094 L 109.679688 323.097656 L 109.597656 323.078125 L 109.519531 323.0625 L 109.433594 323.050781 L 109.351562 323.042969 L 109.261719 323.039062 L 109.175781 323.035156 L 109.078125 323.039062 L 108.988281 323.042969 L 108.898438 323.050781 L 108.8125 323.0625 L 108.726562 323.078125 L 108.644531 323.097656 L 108.5625 323.121094 L 108.484375 323.148438 L 108.410156 323.175781 L 108.335938 323.210938 L 108.265625 323.246094 L 108.195312 323.289062 L 108.128906 323.335938 L 108.0625 323.390625 L 108.003906 323.445312 L 107.941406 323.507812 L 107.882812 323.574219 L 107.828125 323.644531 L 107.773438 323.722656 L 107.722656 323.804688 L 107.675781 323.890625 L 107.632812 323.980469 L 107.589844 324.078125 L 107.546875 324.179688 L 107.511719 324.289062 L 107.472656 324.402344 L 107.441406 324.523438 L 107.410156 324.648438 L 107.382812 324.78125 L 107.355469 324.917969 L 107.332031 325.058594 L 107.308594 325.207031 L 107.292969 325.363281 L 107.273438 325.527344 L 107.261719 325.699219 L 107.25 325.875 L 107.242188 326.058594 L 107.234375 326.25 L 107.230469 326.449219 L 107.230469 326.855469 L 107.234375 327.046875 L 107.242188 327.234375 L 107.25 327.414062 L 107.261719 327.585938 L 107.273438 327.753906 L 107.292969 327.914062 L 107.308594 328.070312 L 107.332031 328.21875 L 107.355469 328.359375 L 107.382812 328.496094 L 107.414062 328.628906 L 107.445312 328.753906 L 107.476562 328.871094 L 107.515625 328.988281 L 107.554688 329.097656 L 107.59375 329.199219 L 107.636719 329.296875 L 107.683594 329.390625 L 107.730469 329.480469 L 107.78125 329.5625 L 107.890625 329.710938 L 107.945312 329.777344 L 108.007812 329.839844 L 108.070312 329.898438 L 108.132812 329.953125 L 108.265625 330.046875 L 108.335938 330.085938 L 108.410156 330.121094 L 108.484375 330.152344 L 108.558594 330.179688 L 108.636719 330.203125 L 108.71875 330.222656 L 108.800781 330.238281 L 108.882812 330.25 L 108.96875 330.257812 L 109.058594 330.265625 L 109.238281 330.265625 L 109.324219 330.257812 L 109.40625 330.25 L 109.488281 330.238281 L 109.570312 330.222656 L 109.648438 330.203125 L 109.726562 330.179688 L 109.804688 330.152344 L 109.875 330.121094 L 109.949219 330.085938 L 110.019531 330.046875 L 110.152344 329.953125 L 110.214844 329.898438 L 110.277344 329.839844 L 110.335938 329.777344 L 110.390625 329.710938 L 110.5 329.5625 L 110.550781 329.480469 L 110.597656 329.390625 L 110.644531 329.296875 L 110.6875 329.199219 L 110.730469 329.097656 L 110.769531 328.988281 L 110.839844 328.753906 L 110.871094 328.628906 L 110.902344 328.496094 L 110.929688 328.359375 L 110.957031 328.21875 L 110.980469 328.070312 L 111 327.914062 L 111.019531 327.753906 L 111.035156 327.585938 L 111.046875 327.414062 L 111.054688 327.234375 L 111.0625 327.046875 L 111.066406 326.855469 Z M 111.066406 326.652344 "/>
<path style=" stroke:none;fill-rule:evenodd;fill:rgb(30.196078%,30.196078%,30.196078%);fill-opacity:1;" d="M 113.878906 331.058594 L 113.878906 329.691406 L 115.097656 329.691406 L 115.097656 331.058594 Z M 113.878906 331.058594 "/>
<path style=" stroke:none;fill-rule:evenodd;fill:rgb(30.196078%,30.196078%,30.196078%);fill-opacity:1;" d="M 122.847656 328.191406 L 122.847656 328.324219 L 122.839844 328.453125 L 122.832031 328.578125 L 122.816406 328.703125 L 122.800781 328.824219 L 122.777344 328.945312 L 122.722656 329.179688 L 122.6875 329.292969 L 122.648438 329.402344 L 122.605469 329.511719 L 122.5625 329.617188 L 122.511719 329.722656 L 122.402344 329.917969 L 122.339844 330.011719 L 122.273438 330.101562 L 122.132812 330.273438 L 122.054688 330.355469 L 121.890625 330.503906 L 121.800781 330.574219 L 121.710938 330.640625 L 121.613281 330.703125 L 121.511719 330.765625 L 121.410156 330.820312 L 121.191406 330.921875 L 120.957031 331.007812 L 120.832031 331.046875 L 120.707031 331.078125 L 120.578125 331.105469 L 120.445312 331.128906 L 120.308594 331.152344 L 120.167969 331.164062 L 120.023438 331.175781 L 119.875 331.183594 L 119.585938 331.183594 L 119.453125 331.179688 L 119.324219 331.171875 L 119.195312 331.160156 L 118.953125 331.128906 L 118.726562 331.082031 L 118.617188 331.054688 L 118.511719 331.023438 L 118.410156 330.988281 L 118.3125 330.953125 L 118.125 330.875 L 118.039062 330.832031 L 117.953125 330.785156 L 117.871094 330.738281 L 117.792969 330.6875 L 117.714844 330.632812 L 117.644531 330.578125 L 117.574219 330.519531 L 117.507812 330.460938 L 117.441406 330.398438 L 117.378906 330.335938 L 117.324219 330.269531 L 117.265625 330.199219 L 117.164062 330.058594 L 117.117188 329.984375 L 117.074219 329.910156 L 116.996094 329.753906 L 116.960938 329.675781 L 116.929688 329.597656 L 116.898438 329.515625 L 116.871094 329.433594 L 116.84375 329.347656 L 116.820312 329.265625 L 116.800781 329.179688 L 116.78125 329.089844 L 117.917969 328.960938 L 117.933594 329.011719 L 117.949219 329.058594 L 117.980469 329.160156 L 118 329.207031 L 118.019531 329.257812 L 118.042969 329.304688 L 118.0625 329.351562 L 118.085938 329.398438 L 118.113281 329.449219 L 118.136719 329.492188 L 118.164062 329.539062 L 118.257812 329.667969 L 118.292969 329.710938 L 118.328125 329.75 L 118.40625 329.828125 L 118.449219 329.867188 L 118.492188 329.902344 L 118.539062 329.9375 L 118.691406 330.03125 L 118.800781 330.085938 L 118.859375 330.113281 L 118.917969 330.136719 L 118.980469 330.160156 L 119.113281 330.199219 L 119.183594 330.214844 L 119.332031 330.238281 L 119.410156 330.25 L 119.492188 330.257812 L 119.574219 330.261719 L 119.660156 330.265625 L 119.835938 330.265625 L 119.921875 330.261719 L 120.085938 330.246094 L 120.167969 330.234375 L 120.246094 330.21875 L 120.320312 330.203125 L 120.398438 330.183594 L 120.46875 330.160156 L 120.542969 330.136719 L 120.613281 330.105469 L 120.746094 330.042969 L 120.8125 330.003906 L 120.871094 329.964844 L 120.933594 329.925781 L 120.988281 329.882812 L 121.042969 329.835938 L 121.097656 329.785156 L 121.199219 329.683594 L 121.292969 329.566406 L 121.335938 329.507812 L 121.375 329.441406 L 121.414062 329.378906 L 121.484375 329.238281 L 121.515625 329.167969 L 121.542969 329.089844 L 121.570312 329.015625 L 121.59375 328.933594 L 121.613281 328.851562 L 121.628906 328.769531 L 121.644531 328.683594 L 121.667969 328.503906 L 121.675781 328.410156 L 121.679688 328.3125 L 121.679688 328.136719 L 121.675781 328.058594 L 121.660156 327.902344 L 121.648438 327.828125 L 121.632812 327.753906 L 121.617188 327.683594 L 121.597656 327.609375 L 121.574219 327.542969 L 121.550781 327.472656 L 121.523438 327.40625 L 121.492188 327.339844 L 121.460938 327.277344 L 121.390625 327.152344 L 121.351562 327.097656 L 121.308594 327.039062 L 121.265625 326.988281 L 121.222656 326.933594 L 121.125 326.835938 L 121.070312 326.789062 L 120.960938 326.703125 L 120.902344 326.664062 L 120.839844 326.625 L 120.777344 326.589844 L 120.644531 326.527344 L 120.574219 326.496094 L 120.503906 326.472656 L 120.429688 326.449219 L 120.355469 326.429688 L 120.277344 326.410156 L 120.199219 326.394531 L 120.035156 326.371094 L 119.863281 326.363281 L 119.773438 326.359375 L 119.71875 326.359375 L 119.664062 326.363281 L 119.609375 326.363281 L 119.554688 326.367188 L 119.503906 326.371094 L 119.402344 326.386719 L 119.351562 326.390625 L 119.304688 326.402344 L 119.253906 326.410156 L 119.160156 326.433594 L 119.117188 326.445312 L 119.070312 326.457031 L 119.027344 326.46875 L 118.980469 326.484375 L 118.851562 326.53125 L 118.8125 326.546875 L 118.734375 326.585938 L 118.695312 326.601562 L 118.65625 326.621094 L 118.621094 326.644531 L 118.582031 326.664062 L 118.546875 326.6875 L 118.511719 326.707031 L 118.441406 326.753906 L 118.222656 326.917969 L 118.195312 326.941406 L 118.164062 326.96875 L 118.136719 326.992188 L 117.035156 326.992188 L 117.332031 322.253906 L 122.335938 322.253906 L 122.335938 323.210938 L 118.355469 323.210938 L 118.1875 326.003906 L 118.246094 325.957031 L 118.378906 325.871094 L 118.449219 325.832031 L 118.523438 325.789062 L 118.601562 325.75 L 118.679688 325.714844 L 118.761719 325.679688 L 118.847656 325.644531 L 118.9375 325.609375 L 119.027344 325.578125 L 119.222656 325.523438 L 119.324219 325.503906 L 119.429688 325.484375 L 119.539062 325.46875 L 119.648438 325.457031 L 119.765625 325.449219 L 119.882812 325.445312 L 120.003906 325.441406 L 120.136719 325.445312 L 120.261719 325.449219 L 120.386719 325.460938 L 120.507812 325.472656 L 120.628906 325.492188 L 120.746094 325.515625 L 120.859375 325.539062 L 120.972656 325.570312 L 121.082031 325.605469 L 121.1875 325.640625 L 121.390625 325.726562 L 121.488281 325.777344 L 121.582031 325.828125 L 121.671875 325.882812 L 121.761719 325.941406 L 121.84375 326.003906 L 121.925781 326.070312 L 122.003906 326.136719 L 122.082031 326.210938 L 122.222656 326.359375 L 122.347656 326.523438 L 122.40625 326.609375 L 122.460938 326.695312 L 122.515625 326.789062 L 122.5625 326.882812 L 122.648438 327.078125 L 122.6875 327.179688 L 122.722656 327.285156 L 122.75 327.390625 L 122.777344 327.5 L 122.800781 327.609375 L 122.832031 327.835938 L 122.847656 328.070312 Z M 122.847656 328.191406 "/>
<path style=" stroke:none;fill-rule:evenodd;fill:rgb(30.196078%,30.196078%,30.196078%);fill-opacity:1;" d="M 231.816406 331.058594 L 231.816406 330.105469 L 234.0625 330.105469 L 234.0625 323.328125 L 232.074219 324.746094 L 232.074219 323.683594 L 234.15625 322.253906 L 235.191406 322.253906 L 235.191406 330.105469 L 237.335938 330.105469 L 237.335938 331.058594 Z M 231.816406 331.058594 "/>
<path style=" stroke:none;fill-rule:evenodd;fill:rgb(30.196078%,30.196078%,30.196078%);fill-opacity:1;" d="M 239.128906 331.058594 L 239.128906 329.691406 L 240.347656 329.691406 L 240.347656 331.058594 Z M 239.128906 331.058594 "/>
<path style=" stroke:none;fill-rule:evenodd;fill:rgb(30.196078%,30.196078%,30.196078%);fill-opacity:1;" d="M 248.136719 326.652344 L 248.132812 326.902344 L 248.128906 327.144531 L 248.113281 327.378906 L 248.097656 327.605469 L 248.074219 327.824219 L 248.050781 328.03125 L 248.015625 328.234375 L 247.980469 328.429688 L 247.9375 328.613281 L 247.894531 328.792969 L 247.84375 328.960938 L 247.789062 329.125 L 247.734375 329.28125 L 247.675781 329.429688 L 247.609375 329.574219 L 247.542969 329.710938 L 247.472656 329.839844 L 247.398438 329.964844 L 247.320312 330.082031 L 247.238281 330.191406 L 247.152344 330.296875 L 247.066406 330.390625 L 246.976562 330.484375 L 246.882812 330.570312 L 246.785156 330.648438 L 246.6875 330.722656 L 246.585938 330.789062 L 246.480469 330.851562 L 246.371094 330.90625 L 246.261719 330.953125 L 246.148438 331 L 246.035156 331.039062 L 245.800781 331.101562 L 245.679688 331.128906 L 245.558594 331.148438 L 245.4375 331.164062 L 245.3125 331.175781 L 245.1875 331.183594 L 244.933594 331.183594 L 244.808594 331.175781 L 244.683594 331.164062 L 244.5625 331.148438 L 244.441406 331.128906 L 244.320312 331.101562 L 244.085938 331.039062 L 243.972656 331 L 243.863281 330.953125 L 243.75 330.90625 L 243.644531 330.851562 L 243.539062 330.789062 L 243.441406 330.722656 L 243.339844 330.648438 L 243.246094 330.570312 L 243.152344 330.484375 L 243.0625 330.390625 L 242.976562 330.296875 L 242.894531 330.191406 L 242.8125 330.082031 L 242.738281 329.964844 L 242.664062 329.84375 L 242.59375 329.714844 L 242.527344 329.578125 L 242.464844 329.433594 L 242.40625 329.285156 L 242.351562 329.128906 L 242.296875 328.96875 L 242.25 328.796875 L 242.207031 328.621094 L 242.164062 328.433594 L 242.132812 328.238281 L 242.101562 328.039062 L 242.074219 327.828125 L 242.054688 327.609375 L 242.039062 327.382812 L 242.027344 327.148438 L 242.019531 326.90625 L 242.019531 326.394531 L 242.027344 326.140625 L 242.039062 325.898438 L 242.054688 325.664062 L 242.074219 325.4375 L 242.101562 325.222656 L 242.132812 325.015625 L 242.164062 324.820312 L 242.207031 324.632812 L 242.25 324.453125 L 242.296875 324.28125 L 242.351562 324.117188 L 242.40625 323.960938 L 242.46875 323.8125 L 242.53125 323.667969 L 242.597656 323.53125 L 242.667969 323.402344 L 242.742188 323.28125 L 242.820312 323.167969 L 242.898438 323.058594 L 242.984375 322.960938 L 243.070312 322.867188 L 243.160156 322.777344 L 243.253906 322.695312 L 243.347656 322.621094 L 243.449219 322.550781 L 243.550781 322.488281 L 243.65625 322.429688 L 243.761719 322.378906 L 243.875 322.335938 L 244.101562 322.257812 L 244.222656 322.226562 L 244.339844 322.199219 L 244.460938 322.175781 L 244.585938 322.15625 L 244.710938 322.140625 L 244.96875 322.125 L 245.097656 322.121094 L 245.226562 322.125 L 245.46875 322.140625 L 245.589844 322.15625 L 245.710938 322.175781 L 245.828125 322.199219 L 245.941406 322.226562 L 246.058594 322.257812 L 246.167969 322.296875 L 246.28125 322.335938 L 246.390625 322.378906 L 246.496094 322.429688 L 246.601562 322.488281 L 246.703125 322.550781 L 246.800781 322.621094 L 246.894531 322.695312 L 246.988281 322.777344 L 247.078125 322.867188 L 247.164062 322.960938 L 247.25 323.058594 L 247.328125 323.167969 L 247.40625 323.28125 L 247.480469 323.402344 L 247.550781 323.53125 L 247.617188 323.667969 L 247.679688 323.8125 L 247.742188 323.960938 L 247.796875 324.117188 L 247.851562 324.28125 L 247.898438 324.453125 L 247.945312 324.632812 L 247.984375 324.820312 L 248.019531 325.015625 L 248.050781 325.222656 L 248.078125 325.4375 L 248.097656 325.664062 L 248.117188 325.898438 L 248.128906 326.140625 L 248.132812 326.394531 Z M 246.992188 326.652344 L 246.992188 326.449219 L 246.988281 326.25 L 246.980469 326.054688 L 246.972656 325.871094 L 246.960938 325.691406 L 246.949219 325.523438 L 246.933594 325.359375 L 246.914062 325.203125 L 246.890625 325.054688 L 246.867188 324.910156 L 246.839844 324.773438 L 246.8125 324.640625 L 246.78125 324.515625 L 246.75 324.394531 L 246.714844 324.28125 L 246.636719 324.070312 L 246.59375 323.972656 L 246.546875 323.882812 L 246.5 323.796875 L 246.449219 323.714844 L 246.398438 323.640625 L 246.34375 323.570312 L 246.285156 323.503906 L 246.226562 323.441406 L 246.167969 323.386719 L 246.101562 323.335938 L 246.039062 323.289062 L 245.96875 323.246094 L 245.828125 323.175781 L 245.679688 323.121094 L 245.601562 323.097656 L 245.523438 323.078125 L 245.441406 323.0625 L 245.359375 323.050781 L 245.273438 323.042969 L 245.1875 323.039062 L 245.097656 323.035156 L 245.003906 323.039062 L 244.914062 323.042969 L 244.824219 323.050781 L 244.738281 323.0625 L 244.652344 323.078125 L 244.570312 323.097656 L 244.488281 323.121094 L 244.410156 323.148438 L 244.335938 323.175781 L 244.261719 323.210938 L 244.191406 323.246094 L 244.121094 323.289062 L 244.054688 323.335938 L 243.988281 323.390625 L 243.925781 323.445312 L 243.867188 323.507812 L 243.808594 323.574219 L 243.753906 323.644531 L 243.699219 323.722656 L 243.648438 323.804688 L 243.601562 323.890625 L 243.554688 323.980469 L 243.511719 324.078125 L 243.472656 324.179688 L 243.433594 324.289062 L 243.398438 324.402344 L 243.367188 324.523438 L 243.335938 324.648438 L 243.308594 324.78125 L 243.28125 324.917969 L 243.257812 325.058594 L 243.234375 325.207031 L 243.214844 325.363281 L 243.199219 325.527344 L 243.1875 325.699219 L 243.175781 325.875 L 243.167969 326.058594 L 243.160156 326.25 L 243.15625 326.449219 L 243.15625 326.855469 L 243.160156 327.046875 L 243.167969 327.234375 L 243.175781 327.414062 L 243.1875 327.585938 L 243.199219 327.753906 L 243.214844 327.914062 L 243.234375 328.070312 L 243.257812 328.21875 L 243.28125 328.359375 L 243.308594 328.496094 L 243.335938 328.628906 L 243.371094 328.753906 L 243.402344 328.871094 L 243.441406 328.988281 L 243.476562 329.097656 L 243.519531 329.199219 L 243.5625 329.296875 L 243.609375 329.390625 L 243.65625 329.480469 L 243.707031 329.5625 L 243.757812 329.636719 L 243.816406 329.710938 L 243.871094 329.777344 L 243.992188 329.898438 L 244.058594 329.953125 L 244.191406 330.046875 L 244.261719 330.085938 L 244.332031 330.121094 L 244.410156 330.152344 L 244.484375 330.179688 L 244.5625 330.203125 L 244.644531 330.222656 L 244.726562 330.238281 L 244.808594 330.25 L 244.894531 330.257812 L 244.984375 330.265625 L 245.160156 330.265625 L 245.25 330.257812 L 245.332031 330.25 L 245.414062 330.238281 L 245.496094 330.222656 L 245.574219 330.203125 L 245.652344 330.179688 L 245.726562 330.152344 L 245.800781 330.121094 L 245.875 330.085938 L 245.945312 330.046875 L 246.078125 329.953125 L 246.140625 329.898438 L 246.203125 329.839844 L 246.261719 329.777344 L 246.316406 329.710938 L 246.425781 329.5625 L 246.472656 329.480469 L 246.523438 329.390625 L 246.570312 329.296875 L 246.613281 329.199219 L 246.65625 329.097656 L 246.695312 328.988281 L 246.765625 328.753906 L 246.796875 328.628906 L 246.828125 328.496094 L 246.855469 328.359375 L 246.882812 328.21875 L 246.90625 328.070312 L 246.925781 327.914062 L 246.945312 327.753906 L 246.957031 327.585938 L 246.972656 327.414062 L 246.980469 327.234375 L 246.988281 327.046875 L 246.992188 326.855469 Z M 246.992188 326.652344 "/>
<path style=" stroke:none;fill-rule:evenodd;fill:rgb(30.196078%,30.196078%,30.196078%);fill-opacity:1;" d="M 357.066406 331.058594 L 357.066406 330.105469 L 359.3125 330.105469 L 359.3125 323.328125 L 357.324219 324.746094 L 357.324219 323.683594 L 359.40625 322.253906 L 360.441406 322.253906 L 360.441406 330.105469 L 362.585938 330.105469 L 362.585938 331.058594 Z M 357.066406 331.058594 "/>
<path style=" stroke:none;fill-rule:evenodd;fill:rgb(30.196078%,30.196078%,30.196078%);fill-opacity:1;" d="M 364.378906 331.058594 L 364.378906 329.691406 L 365.597656 329.691406 L 365.597656 331.058594 Z M 364.378906 331.058594 "/>
<path style=" stroke:none;fill-rule:evenodd;fill:rgb(30.196078%,30.196078%,30.196078%);fill-opacity:1;" d="M 373.347656 328.191406 L 373.347656 328.324219 L 373.339844 328.453125 L 373.332031 328.578125 L 373.316406 328.703125 L 373.300781 328.824219 L 373.277344 328.945312 L 373.222656 329.179688 L 373.1875 329.292969 L 373.109375 329.511719 L 373.0625 329.617188 L 373.011719 329.722656 L 372.902344 329.917969 L 372.839844 330.011719 L 372.773438 330.101562 L 372.707031 330.1875 L 372.632812 330.273438 L 372.554688 330.355469 L 372.476562 330.429688 L 372.390625 330.503906 L 372.300781 330.574219 L 372.210938 330.640625 L 372.113281 330.703125 L 372.011719 330.765625 L 371.910156 330.820312 L 371.691406 330.921875 L 371.457031 331.007812 L 371.335938 331.046875 L 371.207031 331.078125 L 371.078125 331.105469 L 370.945312 331.128906 L 370.808594 331.152344 L 370.667969 331.164062 L 370.523438 331.175781 L 370.375 331.183594 L 370.085938 331.183594 L 369.953125 331.179688 L 369.824219 331.171875 L 369.699219 331.160156 L 369.574219 331.144531 L 369.453125 331.128906 L 369.226562 331.082031 L 369.117188 331.054688 L 369.011719 331.023438 L 368.910156 330.988281 L 368.8125 330.953125 L 368.71875 330.914062 L 368.628906 330.875 L 368.539062 330.832031 L 368.453125 330.785156 L 368.371094 330.738281 L 368.292969 330.6875 L 368.214844 330.632812 L 368.144531 330.578125 L 368.074219 330.519531 L 368.007812 330.460938 L 367.941406 330.398438 L 367.882812 330.335938 L 367.824219 330.269531 L 367.765625 330.199219 L 367.664062 330.058594 L 367.617188 329.984375 L 367.574219 329.910156 L 367.496094 329.753906 L 367.460938 329.675781 L 367.429688 329.597656 L 367.398438 329.515625 L 367.371094 329.433594 L 367.34375 329.347656 L 367.320312 329.265625 L 367.300781 329.179688 L 367.28125 329.089844 L 368.417969 328.960938 L 368.433594 329.011719 L 368.449219 329.058594 L 368.480469 329.160156 L 368.5 329.207031 L 368.519531 329.257812 L 368.542969 329.304688 L 368.5625 329.351562 L 368.585938 329.398438 L 368.613281 329.449219 L 368.636719 329.492188 L 368.664062 329.539062 L 368.757812 329.667969 L 368.792969 329.710938 L 368.828125 329.75 L 368.90625 329.828125 L 368.949219 329.867188 L 368.996094 329.902344 L 369.039062 329.9375 L 369.191406 330.03125 L 369.300781 330.085938 L 369.359375 330.113281 L 369.417969 330.136719 L 369.480469 330.160156 L 369.613281 330.199219 L 369.683594 330.214844 L 369.832031 330.238281 L 369.910156 330.25 L 369.992188 330.257812 L 370.074219 330.261719 L 370.160156 330.265625 L 370.335938 330.265625 L 370.421875 330.261719 L 370.585938 330.246094 L 370.667969 330.234375 L 370.746094 330.21875 L 370.820312 330.203125 L 370.898438 330.183594 L 370.972656 330.160156 L 371.042969 330.136719 L 371.113281 330.105469 L 371.246094 330.042969 L 371.3125 330.003906 L 371.371094 329.964844 L 371.433594 329.925781 L 371.488281 329.882812 L 371.546875 329.835938 L 371.699219 329.683594 L 371.792969 329.566406 L 371.835938 329.507812 L 371.875 329.441406 L 371.914062 329.378906 L 371.984375 329.238281 L 372.015625 329.167969 L 372.042969 329.089844 L 372.070312 329.015625 L 372.09375 328.933594 L 372.132812 328.769531 L 372.144531 328.683594 L 372.160156 328.59375 L 372.167969 328.503906 L 372.175781 328.410156 L 372.179688 328.3125 L 372.179688 328.136719 L 372.175781 328.058594 L 372.160156 327.902344 L 372.148438 327.828125 L 372.132812 327.753906 L 372.117188 327.683594 L 372.097656 327.609375 L 372.074219 327.542969 L 372.050781 327.472656 L 372.023438 327.40625 L 371.992188 327.339844 L 371.960938 327.277344 L 371.890625 327.152344 L 371.851562 327.097656 L 371.8125 327.039062 L 371.765625 326.988281 L 371.722656 326.933594 L 371.625 326.835938 L 371.574219 326.789062 L 371.519531 326.746094 L 371.460938 326.703125 L 371.402344 326.664062 L 371.339844 326.625 L 371.277344 326.589844 L 371.144531 326.527344 L 371.074219 326.496094 L 371.003906 326.472656 L 370.929688 326.449219 L 370.855469 326.429688 L 370.777344 326.410156 L 370.699219 326.394531 L 370.535156 326.371094 L 370.363281 326.363281 L 370.273438 326.359375 L 370.21875 326.359375 L 370.164062 326.363281 L 370.109375 326.363281 L 370.054688 326.367188 L 370.003906 326.371094 L 369.902344 326.386719 L 369.851562 326.390625 L 369.804688 326.402344 L 369.753906 326.410156 L 369.660156 326.433594 L 369.617188 326.445312 L 369.570312 326.457031 L 369.527344 326.46875 L 369.480469 326.484375 L 369.394531 326.515625 L 369.355469 326.53125 L 369.3125 326.546875 L 369.234375 326.585938 L 369.195312 326.601562 L 369.15625 326.621094 L 369.121094 326.644531 L 369.082031 326.664062 L 369.046875 326.6875 L 369.011719 326.707031 L 368.941406 326.753906 L 368.753906 326.894531 L 368.726562 326.917969 L 368.695312 326.941406 L 368.664062 326.96875 L 368.636719 326.992188 L 367.535156 326.992188 L 367.832031 322.253906 L 372.835938 322.253906 L 372.835938 323.210938 L 368.855469 323.210938 L 368.6875 326.003906 L 368.75 325.957031 L 368.8125 325.914062 L 368.878906 325.871094 L 368.949219 325.832031 L 369.023438 325.789062 L 369.101562 325.75 L 369.179688 325.714844 L 369.261719 325.679688 L 369.347656 325.644531 L 369.4375 325.609375 L 369.527344 325.578125 L 369.722656 325.523438 L 369.824219 325.503906 L 369.929688 325.484375 L 370.039062 325.46875 L 370.148438 325.457031 L 370.265625 325.449219 L 370.382812 325.445312 L 370.503906 325.441406 L 370.636719 325.445312 L 370.761719 325.449219 L 370.886719 325.460938 L 371.007812 325.472656 L 371.128906 325.492188 L 371.246094 325.515625 L 371.359375 325.539062 L 371.472656 325.570312 L 371.582031 325.605469 L 371.6875 325.640625 L 371.890625 325.726562 L 371.988281 325.777344 L 372.082031 325.828125 L 372.171875 325.882812 L 372.261719 325.941406 L 372.34375 326.003906 L 372.425781 326.070312 L 372.503906 326.136719 L 372.582031 326.210938 L 372.722656 326.359375 L 372.847656 326.523438 L 372.90625 326.609375 L 372.960938 326.695312 L 373.015625 326.789062 L 373.0625 326.882812 L 373.109375 326.980469 L 373.148438 327.078125 L 373.1875 327.179688 L 373.222656 327.285156 L 373.25 327.390625 L 373.277344 327.5 L 373.300781 327.609375 L 373.332031 327.835938 L 373.347656 328.070312 Z M 373.347656 328.191406 "/>
<path style=" stroke:none;fill-rule:evenodd;fill:rgb(30.196078%,30.196078%,30.196078%);fill-opacity:1;" d="M 481.988281 331.058594 L 481.988281 330.265625 L 482.050781 330.121094 L 482.121094 329.980469 L 482.191406 329.84375 L 482.339844 329.578125 L 482.417969 329.453125 L 482.5 329.328125 L 482.585938 329.207031 L 482.671875 329.09375 L 482.761719 328.980469 L 482.855469 328.867188 L 482.949219 328.757812 L 483.042969 328.652344 L 483.140625 328.546875 L 483.234375 328.445312 L 483.332031 328.34375 L 483.429688 328.246094 L 483.53125 328.152344 L 483.628906 328.058594 L 483.730469 327.964844 L 483.933594 327.785156 L 484.035156 327.699219 L 484.132812 327.613281 L 484.234375 327.527344 L 484.335938 327.445312 L 484.53125 327.28125 L 484.632812 327.199219 L 484.730469 327.121094 L 484.828125 327.046875 L 485.023438 326.890625 L 485.113281 326.8125 L 485.207031 326.734375 L 485.296875 326.65625 L 485.382812 326.582031 L 485.46875 326.503906 L 485.632812 326.347656 L 485.710938 326.269531 L 485.785156 326.191406 L 485.855469 326.113281 L 485.925781 326.03125 L 485.992188 325.949219 L 486.054688 325.871094 L 486.113281 325.785156 L 486.171875 325.703125 L 486.222656 325.621094 L 486.273438 325.535156 L 486.320312 325.449219 L 486.363281 325.359375 L 486.402344 325.269531 L 486.433594 325.175781 L 486.460938 325.082031 L 486.484375 324.984375 L 486.503906 324.886719 L 486.515625 324.785156 L 486.523438 324.679688 L 486.523438 324.5 L 486.519531 324.425781 L 486.515625 324.355469 L 486.507812 324.289062 L 486.484375 324.15625 L 486.453125 324.03125 L 486.433594 323.972656 L 486.414062 323.917969 L 486.390625 323.859375 L 486.363281 323.804688 L 486.335938 323.753906 L 486.273438 323.652344 L 486.242188 323.605469 L 486.207031 323.558594 L 486.167969 323.515625 L 486.085938 323.433594 L 486 323.363281 L 485.953125 323.328125 L 485.851562 323.265625 L 485.800781 323.238281 L 485.691406 323.191406 L 485.632812 323.167969 L 485.515625 323.128906 L 485.328125 323.082031 L 485.265625 323.074219 L 485.199219 323.0625 L 485.128906 323.058594 L 485.0625 323.050781 L 484.992188 323.050781 L 484.917969 323.046875 L 484.851562 323.050781 L 484.785156 323.050781 L 484.71875 323.054688 L 484.65625 323.0625 L 484.589844 323.070312 L 484.464844 323.09375 L 484.339844 323.125 L 484.28125 323.140625 L 484.222656 323.160156 L 484.164062 323.183594 L 484.054688 323.230469 L 484.003906 323.257812 L 483.949219 323.289062 L 483.898438 323.320312 L 483.851562 323.351562 L 483.757812 323.421875 L 483.710938 323.460938 L 483.667969 323.5 L 483.625 323.542969 L 483.585938 323.589844 L 483.546875 323.632812 L 483.507812 323.683594 L 483.472656 323.730469 L 483.4375 323.78125 L 483.375 323.890625 L 483.347656 323.949219 L 483.320312 324.003906 L 483.296875 324.066406 L 483.277344 324.125 L 483.257812 324.191406 L 483.238281 324.253906 L 483.222656 324.324219 L 483.207031 324.390625 L 483.195312 324.460938 L 483.1875 324.535156 L 482.039062 324.429688 L 482.050781 324.335938 L 482.066406 324.242188 L 482.085938 324.148438 L 482.105469 324.058594 L 482.160156 323.878906 L 482.222656 323.707031 L 482.300781 323.535156 L 482.386719 323.371094 L 482.4375 323.292969 L 482.488281 323.21875 L 482.546875 323.144531 L 482.601562 323.070312 L 482.664062 323 L 482.796875 322.867188 L 482.867188 322.804688 L 482.941406 322.742188 L 483.097656 322.625 L 483.179688 322.570312 L 483.265625 322.519531 L 483.445312 322.425781 L 483.539062 322.382812 L 483.636719 322.34375 L 483.738281 322.304688 L 483.839844 322.269531 L 483.949219 322.238281 L 484.058594 322.210938 L 484.171875 322.1875 L 484.289062 322.167969 L 484.410156 322.152344 L 484.53125 322.140625 L 484.65625 322.128906 L 484.785156 322.125 L 484.917969 322.121094 L 485.175781 322.128906 L 485.300781 322.136719 L 485.421875 322.148438 L 485.539062 322.160156 L 485.765625 322.199219 L 485.875 322.222656 L 485.984375 322.25 L 486.085938 322.277344 L 486.1875 322.3125 L 486.285156 322.347656 L 486.378906 322.386719 L 486.472656 322.429688 L 486.558594 322.472656 L 486.644531 322.519531 L 486.726562 322.570312 L 486.804688 322.625 L 486.878906 322.683594 L 486.949219 322.742188 L 487.019531 322.804688 L 487.085938 322.871094 L 487.148438 322.9375 L 487.207031 323.007812 L 487.265625 323.082031 L 487.316406 323.160156 L 487.367188 323.242188 L 487.410156 323.324219 L 487.453125 323.410156 L 487.492188 323.496094 L 487.5625 323.683594 L 487.589844 323.78125 L 487.613281 323.878906 L 487.632812 323.980469 L 487.652344 324.085938 L 487.664062 324.195312 L 487.671875 324.304688 L 487.679688 324.417969 L 487.679688 324.625 L 487.675781 324.710938 L 487.667969 324.796875 L 487.65625 324.882812 L 487.640625 324.96875 L 487.621094 325.050781 L 487.601562 325.136719 L 487.578125 325.21875 L 487.550781 325.296875 L 487.519531 325.378906 L 487.484375 325.457031 L 487.453125 325.539062 L 487.414062 325.617188 L 487.375 325.691406 L 487.335938 325.769531 L 487.289062 325.847656 L 487.246094 325.921875 L 487.144531 326.070312 L 487.09375 326.140625 L 487.039062 326.214844 L 486.929688 326.355469 L 486.871094 326.425781 L 486.683594 326.636719 L 486.617188 326.707031 L 486.550781 326.773438 L 486.480469 326.839844 L 486.410156 326.910156 L 486.269531 327.042969 L 486.195312 327.109375 L 486.125 327.175781 L 485.902344 327.375 L 485.824219 327.4375 L 485.75 327.503906 L 485.671875 327.566406 L 485.597656 327.632812 L 485.519531 327.695312 L 485.445312 327.757812 L 485.367188 327.824219 L 485.289062 327.886719 L 485.214844 327.949219 L 485.136719 328.015625 L 484.902344 328.203125 L 484.753906 328.328125 L 484.679688 328.394531 L 484.53125 328.519531 L 484.390625 328.644531 L 484.320312 328.710938 L 484.25 328.773438 L 484.183594 328.835938 L 484.054688 328.964844 L 483.992188 329.03125 L 483.929688 329.09375 L 483.8125 329.226562 L 483.753906 329.289062 L 483.589844 329.488281 L 483.539062 329.554688 L 483.492188 329.621094 L 483.40625 329.753906 L 483.363281 329.824219 L 483.324219 329.894531 L 483.289062 329.964844 L 483.226562 330.105469 L 487.820312 330.105469 L 487.820312 331.058594 Z M 481.988281 331.058594 "/>
<path style=" stroke:none;fill-rule:evenodd;fill:rgb(30.196078%,30.196078%,30.196078%);fill-opacity:1;" d="M 489.632812 331.058594 L 489.632812 329.691406 L 490.851562 329.691406 L 490.851562 331.058594 Z M 489.632812 331.058594 "/>
<path style=" stroke:none;fill-rule:evenodd;fill:rgb(30.196078%,30.196078%,30.196078%);fill-opacity:1;" d="M 498.636719 326.652344 L 498.636719 326.902344 L 498.628906 327.144531 L 498.617188 327.378906 L 498.597656 327.605469 L 498.578125 327.824219 L 498.550781 328.03125 L 498.519531 328.234375 L 498.480469 328.429688 L 498.441406 328.613281 L 498.394531 328.792969 L 498.34375 328.960938 L 498.292969 329.125 L 498.234375 329.28125 L 498.175781 329.429688 L 498.109375 329.574219 L 498.042969 329.710938 L 497.972656 329.839844 L 497.898438 329.964844 L 497.820312 330.082031 L 497.738281 330.191406 L 497.652344 330.296875 L 497.566406 330.390625 L 497.476562 330.484375 L 497.382812 330.570312 L 497.289062 330.648438 L 497.1875 330.722656 L 497.085938 330.789062 L 496.980469 330.851562 L 496.875 330.90625 L 496.648438 331 L 496.535156 331.039062 L 496.300781 331.101562 L 496.179688 331.128906 L 496.058594 331.148438 L 495.9375 331.164062 L 495.8125 331.175781 L 495.6875 331.183594 L 495.433594 331.183594 L 495.308594 331.175781 L 495.183594 331.164062 L 495.0625 331.148438 L 494.941406 331.128906 L 494.820312 331.101562 L 494.703125 331.070312 L 494.589844 331.039062 L 494.472656 331 L 494.253906 330.90625 L 494.144531 330.851562 L 494.042969 330.789062 L 493.941406 330.722656 L 493.84375 330.648438 L 493.746094 330.570312 L 493.652344 330.484375 L 493.5625 330.390625 L 493.476562 330.296875 L 493.394531 330.191406 L 493.3125 330.082031 L 493.238281 329.964844 L 493.164062 329.84375 L 493.09375 329.714844 L 493.03125 329.578125 L 492.964844 329.433594 L 492.90625 329.285156 L 492.851562 329.128906 L 492.800781 328.96875 L 492.75 328.796875 L 492.707031 328.621094 L 492.667969 328.433594 L 492.632812 328.238281 L 492.601562 328.039062 L 492.578125 327.828125 L 492.554688 327.609375 L 492.539062 327.382812 L 492.527344 327.148438 L 492.519531 326.90625 L 492.519531 326.394531 L 492.527344 326.140625 L 492.539062 325.898438 L 492.554688 325.664062 L 492.578125 325.4375 L 492.601562 325.222656 L 492.632812 325.015625 L 492.667969 324.820312 L 492.707031 324.632812 L 492.75 324.453125 L 492.800781 324.28125 L 492.851562 324.117188 L 492.90625 323.960938 L 492.96875 323.8125 L 493.03125 323.667969 L 493.097656 323.53125 L 493.167969 323.402344 L 493.242188 323.28125 L 493.320312 323.167969 L 493.398438 323.058594 L 493.484375 322.960938 L 493.570312 322.867188 L 493.660156 322.777344 L 493.753906 322.695312 L 493.851562 322.621094 L 493.949219 322.550781 L 494.050781 322.488281 L 494.15625 322.429688 L 494.265625 322.378906 L 494.375 322.335938 L 494.488281 322.296875 L 494.605469 322.257812 L 494.722656 322.226562 L 494.839844 322.199219 L 494.960938 322.175781 L 495.085938 322.15625 L 495.210938 322.140625 L 495.46875 322.125 L 495.601562 322.121094 L 495.726562 322.125 L 495.847656 322.132812 L 495.972656 322.140625 L 496.089844 322.15625 L 496.210938 322.175781 L 496.328125 322.199219 L 496.445312 322.226562 L 496.558594 322.257812 L 496.671875 322.296875 L 496.78125 322.335938 L 496.890625 322.378906 L 496.996094 322.429688 L 497.101562 322.488281 L 497.203125 322.550781 L 497.300781 322.621094 L 497.398438 322.695312 L 497.488281 322.777344 L 497.578125 322.867188 L 497.664062 322.960938 L 497.75 323.058594 L 497.832031 323.167969 L 497.90625 323.28125 L 497.980469 323.402344 L 498.050781 323.53125 L 498.117188 323.667969 L 498.183594 323.8125 L 498.242188 323.960938 L 498.296875 324.117188 L 498.351562 324.28125 L 498.398438 324.453125 L 498.445312 324.632812 L 498.484375 324.820312 L 498.519531 325.015625 L 498.550781 325.222656 L 498.578125 325.4375 L 498.597656 325.664062 L 498.617188 325.898438 L 498.628906 326.140625 L 498.636719 326.394531 Z M 497.492188 326.652344 L 497.492188 326.449219 L 497.488281 326.25 L 497.480469 326.054688 L 497.472656 325.871094 L 497.460938 325.691406 L 497.449219 325.523438 L 497.433594 325.359375 L 497.414062 325.203125 L 497.390625 325.054688 L 497.367188 324.910156 L 497.34375 324.773438 L 497.3125 324.640625 L 497.28125 324.515625 L 497.25 324.394531 L 497.214844 324.28125 L 497.136719 324.070312 L 497.09375 323.972656 L 497.046875 323.882812 L 497 323.796875 L 496.949219 323.714844 L 496.898438 323.640625 L 496.84375 323.570312 L 496.785156 323.503906 L 496.726562 323.441406 L 496.667969 323.386719 L 496.601562 323.335938 L 496.539062 323.289062 L 496.46875 323.246094 L 496.328125 323.175781 L 496.179688 323.121094 L 496.105469 323.097656 L 496.023438 323.078125 L 495.945312 323.0625 L 495.859375 323.050781 L 495.777344 323.042969 L 495.6875 323.039062 L 495.601562 323.035156 L 495.414062 323.042969 L 495.324219 323.050781 L 495.238281 323.0625 L 495.152344 323.078125 L 495.070312 323.097656 L 494.988281 323.121094 L 494.910156 323.148438 L 494.835938 323.175781 L 494.761719 323.210938 L 494.691406 323.246094 L 494.621094 323.289062 L 494.554688 323.335938 L 494.429688 323.445312 L 494.367188 323.507812 L 494.308594 323.574219 L 494.253906 323.644531 L 494.199219 323.722656 L 494.148438 323.804688 L 494.101562 323.890625 L 494.058594 323.980469 L 494.015625 324.078125 L 493.972656 324.179688 L 493.9375 324.289062 L 493.898438 324.402344 L 493.867188 324.523438 L 493.835938 324.648438 L 493.808594 324.78125 L 493.78125 324.917969 L 493.757812 325.058594 L 493.734375 325.207031 L 493.71875 325.363281 L 493.699219 325.527344 L 493.6875 325.699219 L 493.675781 325.875 L 493.667969 326.058594 L 493.660156 326.25 L 493.65625 326.449219 L 493.65625 326.855469 L 493.660156 327.046875 L 493.667969 327.234375 L 493.675781 327.414062 L 493.6875 327.585938 L 493.699219 327.753906 L 493.71875 327.914062 L 493.734375 328.070312 L 493.757812 328.21875 L 493.78125 328.359375 L 493.808594 328.496094 L 493.839844 328.628906 L 493.871094 328.753906 L 493.902344 328.871094 L 493.941406 328.988281 L 493.980469 329.097656 L 494.019531 329.199219 L 494.0625 329.296875 L 494.109375 329.390625 L 494.15625 329.480469 L 494.207031 329.5625 L 494.316406 329.710938 L 494.371094 329.777344 L 494.433594 329.839844 L 494.496094 329.898438 L 494.558594 329.953125 L 494.691406 330.046875 L 494.761719 330.085938 L 494.835938 330.121094 L 494.910156 330.152344 L 494.984375 330.179688 L 495.0625 330.203125 L 495.144531 330.222656 L 495.226562 330.238281 L 495.308594 330.25 L 495.394531 330.257812 L 495.484375 330.265625 L 495.664062 330.265625 L 495.75 330.257812 L 495.832031 330.25 L 495.914062 330.238281 L 495.996094 330.222656 L 496.074219 330.203125 L 496.152344 330.179688 L 496.230469 330.152344 L 496.300781 330.121094 L 496.375 330.085938 L 496.445312 330.046875 L 496.578125 329.953125 L 496.640625 329.898438 L 496.703125 329.839844 L 496.761719 329.777344 L 496.820312 329.710938 L 496.871094 329.636719 L 496.925781 329.5625 L 496.976562 329.480469 L 497.023438 329.390625 L 497.070312 329.296875 L 497.113281 329.199219 L 497.15625 329.097656 L 497.195312 328.988281 L 497.265625 328.753906 L 497.296875 328.628906 L 497.328125 328.496094 L 497.355469 328.359375 L 497.382812 328.21875 L 497.40625 328.070312 L 497.425781 327.914062 L 497.445312 327.753906 L 497.460938 327.585938 L 497.472656 327.414062 L 497.480469 327.234375 L 497.488281 327.046875 L 497.492188 326.855469 Z M 497.492188 326.652344 "/>
<path style=" stroke:none;fill-rule:evenodd;fill:rgb(0%,0%,0%);fill-opacity:1;" d="M 269.019531 348.710938 L 268.902344 349.007812 L 268.839844 349.15625 L 268.78125 349.296875 L 268.71875 349.4375 L 268.660156 349.570312 L 268.535156 349.835938 L 268.410156 350.085938 L 268.351562 350.207031 L 268.285156 350.324219 L 268.222656 350.4375 L 268.15625 350.546875 L 268.085938 350.65625 L 268.019531 350.757812 L 267.945312 350.855469 L 267.875 350.953125 L 267.800781 351.042969 L 267.722656 351.132812 L 267.648438 351.21875 L 267.566406 351.296875 L 267.488281 351.375 L 267.40625 351.449219 L 267.234375 351.582031 L 267.144531 351.640625 L 267.058594 351.695312 L 266.964844 351.75 L 266.871094 351.796875 L 266.777344 351.839844 L 266.679688 351.878906 L 266.578125 351.914062 L 266.476562 351.945312 L 266.367188 351.972656 L 266.257812 351.992188 L 266.148438 352.007812 L 266.03125 352.019531 L 265.914062 352.027344 L 265.792969 352.03125 L 265.742188 352.03125 L 265.691406 352.027344 L 265.539062 352.027344 L 265.488281 352.023438 L 265.441406 352.023438 L 265.347656 352.015625 L 265.300781 352.015625 L 265.257812 352.011719 L 265.210938 352.007812 L 265.164062 352 L 265.117188 351.996094 L 265.023438 351.980469 L 264.972656 351.972656 L 264.925781 351.964844 L 264.875 351.953125 L 264.824219 351.945312 L 264.824219 350.890625 L 264.949219 350.90625 L 264.984375 350.910156 L 265.019531 350.910156 L 265.089844 350.917969 L 265.125 350.917969 L 265.160156 350.921875 L 265.199219 350.921875 L 265.269531 350.929688 L 265.304688 350.929688 L 265.335938 350.933594 L 265.425781 350.933594 L 265.457031 350.9375 L 265.480469 350.9375 L 265.605469 350.929688 L 265.726562 350.917969 L 265.84375 350.894531 L 265.960938 350.863281 L 266.078125 350.820312 L 266.191406 350.769531 L 266.304688 350.710938 L 266.414062 350.640625 L 266.523438 350.5625 L 266.628906 350.476562 L 266.734375 350.378906 L 266.835938 350.269531 L 266.9375 350.148438 L 267.035156 350.019531 L 267.128906 349.878906 L 267.21875 349.726562 L 267.308594 349.5625 L 267.394531 349.386719 L 267.480469 349.203125 L 267.558594 349.007812 L 267.691406 348.671875 L 264.339844 340.257812 L 265.839844 340.257812 L 267.621094 344.929688 L 267.640625 344.972656 L 267.671875 345.066406 L 267.730469 345.230469 L 267.75 345.292969 L 267.773438 345.355469 L 267.796875 345.421875 L 267.816406 345.492188 L 267.84375 345.5625 L 267.890625 345.703125 L 267.917969 345.773438 L 268.058594 346.195312 L 268.085938 346.261719 L 268.109375 346.332031 L 268.15625 346.464844 L 268.175781 346.527344 L 268.199219 346.589844 L 268.21875 346.652344 L 268.242188 346.710938 L 268.261719 346.769531 L 268.277344 346.828125 L 268.296875 346.882812 L 268.328125 346.976562 L 268.339844 347.019531 L 268.363281 347.089844 L 268.371094 347.117188 L 268.378906 347.140625 L 268.382812 347.164062 L 268.386719 347.179688 L 268.394531 347.160156 L 268.398438 347.136719 L 268.40625 347.113281 L 268.417969 347.082031 L 268.425781 347.050781 L 268.4375 347.015625 L 268.453125 346.976562 L 268.464844 346.9375 L 268.496094 346.84375 L 268.515625 346.789062 L 268.535156 346.738281 L 268.574219 346.628906 L 268.59375 346.570312 L 268.617188 346.511719 L 268.65625 346.394531 L 268.679688 346.335938 L 268.699219 346.273438 L 268.746094 346.148438 L 268.769531 346.082031 L 268.863281 345.832031 L 268.886719 345.765625 L 268.933594 345.640625 L 268.957031 345.574219 L 268.980469 345.515625 L 269.003906 345.453125 L 269.023438 345.398438 L 269.042969 345.339844 L 269.0625 345.285156 L 269.082031 345.234375 L 269.113281 345.132812 L 269.128906 345.085938 L 270.785156 340.257812 L 272.269531 340.257812 Z M 269.019531 348.710938 "/>
<path style=" stroke:none;fill-rule:evenodd;fill:rgb(0%,0%,0%);fill-opacity:1;" d="M 16.640625 160.769531 L 16.757812 160.769531 L 16.875 160.777344 L 16.988281 160.789062 L 17.097656 160.804688 L 17.308594 160.851562 L 17.410156 160.882812 L 17.511719 160.917969 L 17.609375 160.957031 L 17.796875 161.050781 L 17.882812 161.101562 L 17.96875 161.15625 L 18.050781 161.21875 L 18.128906 161.28125 L 18.207031 161.351562 L 18.28125 161.421875 L 18.351562 161.5 L 18.421875 161.582031 L 18.546875 161.753906 L 18.605469 161.847656 L 18.660156 161.945312 L 18.714844 162.046875 L 18.808594 162.265625 L 18.855469 162.378906 L 18.894531 162.496094 L 18.933594 162.617188 L 18.96875 162.746094 L 19 162.871094 L 19.027344 163.003906 L 19.054688 163.140625 L 19.074219 163.28125 L 19.09375 163.425781 L 19.109375 163.570312 L 19.121094 163.722656 L 19.128906 163.875 L 19.132812 164.035156 L 19.132812 164.34375 L 19.125 164.625 L 19.117188 164.761719 L 19.105469 164.898438 L 19.09375 165.027344 L 19.078125 165.15625 L 19.039062 165.40625 L 19.015625 165.527344 L 18.96875 165.753906 L 18.90625 165.972656 L 18.871094 166.078125 L 18.835938 166.179688 L 18.796875 166.277344 L 18.753906 166.375 L 18.707031 166.464844 L 18.65625 166.558594 L 18.605469 166.644531 L 18.550781 166.730469 L 18.492188 166.8125 L 18.433594 166.890625 L 18.367188 166.96875 L 18.300781 167.039062 L 18.230469 167.113281 L 18.082031 167.246094 L 18 167.308594 L 17.917969 167.363281 L 17.738281 167.472656 L 17.542969 167.566406 L 17.441406 167.605469 L 17.222656 167.683594 L 17.109375 167.714844 L 16.992188 167.746094 L 16.75 166.503906 L 16.882812 166.460938 L 17.007812 166.414062 L 17.125 166.359375 L 17.238281 166.296875 L 17.339844 166.226562 L 17.4375 166.148438 L 17.527344 166.0625 L 17.609375 165.96875 L 17.683594 165.867188 L 17.75 165.761719 L 17.8125 165.644531 L 17.863281 165.515625 L 17.910156 165.382812 L 17.953125 165.238281 L 17.984375 165.089844 L 18.015625 164.925781 L 18.035156 164.757812 L 18.050781 164.578125 L 18.0625 164.394531 L 18.0625 164.019531 L 18.054688 163.847656 L 18.046875 163.765625 L 18.042969 163.683594 L 18.035156 163.601562 L 18.011719 163.445312 L 18 163.371094 L 17.988281 163.292969 L 17.972656 163.21875 L 17.957031 163.148438 L 17.917969 163.015625 L 17.894531 162.949219 L 17.871094 162.886719 L 17.847656 162.828125 L 17.820312 162.769531 L 17.757812 162.660156 L 17.6875 162.558594 L 17.652344 162.515625 L 17.609375 162.472656 L 17.570312 162.429688 L 17.527344 162.390625 L 17.433594 162.320312 L 17.382812 162.292969 L 17.332031 162.261719 L 17.277344 162.234375 L 17.21875 162.210938 L 17.160156 162.191406 L 17.097656 162.175781 L 17.03125 162.160156 L 16.964844 162.148438 L 16.898438 162.140625 L 16.824219 162.136719 L 16.675781 162.136719 L 16.605469 162.140625 L 16.535156 162.152344 L 16.46875 162.164062 L 16.402344 162.179688 L 16.34375 162.199219 L 16.285156 162.222656 L 16.230469 162.25 L 16.175781 162.28125 L 16.125 162.316406 L 16.078125 162.351562 L 16.03125 162.390625 L 15.984375 162.433594 L 15.941406 162.480469 L 15.855469 162.582031 L 15.820312 162.636719 L 15.78125 162.691406 L 15.710938 162.816406 L 15.679688 162.878906 L 15.617188 163.019531 L 15.589844 163.09375 L 15.558594 163.171875 L 15.53125 163.25 L 15.503906 163.332031 L 15.480469 163.417969 L 15.453125 163.503906 L 15.429688 163.597656 L 15.40625 163.6875 L 15.378906 163.78125 L 15.355469 163.875 L 15.328125 163.972656 L 15.300781 164.074219 L 15.273438 164.171875 L 15.246094 164.277344 L 15.214844 164.382812 L 15.1875 164.488281 L 15.15625 164.597656 L 15.128906 164.699219 L 15.101562 164.796875 L 15.046875 165 L 15.015625 165.101562 L 14.988281 165.203125 L 14.957031 165.304688 L 14.925781 165.402344 L 14.894531 165.503906 L 14.859375 165.605469 L 14.828125 165.703125 L 14.792969 165.800781 L 14.714844 165.988281 L 14.671875 166.082031 L 14.628906 166.171875 L 14.535156 166.34375 L 14.484375 166.429688 L 14.429688 166.511719 L 14.375 166.589844 L 14.316406 166.664062 L 14.191406 166.804688 L 14.125 166.871094 L 14.058594 166.933594 L 13.988281 166.996094 L 13.914062 167.050781 L 13.757812 167.160156 L 13.675781 167.207031 L 13.589844 167.25 L 13.5 167.285156 L 13.40625 167.320312 L 13.308594 167.347656 L 13.207031 167.367188 L 13.101562 167.386719 L 12.992188 167.398438 L 12.878906 167.40625 L 12.757812 167.410156 L 12.535156 167.398438 L 12.320312 167.375 L 12.117188 167.335938 L 11.921875 167.277344 L 11.742188 167.203125 L 11.570312 167.113281 L 11.414062 167.007812 L 11.265625 166.882812 L 11.128906 166.742188 L 11 166.589844 L 10.886719 166.414062 L 10.78125 166.226562 L 10.691406 166.023438 L 10.613281 165.804688 L 10.542969 165.574219 L 10.488281 165.324219 L 10.445312 165.0625 L 10.417969 164.78125 L 10.398438 164.488281 L 10.390625 164.183594 L 10.398438 163.90625 L 10.410156 163.644531 L 10.4375 163.394531 L 10.472656 163.15625 L 10.515625 162.929688 L 10.570312 162.710938 L 10.632812 162.507812 L 10.707031 162.3125 L 10.789062 162.132812 L 10.882812 161.964844 L 10.988281 161.804688 L 11.105469 161.65625 L 11.234375 161.519531 L 11.371094 161.398438 L 11.523438 161.289062 L 11.6875 161.1875 L 11.863281 161.101562 L 12.050781 161.027344 L 12.25 160.964844 L 12.460938 160.917969 L 12.617188 162.183594 L 12.554688 162.195312 L 12.429688 162.234375 L 12.375 162.257812 L 12.316406 162.28125 L 12.265625 162.308594 L 12.210938 162.335938 L 12.164062 162.371094 L 12.117188 162.402344 L 12.070312 162.441406 L 12.027344 162.476562 L 11.945312 162.558594 L 11.90625 162.601562 L 11.867188 162.648438 L 11.832031 162.691406 L 11.800781 162.742188 L 11.769531 162.789062 L 11.738281 162.839844 L 11.710938 162.894531 L 11.683594 162.945312 L 11.660156 163 L 11.613281 163.117188 L 11.59375 163.175781 L 11.574219 163.238281 L 11.542969 163.363281 L 11.527344 163.429688 L 11.515625 163.496094 L 11.503906 163.558594 L 11.496094 163.625 L 11.484375 163.695312 L 11.476562 163.761719 L 11.46875 163.832031 L 11.464844 163.898438 L 11.457031 164.039062 L 11.457031 164.109375 L 11.453125 164.183594 L 11.457031 164.367188 L 11.464844 164.542969 L 11.480469 164.707031 L 11.5 164.863281 L 11.527344 165.011719 L 11.558594 165.144531 L 11.597656 165.269531 L 11.640625 165.386719 L 11.6875 165.492188 L 11.742188 165.589844 L 11.804688 165.675781 L 11.871094 165.75 L 11.945312 165.820312 L 12.023438 165.878906 L 12.105469 165.929688 L 12.199219 165.96875 L 12.292969 166 L 12.394531 166.023438 L 12.503906 166.035156 L 12.617188 166.042969 L 12.6875 166.039062 L 12.75 166.035156 L 12.8125 166.027344 L 12.875 166.015625 L 12.933594 166 L 13.042969 165.960938 L 13.09375 165.9375 L 13.140625 165.910156 L 13.1875 165.878906 L 13.230469 165.839844 L 13.273438 165.804688 L 13.316406 165.761719 L 13.355469 165.71875 L 13.390625 165.675781 L 13.429688 165.625 L 13.5 165.523438 L 13.53125 165.464844 L 13.5625 165.410156 L 13.59375 165.347656 L 13.648438 165.214844 L 13.703125 165.074219 L 13.757812 164.925781 L 13.78125 164.847656 L 13.828125 164.683594 L 13.851562 164.597656 L 13.875 164.507812 L 13.898438 164.421875 L 13.917969 164.332031 L 13.964844 164.144531 L 13.992188 164.050781 L 14.015625 163.953125 L 14.039062 163.851562 L 14.0625 163.753906 L 14.082031 163.683594 L 14.097656 163.617188 L 14.117188 163.550781 L 14.136719 163.480469 L 14.152344 163.414062 L 14.210938 163.203125 L 14.230469 163.136719 L 14.289062 162.925781 L 14.3125 162.855469 L 14.332031 162.789062 L 14.355469 162.71875 L 14.378906 162.652344 L 14.40625 162.582031 L 14.429688 162.515625 L 14.457031 162.449219 L 14.484375 162.386719 L 14.511719 162.316406 L 14.542969 162.253906 L 14.570312 162.1875 L 14.664062 162 L 14.699219 161.9375 L 14.734375 161.878906 L 14.769531 161.816406 L 14.804688 161.761719 L 14.882812 161.644531 L 14.960938 161.535156 L 15.003906 161.484375 L 15.097656 161.382812 L 15.191406 161.289062 L 15.242188 161.246094 L 15.351562 161.160156 L 15.40625 161.121094 L 15.582031 161.015625 L 15.648438 160.984375 L 15.710938 160.953125 L 15.777344 160.925781 L 15.84375 160.902344 L 15.914062 160.875 L 15.988281 160.851562 L 16.0625 160.832031 L 16.136719 160.816406 L 16.214844 160.800781 L 16.296875 160.789062 L 16.378906 160.78125 L 16.464844 160.773438 L 16.550781 160.769531 Z M 16.640625 160.769531 "/>
<path style=" stroke:none;fill-rule:evenodd;fill:rgb(0%,0%,0%);fill-opacity:1;" d="M 18.976562 159.082031 L 12.171875 159.082031 L 12.117188 159.085938 L 12.007812 159.085938 L 11.953125 159.089844 L 11.625 159.089844 L 11.570312 159.09375 L 11.46875 159.09375 L 11.414062 159.097656 L 11.3125 159.097656 L 11.261719 159.101562 L 11.214844 159.101562 L 11.164062 159.105469 L 11.070312 159.105469 L 11.023438 159.109375 L 10.976562 159.109375 L 10.929688 159.113281 L 10.84375 159.113281 L 10.800781 159.117188 L 10.757812 159.117188 L 10.714844 159.121094 L 10.636719 159.121094 L 10.597656 159.125 L 10.5625 159.125 L 10.523438 159.128906 L 10.523438 157.800781 L 10.5625 157.796875 L 10.597656 157.796875 L 10.636719 157.792969 L 10.71875 157.792969 L 10.761719 157.789062 L 10.804688 157.789062 L 10.847656 157.785156 L 10.9375 157.785156 L 11.078125 157.773438 L 11.121094 157.773438 L 11.214844 157.765625 L 11.265625 157.765625 L 11.3125 157.761719 L 11.40625 157.761719 L 11.457031 157.757812 L 11.503906 157.753906 L 11.550781 157.753906 L 11.597656 157.75 L 11.644531 157.75 L 11.691406 157.746094 L 11.875 157.746094 L 11.917969 157.742188 L 12.003906 157.742188 L 12.042969 157.738281 L 12.25 157.738281 L 12.25 157.707031 L 12.0625 157.644531 L 11.972656 157.613281 L 11.886719 157.585938 L 11.800781 157.554688 L 11.71875 157.523438 L 11.636719 157.488281 L 11.414062 157.394531 L 11.34375 157.359375 L 11.277344 157.320312 L 11.210938 157.285156 L 11.148438 157.246094 L 11.03125 157.167969 L 10.976562 157.125 L 10.875 157.039062 L 10.828125 156.996094 L 10.785156 156.949219 L 10.742188 156.898438 L 10.699219 156.851562 L 10.660156 156.800781 L 10.625 156.746094 L 10.5625 156.636719 L 10.535156 156.578125 L 10.507812 156.515625 L 10.484375 156.457031 L 10.445312 156.324219 L 10.425781 156.253906 L 10.410156 156.183594 L 10.398438 156.109375 L 10.386719 156.03125 L 10.378906 155.953125 L 10.375 155.871094 L 10.367188 155.699219 L 10.367188 155.664062 L 10.371094 155.628906 L 10.371094 155.597656 L 10.375 155.5625 L 10.375 155.53125 L 10.378906 155.496094 L 10.386719 155.433594 L 10.394531 155.402344 L 10.398438 155.371094 L 10.40625 155.339844 L 10.410156 155.308594 L 10.417969 155.253906 L 10.421875 155.230469 L 10.429688 155.207031 L 10.433594 155.183594 L 10.441406 155.144531 L 10.445312 155.128906 L 11.734375 155.128906 L 11.726562 155.15625 L 11.722656 155.183594 L 11.707031 155.246094 L 11.703125 155.28125 L 11.699219 155.3125 L 11.691406 155.347656 L 11.683594 155.417969 L 11.679688 155.457031 L 11.675781 155.492188 L 11.667969 155.570312 L 11.667969 155.613281 L 11.664062 155.65625 L 11.660156 155.695312 L 11.660156 155.785156 L 11.65625 155.832031 L 11.65625 155.878906 L 11.660156 155.972656 L 11.667969 156.066406 L 11.675781 156.15625 L 11.691406 156.242188 L 11.710938 156.328125 L 11.738281 156.40625 L 11.765625 156.488281 L 11.796875 156.5625 L 11.835938 156.636719 L 11.875 156.707031 L 11.921875 156.769531 L 11.972656 156.835938 L 12.023438 156.894531 L 12.078125 156.957031 L 12.136719 157.011719 L 12.199219 157.066406 L 12.265625 157.117188 L 12.335938 157.167969 L 12.484375 157.261719 L 12.5625 157.300781 L 12.644531 157.339844 L 12.816406 157.410156 L 12.90625 157.445312 L 13 157.472656 L 13.097656 157.5 L 13.199219 157.527344 L 13.300781 157.550781 L 13.40625 157.574219 L 13.515625 157.589844 L 13.625 157.609375 L 13.734375 157.625 L 13.847656 157.636719 L 13.964844 157.648438 L 14.199219 157.664062 L 14.324219 157.671875 L 14.445312 157.671875 L 14.570312 157.675781 L 18.976562 157.675781 Z M 18.976562 159.082031 "/>
</g>
</svg>
